<?xml version="1.0" encoding="UTF-8" standalone="no"?>
<!DOCTYPE svg PUBLIC "-//W3C//DTD SVG 1.1//EN" "http://www.w3.org/Graphics/SVG/1.1/DTD/svg11.dtd">
<svg width="100%" height="100%" viewBox="0 0 512 512" version="1.1" xmlns="http://www.w3.org/2000/svg" xmlns:xlink="http://www.w3.org/1999/xlink" xml:space="preserve" xmlns:serif="http://www.serif.com/" style="fill-rule:evenodd;clip-rule:evenodd;stroke-linejoin:round;stroke-miterlimit:2;">
    <g>
        <g>
            <g transform="matrix(5.26429,0,0,5.09876,-212.038,-756.4)">
                <ellipse cx="88.908" cy="198.573" rx="48.432" ry="49.816" style="fill:rgb(233,190,130);fill-opacity:0.55;"/>
            </g>
            <g transform="matrix(0.795998,0,0,0.795998,51.7442,57.632)">
                <path d="M370.68,233.008L376,231.112L376,48C376,25.944 358.056,8 336,8L176,8C153.944,8 136,25.944 136,48L136,231.112L141.32,233.008C147.704,235.28 152,241.304 152,248C152,254.696 147.704,260.72 141.32,262.992L136,264.888L136,312L176.208,312C171.128,318.704 168,326.96 168,336L168,456L184,456L184,336C184,322.768 194.768,312 208,312L304,312C317.232,312 328,322.768 328,336L328,504L344,504L344,336C344,326.96 340.872,318.704 335.792,312L376,312L376,264.888L370.68,262.992C364.296,260.72 360,254.696 360,248C360,241.304 364.296,235.28 370.68,233.008ZM232,123.056L208,135.056L184,123.056L184,24L232,24L232,123.056ZM152,275.608C161.76,269.96 168,259.48 168,248C168,236.52 161.76,226.032 152,220.392L152,48C152,37.584 158.712,28.784 168,25.472L168,296L152,296L152,275.608ZM184,296L184,140.944L208,152.944L232,140.944L232,296L184,296ZM360,220.392C350.24,226.04 344,236.52 344,248C344,259.48 350.24,269.968 360,275.608L360,296L248,296L248,24L336,24C349.232,24 360,34.768 360,48L360,220.392Z" style="fill:rgb(233,189,130);fill-rule:nonzero;"/>
                <rect x="200" y="40" width="16" height="48" style="fill:rgb(233,189,130);fill-rule:nonzero;"/>
                <rect x="200" y="232" width="16" height="48" style="fill:rgb(233,189,130);fill-rule:nonzero;"/>
            </g>
        </g>
    </g>
</svg>
