<?xml version="1.0" encoding="UTF-8" standalone="no"?>
<!DOCTYPE svg PUBLIC "-//W3C//DTD SVG 1.1//EN" "http://www.w3.org/Graphics/SVG/1.1/DTD/svg11.dtd">
<svg width="100%" height="100%" viewBox="0 0 512 512" version="1.1" xmlns="http://www.w3.org/2000/svg" xmlns:xlink="http://www.w3.org/1999/xlink" xml:space="preserve" xmlns:serif="http://www.serif.com/" style="fill-rule:evenodd;clip-rule:evenodd;stroke-linejoin:round;stroke-miterlimit:2;">
    <g>
        <g>
            <g transform="matrix(5.26429,0,0,5.09876,-212.038,-756.4)">
                <ellipse cx="88.908" cy="198.573" rx="48.432" ry="49.816" style="fill:rgb(233,140,130);fill-opacity:0.55;"/>
            </g>
            <g transform="matrix(-0.838826,1.02727e-16,-1.02727e-16,-0.838826,470.479,477.979)">
                <g>
                    <path d="M339.758,83.761C309.354,83.761 280.806,91.744 255.997,105.632C231.182,91.744 202.64,83.761 172.236,83.761C77.274,83.761 0,161.017 0,256C0,350.989 77.256,428.239 172.239,428.239C202.643,428.239 231.185,420.256 256,406.365C280.806,420.253 309.357,428.239 339.761,428.239C434.75,428.239 512,350.989 512,256C512,161.017 434.75,83.761 339.758,83.761ZM172.239,400.055C92.798,400.055 28.184,335.464 28.184,255.997C28.184,176.557 92.798,111.942 172.239,111.942C192.588,111.942 211.918,116.245 229.468,123.869C191.669,155.494 167.541,202.972 167.541,256C167.541,309.028 191.669,356.531 229.468,388.128C211.897,395.758 192.57,400.055 172.239,400.055ZM316.273,256C316.273,304.165 292.401,346.807 255.997,372.971C219.566,346.788 195.721,304.201 195.721,256C195.721,207.826 219.584,165.193 255.997,139.038C292.437,165.193 316.273,207.823 316.273,256ZM339.758,400.055C319.409,400.055 300.109,395.758 282.529,388.125C320.328,356.494 344.459,309.044 344.459,255.997C344.459,202.95 320.328,155.475 282.529,123.869C300.109,116.245 319.409,111.942 339.758,111.942C419.19,111.942 483.816,176.557 483.816,255.997C483.816,335.467 419.193,400.055 339.758,400.055Z" style="fill:rgb(233,132,130);fill-rule:nonzero;"/>
                </g>
            </g>
        </g>
    </g>
</svg>
