<?xml version="1.0" encoding="UTF-8" standalone="no"?>
<!DOCTYPE svg PUBLIC "-//W3C//DTD SVG 1.1//EN" "http://www.w3.org/Graphics/SVG/1.1/DTD/svg11.dtd">
<svg width="100%" height="100%" viewBox="0 0 512 512" version="1.1" xmlns="http://www.w3.org/2000/svg" xmlns:xlink="http://www.w3.org/1999/xlink" xml:space="preserve" xmlns:serif="http://www.serif.com/" style="fill-rule:evenodd;clip-rule:evenodd;stroke-linejoin:round;stroke-miterlimit:2;">
    <g>
        <g transform="matrix(5.26429,0,0,5.09876,-212.038,-756.4)">
            <ellipse cx="88.908" cy="198.573" rx="48.432" ry="49.816" style="fill:rgb(130,233,163);fill-opacity:0.55;"/>
        </g>
        <g transform="matrix(0.735249,0,0,0.735249,65.7298,65.2132)">
            <path d="M39.577,103.202C41.551,103.202 43.495,102.4 44.888,100.997C46.29,99.605 47.092,97.661 47.092,95.687C47.092,93.713 46.29,91.769 44.888,90.377C43.495,88.974 41.551,88.172 39.577,88.172C37.603,88.172 35.66,88.974 34.267,90.377C32.864,91.769 32.063,93.713 32.063,95.687C32.063,97.661 32.864,99.605 34.267,100.997C35.66,102.4 37.603,103.202 39.577,103.202Z" style="fill:rgb(80,218,124);fill-rule:nonzero;"/>
            <path d="M63.624,103.202C65.598,103.202 67.542,102.4 68.935,100.997C70.337,99.605 71.139,97.661 71.139,95.687C71.139,93.713 70.337,91.769 68.935,90.377C67.542,88.974 65.598,88.172 63.624,88.172C61.65,88.172 59.707,88.974 58.314,90.377C56.911,91.769 56.11,93.713 56.11,95.687C56.11,97.661 56.911,99.605 58.314,100.997C59.707,102.4 61.65,103.202 63.624,103.202Z" style="fill:rgb(80,218,124);fill-rule:nonzero;"/>
            <path d="M87.671,103.202C89.645,103.202 91.589,102.4 92.982,100.997C94.384,99.605 95.186,97.661 95.186,95.687C95.186,93.713 94.384,91.769 92.982,90.377C91.589,88.974 89.645,88.172 87.671,88.172C85.697,88.172 83.754,88.974 82.361,90.377C80.958,91.769 80.157,93.713 80.157,95.687C80.157,97.671 80.958,99.605 82.361,100.997C83.754,102.4 85.697,103.202 87.671,103.202Z" style="fill:rgb(80,218,124);fill-rule:nonzero;"/>
            <path d="M456.391,103.202L472.423,103.202C476.573,103.202 479.937,99.837 479.937,95.687C479.937,91.537 476.573,88.172 472.423,88.172L456.391,88.172C452.241,88.172 448.877,91.537 448.877,95.687C448.877,99.837 452.241,103.202 456.391,103.202Z" style="fill:rgb(80,218,124);fill-rule:nonzero;"/>
            <path d="M440.36,312.611L360.204,312.611C347.22,312.611 336.658,323.173 336.658,336.157L336.658,392.266C336.658,405.25 347.22,415.812 360.204,415.812L440.36,415.812C453.343,415.812 463.906,405.25 463.906,392.266L463.906,336.157C463.906,323.173 453.343,312.611 440.36,312.611ZM448.877,392.266C448.877,396.962 445.056,400.783 440.36,400.783L360.204,400.783C355.507,400.783 351.687,396.962 351.687,392.266L351.687,336.157C351.687,331.46 355.507,327.64 360.204,327.64L440.36,327.64C445.056,327.64 448.877,331.46 448.877,336.157L448.877,392.266Z" style="fill:rgb(80,218,124);fill-rule:nonzero;"/>
            <path d="M360.204,231.452C373.187,231.452 383.75,220.889 383.75,207.906C383.75,194.923 373.187,184.36 360.204,184.36C347.22,184.36 336.658,194.923 336.658,207.906C336.658,220.889 347.22,231.452 360.204,231.452ZM360.204,199.389C364.9,199.389 368.72,203.21 368.72,207.906C368.72,212.602 364.9,216.423 360.204,216.423C355.507,216.423 351.687,212.602 351.687,207.906C351.687,203.21 355.507,199.389 360.204,199.389Z" style="fill:rgb(80,218,124);fill-rule:nonzero;"/>
            <path d="M424.329,344.673L376.235,344.673C372.085,344.673 368.72,348.038 368.72,352.188C368.72,356.338 372.085,359.703 376.235,359.703L424.329,359.703C428.479,359.703 431.843,356.338 431.843,352.188C431.843,348.038 428.479,344.673 424.329,344.673Z" style="fill:rgb(80,218,124);fill-rule:nonzero;"/>
            <path d="M400.282,368.72L376.235,368.72C372.085,368.72 368.72,372.085 368.72,376.235C368.72,380.385 372.085,383.75 376.235,383.75L400.282,383.75C404.432,383.75 407.796,380.385 407.796,376.235C407.796,372.085 404.432,368.72 400.282,368.72Z" style="fill:rgb(80,218,124);fill-rule:nonzero;"/>
            <path d="M39.577,175.342L55.609,175.342C59.759,175.342 63.123,171.978 63.123,167.828C63.123,163.678 59.759,160.313 55.609,160.313L39.577,160.313C35.427,160.313 32.063,163.678 32.063,167.828C32.063,171.978 35.427,175.342 39.577,175.342Z" style="fill:rgb(80,218,124);fill-rule:nonzero;"/>
            <path d="M39.577,215.421L55.609,215.421C59.759,215.421 63.123,212.056 63.123,207.906C63.123,203.756 59.759,200.391 55.609,200.391L39.577,200.391C35.427,200.391 32.063,203.756 32.063,207.906C32.063,212.056 35.427,215.421 39.577,215.421Z" style="fill:rgb(80,218,124);fill-rule:nonzero;"/>
            <path d="M63.624,240.47L55.609,240.47C51.459,240.47 48.094,243.834 48.094,247.984C48.094,252.134 51.459,255.499 55.609,255.499L63.624,255.499C67.774,255.499 71.139,252.134 71.139,247.984C71.139,243.834 67.774,240.47 63.624,240.47Z" style="fill:rgb(80,218,124);fill-rule:nonzero;"/>
            <path d="M39.577,295.577L55.609,295.577C59.759,295.577 63.123,292.213 63.123,288.063C63.123,283.913 59.759,280.548 55.609,280.548L39.577,280.548C35.427,280.548 32.063,283.913 32.063,288.063C32.063,292.213 35.427,295.577 39.577,295.577Z" style="fill:rgb(80,218,124);fill-rule:nonzero;"/>
            <path d="M87.671,175.342L119.734,175.342C123.884,175.342 127.249,171.978 127.249,167.828C127.249,163.678 123.884,160.313 119.734,160.313L87.671,160.313C83.521,160.313 80.157,163.678 80.157,167.828C80.157,171.978 83.521,175.342 87.671,175.342Z" style="fill:rgb(80,218,124);fill-rule:nonzero;"/>
            <path d="M87.671,295.577L151.796,295.577C155.947,295.577 159.311,292.213 159.311,288.063C159.311,283.913 155.947,280.548 151.796,280.548L87.671,280.548C83.521,280.548 80.157,283.913 80.157,288.063C80.157,292.213 83.521,295.577 87.671,295.577Z" style="fill:rgb(80,218,124);fill-rule:nonzero;"/>
            <path d="M87.671,215.421L167.828,215.421C171.978,215.421 175.342,212.056 175.342,207.906C175.342,203.756 171.978,200.391 167.828,200.391L87.671,200.391C83.521,200.391 80.157,203.756 80.157,207.906C80.157,212.056 83.521,215.421 87.671,215.421Z" style="fill:rgb(80,218,124);fill-rule:nonzero;"/>
            <path d="M95.687,240.47C91.537,240.47 88.172,243.834 88.172,247.984C88.172,252.134 91.537,255.499 95.687,255.499L127.75,255.499C131.9,255.499 135.264,252.134 135.264,247.984C135.264,243.834 131.9,240.47 127.75,240.47L95.687,240.47Z" style="fill:rgb(80,218,124);fill-rule:nonzero;"/>
            <path d="M191.374,247.984C191.374,243.834 188.009,240.47 183.859,240.47L159.812,240.47C155.662,240.47 152.297,243.834 152.297,247.984C152.297,252.134 155.662,255.499 159.812,255.499L183.859,255.499C188.009,255.499 191.374,252.134 191.374,247.984Z" style="fill:rgb(80,218,124);fill-rule:nonzero;"/>
            <path d="M215.922,240.47C213.948,240.47 212.004,241.271 210.611,242.674C209.209,244.067 208.407,246.01 208.407,247.984C208.407,249.958 209.209,251.902 210.611,253.295C212.004,254.697 213.948,255.499 215.922,255.499C217.896,255.499 219.839,254.697 221.232,253.295C222.635,251.902 223.436,249.958 223.436,247.984C223.436,246.01 222.635,244.067 221.232,242.674C219.839,241.271 217.896,240.47 215.922,240.47Z" style="fill:rgb(80,218,124);fill-rule:nonzero;"/>
            <path d="M194.58,322.831C193.177,324.223 192.376,326.167 192.376,328.141C192.376,330.115 193.177,332.059 194.58,333.451C195.973,334.854 197.917,335.656 199.89,335.656C201.864,335.656 203.808,334.854 205.201,333.451C206.604,332.059 207.405,330.115 207.405,328.141C207.405,326.167 206.604,324.223 205.201,322.831C203.808,321.428 201.874,320.626 199.89,320.626C197.907,320.626 195.973,321.428 194.58,322.831Z" style="fill:rgb(80,218,124);fill-rule:nonzero;"/>
            <path d="M63.624,320.626L55.609,320.626C51.459,320.626 48.094,323.991 48.094,328.141C48.094,332.291 51.459,335.656 55.609,335.656L63.624,335.656C67.774,335.656 71.139,332.291 71.139,328.141C71.139,323.991 67.774,320.626 63.624,320.626Z" style="fill:rgb(80,218,124);fill-rule:nonzero;"/>
            <path d="M175.342,328.141C175.342,323.991 171.978,320.626 167.828,320.626L95.687,320.626C91.537,320.626 88.172,323.991 88.172,328.141C88.172,332.291 91.537,335.656 95.687,335.656L167.828,335.656C171.978,335.656 175.342,332.291 175.342,328.141Z" style="fill:rgb(80,218,124);fill-rule:nonzero;"/>
            <path d="M63.624,360.705L55.609,360.705C51.459,360.705 48.094,364.069 48.094,368.219C48.094,372.369 51.459,375.734 55.609,375.734L63.624,375.734C67.774,375.734 71.139,372.369 71.139,368.219C71.139,364.069 67.774,360.705 63.624,360.705Z" style="fill:rgb(80,218,124);fill-rule:nonzero;"/>
            <path d="M95.687,360.705C91.537,360.705 88.172,364.069 88.172,368.219C88.172,372.369 91.537,375.734 95.687,375.734L143.781,375.734C147.931,375.734 151.295,372.369 151.295,368.219C151.295,364.069 147.931,360.705 143.781,360.705L95.687,360.705Z" style="fill:rgb(80,218,124);fill-rule:nonzero;"/>
            <path d="M207.405,368.219C207.405,364.069 204.041,360.705 199.89,360.705L175.843,360.705C171.693,360.705 168.329,364.069 168.329,368.219C168.329,372.369 171.693,375.734 175.843,375.734L199.89,375.734C204.041,375.734 207.405,372.369 207.405,368.219Z" style="fill:rgb(80,218,124);fill-rule:nonzero;"/>
            <path d="M55.609,400.783L39.577,400.783C35.427,400.783 32.063,404.147 32.063,408.297C32.063,412.448 35.427,415.812 39.577,415.812L55.609,415.812C59.759,415.812 63.123,412.448 63.123,408.297C63.123,404.147 59.759,400.783 55.609,400.783Z" style="fill:rgb(80,218,124);fill-rule:nonzero;"/>
            <path d="M111.718,400.783L87.671,400.783C83.521,400.783 80.157,404.147 80.157,408.297C80.157,412.448 83.521,415.812 87.671,415.812L111.718,415.812C115.868,415.812 119.233,412.448 119.233,408.297C119.233,404.147 115.868,400.783 111.718,400.783Z" style="fill:rgb(80,218,124);fill-rule:nonzero;"/>
            <path d="M223.937,400.783L207.906,400.783C203.756,400.783 200.391,404.147 200.391,408.297C200.391,412.448 203.756,415.812 207.906,415.812L223.937,415.812C228.087,415.812 231.452,412.448 231.452,408.297C231.452,404.147 228.087,400.783 223.937,400.783Z" style="fill:rgb(80,218,124);fill-rule:nonzero;"/>
            <path d="M151.796,175.342L215.922,175.342C220.072,175.342 223.436,171.978 223.436,167.828C223.436,163.678 220.072,160.313 215.922,160.313L151.796,160.313C147.646,160.313 144.282,163.678 144.282,167.828C144.282,171.978 147.646,175.342 151.796,175.342Z" style="fill:rgb(80,218,124);fill-rule:nonzero;"/>
            <path d="M175.843,400.783L143.781,400.783C139.631,400.783 136.266,404.147 136.266,408.297C136.266,412.448 139.631,415.812 143.781,415.812L175.843,415.812C179.994,415.812 183.358,412.448 183.358,408.297C183.358,404.147 179.994,400.783 175.843,400.783Z" style="fill:rgb(80,218,124);fill-rule:nonzero;"/>
            <path d="M472.423,56.11L263.515,56.11L263.515,39.577C263.515,35.427 260.15,32.063 256,32.063C251.85,32.063 248.485,35.427 248.485,39.577L248.485,56.11L39.577,56.11C17.755,56.11 0,73.864 0,95.687L0,416.313C0,438.136 17.755,455.89 39.577,455.89L248.485,455.89L248.485,472.423C248.485,476.573 251.85,479.937 256,479.937C260.15,479.937 263.515,476.573 263.515,472.423L263.515,455.89L472.423,455.89C494.245,455.89 512,438.136 512,416.313L512,95.687C512,73.864 494.245,56.11 472.423,56.11ZM472.423,71.139C485.958,71.139 496.971,82.151 496.971,95.687L496.971,120.235L263.515,120.235L263.515,103.202L424.329,103.202C428.479,103.202 431.843,99.837 431.843,95.687C431.843,91.537 428.479,88.172 424.329,88.172L263.515,88.172L263.515,71.139L472.423,71.139ZM39.577,71.139L248.485,71.139L248.485,88.172L119.734,88.172C115.584,88.172 112.219,91.537 112.219,95.687C112.219,99.837 115.584,103.202 119.734,103.202L248.485,103.202L248.485,120.235L15.029,120.235L15.029,95.687C15.029,82.151 26.042,71.139 39.577,71.139ZM39.577,440.861C26.042,440.861 15.029,429.849 15.029,416.313L15.029,135.264L248.485,135.264L248.485,440.861L39.577,440.861ZM263.515,327.64L296.078,327.64C300.774,327.64 304.595,331.46 304.595,336.157L304.595,392.266C304.595,396.962 300.774,400.783 296.078,400.783L263.515,400.783L263.515,327.64ZM263.515,275.143L312.11,226.548L354.89,269.329C357.825,272.264 362.583,272.264 365.517,269.329L448.877,185.969L448.877,272.031C448.877,276.727 445.056,280.548 440.36,280.548L263.515,280.548L263.515,275.143ZM360.204,253.389L317.423,210.608C314.488,207.674 309.73,207.674 306.796,210.608L263.515,253.89L263.515,175.342L438.25,175.342L360.204,253.389ZM472.423,440.861L263.515,440.861L263.515,415.812L296.078,415.812C309.062,415.812 319.624,405.25 319.624,392.266L319.624,336.157C319.624,323.173 309.062,312.611 296.078,312.611L263.515,312.611L263.515,295.577L440.36,295.577C453.343,295.577 463.906,285.015 463.906,272.031L463.906,183.859C463.906,170.876 453.343,160.313 440.36,160.313L263.515,160.313L263.515,135.264L496.971,135.264L496.971,416.313C496.971,429.849 485.958,440.861 472.423,440.861Z" style="fill:rgb(80,218,124);fill-rule:nonzero;"/>
        </g>
    </g>
</svg>
