<?xml version="1.0" encoding="UTF-8" standalone="no"?>
<!DOCTYPE svg PUBLIC "-//W3C//DTD SVG 1.1//EN" "http://www.w3.org/Graphics/SVG/1.1/DTD/svg11.dtd">
<svg width="100%" height="100%" viewBox="0 0 300 300" version="1.1" xmlns="http://www.w3.org/2000/svg" xmlns:xlink="http://www.w3.org/1999/xlink" xml:space="preserve" xmlns:serif="http://www.serif.com/" style="fill-rule:evenodd;clip-rule:evenodd;stroke-linejoin:round;stroke-miterlimit:2;">
    <g transform="matrix(1,0,0,1,0,23)">
        <g transform="matrix(1.29196,0,0,1.42227,-23.5103,-15.1627)">
            <path d="M249.932,54.628C249.932,30.519 228.385,10.946 201.844,10.946L66.129,10.946C39.588,10.946 18.041,30.519 18.041,54.628L18.041,141.993C18.041,166.102 39.588,185.676 66.129,185.676L201.844,185.676C228.385,185.676 249.932,166.102 249.932,141.993L249.932,54.628Z" style="fill:white;"/>
        </g>
        <rect x="0" y="0" width="300" height="300" style="fill:none;"/>
        <g transform="matrix(2.43874,0,0,2.43874,20.9863,1.23694)">
            <g id="_0e141860-9d85-4878-9f8b-78f7fa2170ec" serif:id="0e141860-9d85-4878-9f8b-78f7fa2170ec">
                <path d="M94.74,7.09C94.388,6.738 93.883,6.583 93.394,6.677L76.522,9.958C71.265,10.978 66.432,13.549 62.649,17.339L45.892,34.097L43.711,31.916C43.288,31.492 42.65,31.361 42.094,31.583L20.637,40.154C20.454,40.227 20.288,40.336 20.147,40.474L15.834,44.674C15.544,44.956 15.38,45.344 15.38,45.749C15.38,46.369 15.765,46.928 16.344,47.15L29.85,52.32L33.116,55.588L23.138,59.703C22.578,59.934 22.21,60.483 22.21,61.09C22.21,61.487 22.368,61.869 22.649,62.15L39.679,79.18C39.96,79.462 40.342,79.62 40.74,79.62C40.839,79.62 40.937,79.61 41.034,79.591C41.525,79.492 41.936,79.154 42.127,78.691L46.242,68.714L49.362,71.834L54.532,85.338C54.715,85.815 55.129,86.168 55.63,86.271C55.73,86.291 55.831,86.301 55.933,86.301C56.337,86.301 56.725,86.138 57.007,85.849L61.209,81.536C61.346,81.395 61.455,81.229 61.527,81.046L70.1,59.588C70.322,59.032 70.191,58.394 69.768,57.971L67.734,55.937L84.494,39.178C88.281,35.389 90.852,30.554 91.874,25.295L95.154,8.435C95.248,7.946 95.093,7.44 94.741,7.088L94.74,7.09ZM22.026,42.83L42.289,34.736L43.771,36.218L30.595,49.394L19.607,45.187L22.026,42.83ZM41.9,61.429C41.865,61.443 41.831,61.458 41.798,61.474L38.881,62.912L40.324,60.007C40.339,59.979 40.351,59.95 40.364,59.92L43.379,53.87L52.428,49.376L47.961,58.449L41.9,61.429ZM40.212,75.469L26.36,61.62L35.406,57.89L37.156,59.64L34.216,65.553C33.93,66.128 34.044,66.825 34.497,67.279C34.598,67.377 34.712,67.461 34.837,67.527C34.864,67.542 34.89,67.557 34.917,67.57C35.037,67.629 35.165,67.671 35.297,67.695C35.319,67.699 35.339,67.698 35.36,67.701C35.426,67.712 35.493,67.719 35.56,67.721C35.606,67.721 35.653,67.709 35.7,67.705C35.74,67.701 35.78,67.698 35.821,67.691C35.96,67.669 36.096,67.627 36.223,67.566L42.159,64.641L43.94,66.424L40.212,75.469ZM66.947,59.394L58.854,79.656L56.496,82.076L52.37,71.3L65.612,58.06L66.947,59.394ZM82.37,37.06L50.6,68.83L45.01,63.243L49.743,60.916C50.04,60.77 50.281,60.529 50.427,60.232L57.077,46.722C57.178,46.516 57.231,46.29 57.231,46.061C57.231,45.238 56.554,44.561 55.731,44.561C55.499,44.561 55.271,44.614 55.064,44.717L41.594,51.407C41.301,51.552 41.064,51.789 40.918,52.081L38.566,56.799L33,51.231L64.77,19.461C65.692,18.543 66.687,17.702 67.746,16.946L84.882,34.08C84.126,35.139 83.286,36.135 82.369,37.059L82.37,37.06ZM88.929,24.722C88.469,27.081 87.656,29.357 86.517,31.474L70.353,15.31C72.467,14.174 74.741,13.362 77.097,12.902L91.782,10.046L88.929,24.722Z" style="fill:url(#_Linear1);fill-rule:nonzero;"/>
                <path d="M68.917,24.996C68.917,24.996 68.917,24.996 68.917,24.996C64.574,24.996 61,28.57 61,32.913C61,37.256 64.574,40.83 68.917,40.83C73.26,40.83 76.834,37.256 76.834,32.913C76.834,30.814 75.999,28.799 74.515,27.315C73.034,25.826 71.017,24.99 68.917,24.995L68.917,24.996ZM72.394,36.39C71.472,37.312 70.221,37.83 68.917,37.83C66.22,37.83 64,35.61 64,32.913C64,30.216 66.22,27.996 68.917,27.996C70.221,27.996 71.472,28.514 72.394,29.436C73.324,30.354 73.847,31.607 73.847,32.913C73.847,34.219 73.324,35.472 72.394,36.39ZM22.983,81.338L28.093,76.228C28.397,75.944 28.57,75.547 28.57,75.131C28.57,74.308 27.893,73.631 27.07,73.631C26.654,73.631 26.257,73.804 25.973,74.108L20.863,79.218C20.559,79.502 20.386,79.899 20.386,80.315C20.386,81.138 21.063,81.815 21.886,81.815C22.302,81.815 22.699,81.642 22.983,81.338ZM17.06,83.02L15.6,84.478C15.319,84.759 15.162,85.141 15.162,85.538C15.162,86.361 15.839,87.038 16.662,87.038C17.06,87.038 17.443,86.88 17.724,86.598L19.181,85.142C19.462,84.861 19.621,84.479 19.621,84.081C19.621,83.258 18.943,82.581 18.121,82.581C17.723,82.581 17.341,82.739 17.06,83.02ZM12.702,87.377L10.404,89.675C10.111,89.958 9.946,90.347 9.946,90.754C9.946,91.577 10.623,92.254 11.446,92.254C11.853,92.254 12.242,92.089 12.525,91.796L14.823,89.5C15.105,89.219 15.263,88.837 15.263,88.438C15.263,87.616 14.586,86.938 13.763,86.938C13.366,86.938 12.984,87.096 12.703,87.377L12.702,87.377ZM11.553,81.36C12.135,81.941 13.091,81.941 13.673,81.36L23.654,71.38C23.954,71.097 24.124,70.702 24.124,70.29C24.124,69.467 23.446,68.79 22.624,68.79C22.212,68.79 21.817,68.96 21.534,69.259L11.553,79.239C10.971,79.821 10.971,80.778 11.553,81.36ZM11.741,72.79L18.76,65.77C19.059,65.487 19.229,65.092 19.229,64.68C19.229,63.858 18.552,63.18 17.729,63.18C17.317,63.18 16.922,63.35 16.639,63.65L9.62,70.667C9.339,70.948 9.18,71.33 9.18,71.728C9.18,72.551 9.858,73.228 10.68,73.228C11.078,73.228 11.46,73.07 11.741,72.789L11.741,72.79ZM6.64,73.649L5.44,74.849C5.14,75.132 4.97,75.527 4.97,75.939C4.97,76.762 5.648,77.439 6.47,77.439C6.882,77.439 7.277,77.269 7.56,76.97L8.76,75.77C9.06,75.487 9.23,75.092 9.23,74.68C9.23,73.857 8.552,73.18 7.73,73.18C7.318,73.18 6.923,73.35 6.64,73.649ZM32.773,78.536C32.191,77.955 31.235,77.955 30.653,78.536L21.496,87.692C21.203,87.975 21.038,88.364 21.038,88.771C21.038,89.594 21.715,90.271 22.538,90.271C22.945,90.271 23.334,90.106 23.617,89.813L32.773,80.657C33.355,80.075 33.355,79.118 32.773,78.536ZM36.143,83.14L33.79,85.49C33.497,85.773 33.332,86.162 33.332,86.569C33.332,87.392 34.009,88.069 34.832,88.069C35.239,88.069 35.628,87.904 35.911,87.611L38.263,85.259C38.562,84.976 38.732,84.581 38.732,84.169C38.732,83.347 38.055,82.669 37.232,82.669C36.82,82.669 36.425,82.839 36.142,83.139L36.143,83.14ZM30.938,88.343L28.465,90.817C28.165,91.1 27.995,91.495 27.995,91.907C27.995,92.73 28.673,93.407 29.495,93.407C29.907,93.407 30.302,93.237 30.585,92.938L33.06,90.464C33.352,90.181 33.517,89.792 33.517,89.386C33.517,88.563 32.84,87.886 32.017,87.886C31.61,87.886 31.221,88.051 30.938,88.344L30.938,88.343Z" style="fill:url(#_Linear2);fill-rule:nonzero;"/>
            </g>
        </g>
    </g>
    <defs>
        <linearGradient id="_Linear1" x1="0" y1="0" x2="1" y2="0" gradientUnits="userSpaceOnUse" gradientTransform="matrix(72.3244,33.7254,-33.7254,72.3244,11.1286,12.5269)"><stop offset="0" style="stop-color:rgb(40,139,88);stop-opacity:1"/><stop offset="1" style="stop-color:rgb(21,34,241);stop-opacity:1"/></linearGradient>
        <linearGradient id="_Linear2" x1="0" y1="0" x2="1" y2="0" gradientUnits="userSpaceOnUse" gradientTransform="matrix(65.1302,30.3707,-30.3707,65.1302,-6.05853,24.7538)"><stop offset="0" style="stop-color:rgb(40,139,88);stop-opacity:1"/><stop offset="1" style="stop-color:rgb(21,34,241);stop-opacity:1"/></linearGradient>
    </defs>
</svg>
