<?xml version="1.0" encoding="UTF-8" standalone="no"?>
<!DOCTYPE svg PUBLIC "-//W3C//DTD SVG 1.1//EN" "http://www.w3.org/Graphics/SVG/1.1/DTD/svg11.dtd">
<svg width="100%" height="100%" viewBox="0 0 411 90" version="1.1" xmlns="http://www.w3.org/2000/svg" xmlns:xlink="http://www.w3.org/1999/xlink" xml:space="preserve" xmlns:serif="http://www.serif.com/" style="fill-rule:evenodd;clip-rule:evenodd;stroke-linejoin:round;stroke-miterlimit:2;">
    <g id="_47118c79-e9a3-4402-a836-28bb7c6fd7b5" serif:id="47118c79-e9a3-4402-a836-28bb7c6fd7b5" transform="matrix(4.21053,0,0,4.21053,109.793,9.69474)">
        <path d="M6.3,1.26C7.007,1.26 7.62,1.353 8.14,1.54C8.66,1.727 9.187,2.033 9.72,2.46C9.827,2.547 9.9,2.633 9.94,2.72C9.98,2.813 10,2.92 10,3.04C10,3.227 9.93,3.38 9.79,3.5C9.657,3.62 9.5,3.68 9.32,3.68C9.147,3.68 8.983,3.62 8.83,3.5C8.45,3.173 8.077,2.937 7.71,2.79C7.35,2.65 6.88,2.58 6.3,2.58C5.573,2.58 4.903,2.77 4.29,3.15C3.677,3.53 3.19,4.05 2.83,4.71C2.477,5.37 2.3,6.087 2.3,6.86C2.3,7.647 2.477,8.367 2.83,9.02C3.19,9.673 3.677,10.19 4.29,10.57C4.903,10.95 5.573,11.14 6.3,11.14C7.193,11.14 8.053,10.833 8.88,10.22C9.033,10.107 9.187,10.05 9.34,10.05C9.513,10.05 9.66,10.113 9.78,10.24C9.893,10.367 9.95,10.533 9.95,10.74C9.95,10.933 9.877,11.107 9.73,11.26C8.723,12.067 7.58,12.47 6.3,12.47C5.3,12.47 4.387,12.223 3.56,11.73C2.733,11.237 2.083,10.56 1.61,9.7C1.137,8.84 0.9,7.893 0.9,6.86C0.9,5.833 1.137,4.893 1.61,4.04C2.083,3.187 2.733,2.51 3.56,2.01C4.387,1.51 5.3,1.26 6.3,1.26ZM15.61,4.62C16.35,4.62 17.01,4.787 17.59,5.12C18.177,5.447 18.633,5.907 18.96,6.5C19.293,7.087 19.46,7.757 19.46,8.51C19.46,9.257 19.297,9.923 18.97,10.51C18.643,11.103 18.19,11.563 17.61,11.89C17.023,12.223 16.357,12.39 15.61,12.39C14.863,12.39 14.197,12.223 13.61,11.89C13.023,11.563 12.567,11.103 12.24,10.51C11.913,9.923 11.75,9.257 11.75,8.51C11.75,7.757 11.913,7.087 12.24,6.5C12.567,5.907 13.023,5.447 13.61,5.12C14.197,4.787 14.863,4.62 15.61,4.62ZM15.61,5.88C15.137,5.88 14.71,5.993 14.33,6.22C13.95,6.44 13.653,6.75 13.44,7.15C13.227,7.557 13.12,8.01 13.12,8.51C13.12,9.017 13.227,9.467 13.44,9.86C13.653,10.26 13.95,10.57 14.33,10.79C14.71,11.017 15.137,11.13 15.61,11.13C16.083,11.13 16.51,11.017 16.89,10.79C17.27,10.57 17.563,10.26 17.77,9.86C17.983,9.467 18.09,9.017 18.09,8.51C18.09,8.01 17.983,7.557 17.77,7.15C17.563,6.75 17.27,6.44 16.89,6.22C16.51,5.993 16.083,5.88 15.61,5.88ZM28.2,1.4C28.413,1.4 28.583,1.467 28.71,1.6C28.843,1.727 28.91,1.897 28.91,2.11L28.91,8.5C28.91,9.227 28.74,9.887 28.4,10.48C28.06,11.073 27.597,11.54 27.01,11.88C26.43,12.22 25.78,12.39 25.06,12.39C24.34,12.39 23.683,12.22 23.09,11.88C22.497,11.54 22.033,11.073 21.7,10.48C21.367,9.887 21.2,9.227 21.2,8.5C21.2,7.773 21.357,7.113 21.67,6.52C21.977,5.927 22.403,5.46 22.95,5.12C23.497,4.787 24.107,4.62 24.78,4.62C25.32,4.62 25.823,4.733 26.29,4.96C26.757,5.18 27.153,5.49 27.48,5.89L27.48,2.11C27.48,1.897 27.55,1.727 27.69,1.6C27.823,1.467 27.993,1.4 28.2,1.4ZM25.06,11.13C25.527,11.13 25.95,11.017 26.33,10.79C26.703,10.557 27,10.24 27.22,9.84C27.433,9.44 27.54,8.993 27.54,8.5C27.54,8.007 27.433,7.56 27.22,7.16C27,6.767 26.703,6.453 26.33,6.22C25.95,5.993 25.527,5.88 25.06,5.88C24.593,5.88 24.17,5.993 23.79,6.22C23.417,6.453 23.12,6.767 22.9,7.16C22.68,7.56 22.57,8.007 22.57,8.5C22.57,8.993 22.68,9.44 22.9,9.84C23.12,10.24 23.417,10.557 23.79,10.79C24.17,11.017 24.593,11.13 25.06,11.13ZM31.57,5.39C31.57,5.177 31.637,5.003 31.77,4.87C31.91,4.743 32.08,4.68 32.28,4.68C32.5,4.68 32.673,4.743 32.8,4.87C32.933,5.003 33,5.177 33,5.39L33,11.62C33,11.827 32.933,11.997 32.8,12.13C32.673,12.263 32.5,12.33 32.28,12.33C32.08,12.33 31.91,12.263 31.77,12.13C31.637,11.997 31.57,11.827 31.57,11.62L31.57,5.39ZM32.28,1.58C32.533,1.58 32.753,1.67 32.94,1.85C33.12,2.037 33.21,2.257 33.21,2.51C33.21,2.757 33.12,2.973 32.94,3.16C32.753,3.34 32.533,3.43 32.28,3.43C32.033,3.43 31.817,3.34 31.63,3.16C31.45,2.973 31.36,2.757 31.36,2.51C31.36,2.257 31.45,2.037 31.63,1.85C31.817,1.67 32.033,1.58 32.28,1.58ZM39.13,4.62C39.87,4.62 40.53,4.787 41.11,5.12C41.697,5.447 42.153,5.907 42.48,6.5C42.813,7.087 42.98,7.757 42.98,8.51L42.98,11.54C42.98,12.273 42.817,12.943 42.49,13.55C42.163,14.157 41.703,14.637 41.11,14.99C40.517,15.337 39.847,15.51 39.1,15.51C38.427,15.51 37.803,15.377 37.23,15.11C36.65,14.843 36.163,14.463 35.77,13.97C35.67,13.843 35.62,13.713 35.62,13.58C35.62,13.387 35.717,13.22 35.91,13.08C36.043,12.993 36.173,12.95 36.3,12.95C36.533,12.95 36.727,13.047 36.88,13.24C37.127,13.567 37.443,13.817 37.83,13.99C38.21,14.163 38.643,14.25 39.13,14.25C39.59,14.25 40.007,14.14 40.38,13.92C40.753,13.7 41.05,13.38 41.27,12.96C41.497,12.533 41.61,12.027 41.61,11.44L41.61,10.75C41.317,11.263 40.933,11.667 40.46,11.96C39.987,12.247 39.45,12.39 38.85,12.39C38.157,12.39 37.54,12.223 37,11.89C36.453,11.563 36.027,11.103 35.72,10.51C35.42,9.923 35.27,9.257 35.27,8.51C35.27,7.757 35.433,7.087 35.76,6.5C36.087,5.907 36.543,5.447 37.13,5.12C37.717,4.787 38.383,4.62 39.13,4.62ZM39.13,11.13C39.603,11.13 40.03,11.017 40.41,10.79C40.79,10.57 41.083,10.26 41.29,9.86C41.503,9.467 41.61,9.017 41.61,8.51C41.61,8.01 41.503,7.557 41.29,7.15C41.083,6.75 40.79,6.44 40.41,6.22C40.03,5.993 39.603,5.88 39.13,5.88C38.657,5.88 38.23,5.993 37.85,6.22C37.47,6.44 37.173,6.75 36.96,7.15C36.747,7.557 36.64,8.01 36.64,8.51C36.64,9.017 36.747,9.467 36.96,9.86C37.173,10.26 37.47,10.57 37.85,10.79C38.23,11.017 38.657,11.13 39.13,11.13ZM48.58,4.62C49.32,4.62 49.98,4.787 50.56,5.12C51.147,5.447 51.603,5.907 51.93,6.5C52.263,7.087 52.43,7.757 52.43,8.51L52.43,11.54C52.43,12.273 52.267,12.943 51.94,13.55C51.613,14.157 51.153,14.637 50.56,14.99C49.967,15.337 49.297,15.51 48.55,15.51C47.877,15.51 47.253,15.377 46.68,15.11C46.1,14.843 45.613,14.463 45.22,13.97C45.12,13.843 45.07,13.713 45.07,13.58C45.07,13.387 45.167,13.22 45.36,13.08C45.493,12.993 45.623,12.95 45.75,12.95C45.983,12.95 46.177,13.047 46.33,13.24C46.577,13.567 46.893,13.817 47.28,13.99C47.66,14.163 48.093,14.25 48.58,14.25C49.04,14.25 49.457,14.14 49.83,13.92C50.203,13.7 50.5,13.38 50.72,12.96C50.947,12.533 51.06,12.027 51.06,11.44L51.06,10.75C50.767,11.263 50.383,11.667 49.91,11.96C49.437,12.247 48.9,12.39 48.3,12.39C47.607,12.39 46.99,12.223 46.45,11.89C45.903,11.563 45.477,11.103 45.17,10.51C44.87,9.923 44.72,9.257 44.72,8.51C44.72,7.757 44.883,7.087 45.21,6.5C45.537,5.907 45.993,5.447 46.58,5.12C47.167,4.787 47.833,4.62 48.58,4.62ZM48.58,11.13C49.053,11.13 49.48,11.017 49.86,10.79C50.24,10.57 50.533,10.26 50.74,9.86C50.953,9.467 51.06,9.017 51.06,8.51C51.06,8.01 50.953,7.557 50.74,7.15C50.533,6.75 50.24,6.44 49.86,6.22C49.48,5.993 49.053,5.88 48.58,5.88C48.107,5.88 47.68,5.993 47.3,6.22C46.92,6.44 46.623,6.75 46.41,7.15C46.197,7.557 46.09,8.01 46.09,8.51C46.09,9.017 46.197,9.467 46.41,9.86C46.623,10.26 46.92,10.57 47.3,10.79C47.68,11.017 48.107,11.13 48.58,11.13ZM61.43,8.39C61.43,8.563 61.37,8.71 61.25,8.83C61.13,8.943 60.977,9 60.79,9L55.47,9C55.57,9.653 55.867,10.18 56.36,10.58C56.847,10.987 57.447,11.19 58.16,11.19C58.44,11.19 58.73,11.137 59.03,11.03C59.337,10.93 59.587,10.803 59.78,10.65C59.913,10.55 60.067,10.5 60.24,10.5C60.42,10.5 60.56,10.547 60.66,10.64C60.827,10.78 60.91,10.94 60.91,11.12C60.91,11.287 60.837,11.427 60.69,11.54C60.37,11.787 59.977,11.99 59.51,12.15C59.037,12.31 58.587,12.39 58.16,12.39C57.393,12.39 56.707,12.223 56.1,11.89C55.493,11.563 55.02,11.103 54.68,10.51C54.34,9.923 54.17,9.257 54.17,8.51C54.17,7.763 54.33,7.093 54.65,6.5C54.97,5.907 55.417,5.447 55.99,5.12C56.563,4.787 57.217,4.62 57.95,4.62C58.663,4.62 59.283,4.78 59.81,5.1C60.33,5.413 60.73,5.857 61.01,6.43C61.29,6.997 61.43,7.65 61.43,8.39ZM57.95,5.82C57.263,5.82 56.71,6.007 56.29,6.38C55.863,6.753 55.593,7.253 55.48,7.88L60.14,7.88C60.06,7.253 59.827,6.753 59.44,6.38C59.06,6.007 58.563,5.82 57.95,5.82ZM67,4.59C67.5,4.59 67.89,4.667 68.17,4.82C68.45,4.967 68.59,5.153 68.59,5.38C68.59,5.44 68.583,5.487 68.57,5.52C68.49,5.813 68.303,5.96 68.01,5.96C67.963,5.96 67.893,5.953 67.8,5.94C67.427,5.873 67.123,5.84 66.89,5.84C66.217,5.84 65.677,5.993 65.27,6.3C64.857,6.607 64.65,7.023 64.65,7.55L64.65,11.63C64.65,11.857 64.593,12.03 64.48,12.15C64.36,12.27 64.183,12.33 63.95,12.33C63.73,12.33 63.557,12.273 63.43,12.16C63.31,12.04 63.25,11.863 63.25,11.63L63.25,5.38C63.25,5.153 63.31,4.98 63.43,4.86C63.557,4.74 63.73,4.68 63.95,4.68C64.417,4.68 64.65,4.913 64.65,5.38L64.65,5.64C64.93,5.313 65.277,5.057 65.69,4.87C66.097,4.683 66.533,4.59 67,4.59ZM70.46,10.61C70.72,10.61 70.947,10.707 71.14,10.9C71.333,11.093 71.43,11.323 71.43,11.59C71.43,11.85 71.337,12.077 71.15,12.27C70.963,12.463 70.733,12.56 70.46,12.56C70.2,12.56 69.973,12.463 69.78,12.27C69.593,12.077 69.5,11.85 69.5,11.59C69.5,11.323 69.593,11.093 69.78,10.9C69.973,10.707 70.2,10.61 70.46,10.61Z" style="fill-rule:nonzero;"/>
    </g>
    <g id="_4b137d66-7faf-483f-beb1-9aaebdc81575" serif:id="4b137d66-7faf-483f-beb1-9aaebdc81575" transform="matrix(1.03738,0,0,1.03738,-4.97722,-6.24858)">
        <path d="M94.74,7.09C94.388,6.738 93.883,6.583 93.394,6.677L76.522,9.958C71.265,10.978 66.432,13.549 62.649,17.339L45.892,34.097L43.711,31.916C43.288,31.492 42.65,31.361 42.094,31.583L20.637,40.154C20.454,40.227 20.288,40.336 20.147,40.474L15.834,44.674C15.544,44.956 15.38,45.344 15.38,45.749C15.38,46.369 15.765,46.928 16.344,47.15L29.85,52.32L33.116,55.588L23.138,59.703C22.578,59.934 22.21,60.483 22.21,61.09C22.21,61.487 22.368,61.869 22.649,62.15L39.679,79.18C39.96,79.462 40.342,79.62 40.74,79.62C40.839,79.62 40.937,79.61 41.034,79.591C41.525,79.492 41.936,79.154 42.127,78.691L46.242,68.714L49.362,71.834L54.532,85.338C54.715,85.815 55.129,86.168 55.63,86.271C55.73,86.291 55.831,86.301 55.933,86.301C56.337,86.301 56.725,86.138 57.007,85.849L61.209,81.536C61.346,81.395 61.455,81.229 61.527,81.046L70.1,59.588C70.322,59.032 70.191,58.394 69.768,57.971L67.734,55.937L84.494,39.178C88.281,35.389 90.852,30.554 91.874,25.295L95.154,8.435C95.248,7.946 95.093,7.44 94.741,7.088L94.74,7.09ZM22.026,42.83L42.289,34.736L43.771,36.218L30.595,49.394L19.607,45.187L22.026,42.83ZM41.9,61.429C41.865,61.443 41.831,61.458 41.798,61.474L38.881,62.912L40.324,60.007C40.339,59.979 40.351,59.95 40.364,59.92L43.379,53.87L52.428,49.376L47.961,58.449L41.9,61.429ZM40.212,75.469L26.36,61.62L35.406,57.89L37.156,59.64L34.216,65.553C33.93,66.128 34.044,66.825 34.497,67.279C34.598,67.377 34.712,67.461 34.837,67.527C34.864,67.542 34.89,67.557 34.917,67.57C35.037,67.629 35.165,67.671 35.297,67.695C35.319,67.699 35.339,67.698 35.36,67.701C35.426,67.712 35.493,67.719 35.56,67.721C35.606,67.721 35.653,67.709 35.7,67.705C35.74,67.701 35.78,67.698 35.821,67.691C35.96,67.669 36.096,67.627 36.223,67.566L42.159,64.641L43.94,66.424L40.212,75.469ZM66.947,59.394L58.854,79.656L56.496,82.076L52.37,71.3L65.612,58.06L66.947,59.394ZM82.37,37.06L50.6,68.83L45.01,63.243L49.743,60.916C50.04,60.77 50.281,60.529 50.427,60.232L57.077,46.722C57.178,46.516 57.231,46.29 57.231,46.061C57.231,45.238 56.554,44.561 55.731,44.561C55.499,44.561 55.271,44.614 55.064,44.717L41.594,51.407C41.301,51.552 41.064,51.789 40.918,52.081L38.566,56.799L33,51.231L64.77,19.461C65.692,18.543 66.687,17.702 67.746,16.946L84.882,34.08C84.126,35.139 83.286,36.135 82.369,37.059L82.37,37.06ZM88.929,24.722C88.469,27.081 87.656,29.357 86.517,31.474L70.353,15.31C72.467,14.174 74.741,13.362 77.097,12.902L91.782,10.046L88.929,24.722Z" style="fill:url(#_Linear1);fill-rule:nonzero;"/>
        <path d="M68.917,24.996C68.917,24.996 68.917,24.996 68.917,24.996C64.574,24.996 61,28.57 61,32.913C61,37.256 64.574,40.83 68.917,40.83C73.26,40.83 76.834,37.256 76.834,32.913C76.834,30.814 75.999,28.799 74.515,27.315C73.034,25.826 71.017,24.99 68.917,24.995L68.917,24.996ZM72.394,36.39C71.472,37.312 70.221,37.83 68.917,37.83C66.22,37.83 64,35.61 64,32.913C64,30.216 66.22,27.996 68.917,27.996C70.221,27.996 71.472,28.514 72.394,29.436C73.324,30.354 73.847,31.607 73.847,32.913C73.847,34.219 73.324,35.472 72.394,36.39ZM22.983,81.338L28.093,76.228C28.397,75.944 28.57,75.547 28.57,75.131C28.57,74.308 27.893,73.631 27.07,73.631C26.654,73.631 26.257,73.804 25.973,74.108L20.863,79.218C20.559,79.502 20.386,79.899 20.386,80.315C20.386,81.138 21.063,81.815 21.886,81.815C22.302,81.815 22.699,81.642 22.983,81.338ZM17.06,83.02L15.6,84.478C15.319,84.759 15.162,85.141 15.162,85.538C15.162,86.361 15.839,87.038 16.662,87.038C17.06,87.038 17.443,86.88 17.724,86.598L19.181,85.142C19.462,84.861 19.621,84.479 19.621,84.081C19.621,83.258 18.943,82.581 18.121,82.581C17.723,82.581 17.341,82.739 17.06,83.02ZM12.702,87.377L10.404,89.675C10.111,89.958 9.946,90.347 9.946,90.754C9.946,91.577 10.623,92.254 11.446,92.254C11.853,92.254 12.242,92.089 12.525,91.796L14.823,89.5C15.105,89.219 15.263,88.837 15.263,88.438C15.263,87.616 14.586,86.938 13.763,86.938C13.366,86.938 12.984,87.096 12.703,87.377L12.702,87.377ZM11.553,81.36C12.135,81.941 13.091,81.941 13.673,81.36L23.654,71.38C23.954,71.097 24.124,70.702 24.124,70.29C24.124,69.467 23.446,68.79 22.624,68.79C22.212,68.79 21.817,68.96 21.534,69.259L11.553,79.239C10.971,79.821 10.971,80.778 11.553,81.36ZM11.741,72.79L18.76,65.77C19.059,65.487 19.229,65.092 19.229,64.68C19.229,63.858 18.552,63.18 17.729,63.18C17.317,63.18 16.922,63.35 16.639,63.65L9.62,70.667C9.339,70.948 9.18,71.33 9.18,71.728C9.18,72.551 9.858,73.228 10.68,73.228C11.078,73.228 11.46,73.07 11.741,72.789L11.741,72.79ZM6.64,73.649L5.44,74.849C5.14,75.132 4.97,75.527 4.97,75.939C4.97,76.762 5.648,77.439 6.47,77.439C6.882,77.439 7.277,77.269 7.56,76.97L8.76,75.77C9.06,75.487 9.23,75.092 9.23,74.68C9.23,73.857 8.552,73.18 7.73,73.18C7.318,73.18 6.923,73.35 6.64,73.649ZM32.773,78.536C32.191,77.955 31.235,77.955 30.653,78.536L21.496,87.692C21.203,87.975 21.038,88.364 21.038,88.771C21.038,89.594 21.715,90.271 22.538,90.271C22.945,90.271 23.334,90.106 23.617,89.813L32.773,80.657C33.355,80.075 33.355,79.118 32.773,78.536ZM36.143,83.14L33.79,85.49C33.497,85.773 33.332,86.162 33.332,86.569C33.332,87.392 34.009,88.069 34.832,88.069C35.239,88.069 35.628,87.904 35.911,87.611L38.263,85.259C38.562,84.976 38.732,84.581 38.732,84.169C38.732,83.347 38.055,82.669 37.232,82.669C36.82,82.669 36.425,82.839 36.142,83.139L36.143,83.14ZM30.938,88.343L28.465,90.817C28.165,91.1 27.995,91.495 27.995,91.907C27.995,92.73 28.673,93.407 29.495,93.407C29.907,93.407 30.302,93.237 30.585,92.938L33.06,90.464C33.352,90.181 33.517,89.792 33.517,89.386C33.517,88.563 32.84,87.886 32.017,87.886C31.61,87.886 31.221,88.051 30.938,88.344L30.938,88.343Z" style="fill:url(#_Linear2);fill-rule:nonzero;"/>
    </g>
    <defs>
        <linearGradient id="_Linear1" x1="0" y1="0" x2="1" y2="0" gradientUnits="userSpaceOnUse" gradientTransform="matrix(72.3244,33.7254,-33.7254,72.3244,11.1286,12.5269)"><stop offset="0" style="stop-color:rgb(40,139,88);stop-opacity:1"/><stop offset="1" style="stop-color:rgb(21,34,241);stop-opacity:1"/></linearGradient>
        <linearGradient id="_Linear2" x1="0" y1="0" x2="1" y2="0" gradientUnits="userSpaceOnUse" gradientTransform="matrix(65.1302,30.3707,-30.3707,65.1302,-6.05853,24.7538)"><stop offset="0" style="stop-color:rgb(40,139,88);stop-opacity:1"/><stop offset="1" style="stop-color:rgb(21,34,241);stop-opacity:1"/></linearGradient>
    </defs>
</svg>
