<?xml version="1.0" encoding="UTF-8" standalone="no"?>
<!DOCTYPE svg PUBLIC "-//W3C//DTD SVG 1.1//EN" "http://www.w3.org/Graphics/SVG/1.1/DTD/svg11.dtd">
<svg width="100%" height="100%" viewBox="0 0 450 450" version="1.1" xmlns="http://www.w3.org/2000/svg" xmlns:xlink="http://www.w3.org/1999/xlink" xml:space="preserve" xmlns:serif="http://www.serif.com/" style="fill-rule:evenodd;clip-rule:evenodd;stroke-linejoin:round;stroke-miterlimit:2;">
    <g transform="matrix(0.908052,0,0,0.908052,20.7775,-134.832)">
        <g transform="matrix(4.16667,0,0,4.16667,-1723.2,-162.352)">
            <path d="M526.033,116.151C522.495,88.05 494.436,72.333 468.17,75.285C454.083,76.869 441.567,85.133 435.495,98.321C431.603,106.776 430.841,116.782 433.342,125.782C424.853,128.114 417.11,133.378 412.602,141.135C406.347,151.896 407.145,170.829 417.06,178.345C445.084,199.588 474.239,196.039 496.512,181.724C517.617,168.159 529.126,140.706 526.033,116.151Z" style="fill:rgb(249,188,185);fill-rule:nonzero;"/>
        </g>
        <g transform="matrix(4.16667,0,0,4.16667,-1723.2,-162.352)">
            <path d="M434.847,88.116C434.847,88.116 436.771,89.101 437.774,90.425C438.777,91.749 439.442,93.958 438.998,95.299C440.199,98.712 440.729,99.546 440.579,101.834C442.704,100.375 446.551,101.138 446.551,101.138C446.551,101.138 446.311,102.097 446.551,102.883C446.914,104.071 447.544,104.461 447.544,104.461C446.892,105.073 445.522,106.626 443.143,106.873C440.729,107.123 438.795,107.447 438.25,106.909C437.079,105.754 431.311,90.425 431.311,90.425L434.847,88.116Z" style="fill:rgb(239,67,54);fill-rule:nonzero;"/>
        </g>
        <g transform="matrix(4.16667,0,0,4.16667,-1723.2,-162.352)">
            <path d="M446.197,101.58C446.197,101.58 448.669,98.367 449.814,96.738C450.598,95.624 451.311,95.651 451.311,96.195C451.311,96.462 451.128,96.667 450.763,97.251C450.397,97.835 449.814,98.711 449.814,98.711C449.814,98.711 450.544,100.389 451.055,101.265C451.565,102.141 450.471,102.579 449.96,103.017C449.449,103.455 448.153,104.23 447.123,104.463C446.092,104.695 445.324,103.259 446.197,101.58Z" style="fill:rgb(252,216,205);fill-rule:nonzero;"/>
        </g>
        <g transform="matrix(4.16667,0,0,4.16667,-1723.2,-162.352)">
            <path d="M437.988,150.44C437.988,150.44 437.874,151.399 437.574,152.402C437.273,153.405 437.643,154.804 437.643,154.804C437.643,154.804 437.859,155.42 438.789,155.603C439.654,155.773 440.354,155.565 440.354,155.565C440.354,155.565 441.205,156.594 442.317,157.381C443.43,158.168 445.884,158.779 446.552,158.678C447.629,158.514 448.206,157.674 448.123,157.132C448.04,156.591 446.771,155.091 445.73,154.442C445.054,154.02 443.517,152.593 443.056,152.097C442.292,151.275 441.729,150.368 441.729,150.368L437.988,150.44Z" style="fill:rgb(44,28,27);fill-rule:nonzero;"/>
        </g>
        <g transform="matrix(4.16667,0,0,4.16667,-1723.2,-162.352)">
            <path d="M436.516,107.671C436.516,107.671 439.635,115.627 440.118,118.848C440.602,122.068 441.571,126.942 442.153,130.999C442.735,135.056 442.728,139.008 442.457,142.97C442.349,144.542 441.774,148.652 442.077,150.884C441.736,152.336 438.334,152.518 437.931,150.831C437.68,149.784 435.068,140.518 434.804,137.603C434.54,134.688 435.229,132.599 435.229,132.599C435.229,132.599 430.98,123.503 429.49,119.925C428.001,116.346 429.015,111.911 429.015,111.911L436.516,107.671Z" style="fill:rgb(44,28,27);fill-rule:nonzero;"/>
        </g>
        <g transform="matrix(4.16667,0,0,4.16667,-1723.2,-162.352)">
            <path d="M421.978,158.604C421.978,158.604 421.402,160.741 421.475,161.978C421.546,163.214 421.841,163.509 422.215,163.926C422.589,164.343 423.027,164.163 423.027,164.163C423.027,164.163 423.2,166.713 424.408,167.744C425.617,168.774 427.81,168.872 428.816,168.498C429.822,168.124 429.161,166.298 428.176,164.508C427.19,162.718 425.934,160.792 425.62,159.173C423.209,158.842 421.978,158.604 421.978,158.604Z" style="fill:rgb(44,28,27);fill-rule:nonzero;"/>
        </g>
        <g transform="matrix(4.16667,0,0,4.16667,-1723.2,-162.352)">
            <path d="M425.341,110.968C425.341,110.968 423.813,113.127 422.597,116.927C421.741,119.599 421.88,126.005 421.88,126.005C421.88,126.005 421.66,132.313 422.067,134.495C422.474,136.676 422.439,137.119 422.439,137.119C422.439,137.119 420.688,142.348 420.959,148.533C421.229,154.717 421.733,159.153 421.733,159.153C421.733,159.153 422.078,160.323 423.666,160.484C425.112,160.631 426.169,159.628 426.169,159.628C426.169,159.628 428.822,146.534 429.805,143.55C430.787,140.565 431.149,137.125 431.149,137.125L433.157,122.423C433.157,122.423 437.132,119.829 435.095,113.287C433.819,109.189 425.341,110.968 425.341,110.968Z" style="fill:rgb(63,42,40);fill-rule:nonzero;"/>
        </g>
        <g transform="matrix(4.16667,0,0,4.16667,-1723.2,-162.352)">
            <path d="M428.482,90.65C429.307,90.391 432.536,89.346 432.858,89.505C435.171,90.653 437.786,95.144 438.124,98.186C438.265,99.444 438.022,105.169 437.272,107.182C438.364,107.671 438.179,108.667 437.712,109.278C438.156,109.885 438.464,109.997 438.7,110.584C439.154,111.714 438.548,112.25 437.76,113.101C436.608,114.342 434.604,115.347 431.311,115.803C427.5,116.331 424.575,114.745 423.392,113.167C423.112,112.795 423.162,111.819 423.996,111.288C423.36,109.357 422.889,105.676 422.267,103.359C421.332,99.874 420.411,95.727 422.43,93.095C423.314,91.941 426.686,91.241 428.482,90.65Z" style="fill:rgb(241,94,80);fill-rule:nonzero;"/>
        </g>
        <g transform="matrix(4.16667,0,0,4.16667,-1723.2,-162.352)">
            <path d="M433.305,91.079C433.305,91.079 434.124,92.201 434.129,93.822C434.135,95.443 433.717,97.659 433.717,97.659C433.717,97.659 429.931,96.538 428.045,95.107C425.393,93.095 424.941,91.722 424.941,91.722C424.941,91.722 427.262,90.827 428.482,90.65C429.703,90.475 433.305,91.079 433.305,91.079Z" style="fill:rgb(239,67,54);fill-rule:nonzero;"/>
        </g>
        <g transform="matrix(4.16667,0,0,4.16667,-1723.2,-162.352)">
            <path d="M428.091,86.481C428.091,86.481 431.186,88.809 432.186,90.388C433.186,91.967 433.602,92.61 433.075,96.255C430.244,95.267 426.425,93.417 425.752,91.458C426.732,90.918 428.091,86.481 428.091,86.481Z" style="fill:rgb(250,183,164);fill-rule:nonzero;"/>
        </g>
        <g transform="matrix(4.16667,0,0,4.16667,-1723.2,-162.352)">
            <path d="M435.648,85.038C435.593,83.693 435.302,82.004 434.268,81.044C433.245,80.095 431.49,80.002 430.163,80.095C428.105,80.238 426.658,82.514 427.021,85.144C427.358,87.575 428.981,91.32 431.69,91.827C433.07,92.085 434.14,91.051 434.771,89.725C435.52,88.153 435.695,86.147 435.648,85.038Z" style="fill:rgb(252,216,205);fill-rule:nonzero;"/>
        </g>
        <g transform="matrix(4.16667,0,0,4.16667,-1723.2,-162.352)">
            <path d="M435.078,82.904L435.085,82.892L435.078,82.904Z" style="fill:rgb(47,20,50);fill-rule:nonzero;"/>
        </g>
        <g transform="matrix(4.16667,0,0,4.16667,-1723.2,-162.352)">
            <path d="M425.393,83.707C425.35,81.846 426.174,79.49 428.141,78.742C429.216,78.333 431.69,77.979 432.811,78.859C432.894,78.745 432.998,78.64 433.127,78.555C433.76,78.135 434.594,78.374 435.096,78.883C435.448,79.241 435.664,79.726 435.792,80.241C436.868,79.632 438.247,81.086 437.768,82.445C437.058,84.457 434.266,84.68 432.61,83.836C432.369,85.485 430.734,86.878 429.048,86.916C428.683,87.792 428.017,88.908 426.966,89.102C426.682,87.445 425.388,85.554 425.393,83.707Z" style="fill:rgb(63,42,40);fill-rule:nonzero;"/>
        </g>
        <g transform="matrix(4.16667,0,0,4.16667,-1723.2,-162.352)">
            <path d="M429.096,86.964C429.096,86.964 428.599,85.894 427.752,86.481C426.905,87.069 428.424,88.852 428.424,88.852L429.096,86.964Z" style="fill:rgb(252,216,205);fill-rule:nonzero;"/>
        </g>
        <g transform="matrix(4.16667,0,0,4.16667,-1723.2,-162.352)">
            <path d="M422.43,93.095C422.43,93.095 418.667,94.139 418.436,98.569C418.389,99.474 418.286,101.654 418.853,102.943C418.673,105.808 418.128,108.338 418.271,109.923C418.544,112.954 418.682,113.807 419.591,114.051C420.949,114.417 423.057,115.078 424.904,115.587C427.965,116.429 430.74,116.907 430.74,116.907C430.74,116.907 430.323,115.38 431.885,113.854C431.311,113.571 429.337,112.459 427.825,111.425C425.837,110.066 424.002,109.531 424.002,109.531C424.002,109.531 424.699,107.296 425.604,103.649C426.191,96.774 422.43,93.095 422.43,93.095Z" style="fill:rgb(239,67,54);fill-rule:nonzero;"/>
        </g>
        <g transform="matrix(4.16667,0,0,4.16667,-1723.2,-162.352)">
            <path d="M436.786,109.744C436.786,109.744 435.679,111.254 433.664,111.858C431.65,112.463 430.039,112.228 430.039,112.228C430.039,112.228 431.348,111.791 432.389,111.456C433.43,111.12 435.947,109.777 436.786,109.744Z" style="fill:rgb(239,67,54);fill-rule:nonzero;"/>
        </g>
        <g transform="matrix(4.16667,0,0,4.16667,-1723.2,-162.352)">
            <path d="M434.771,108.233C434.771,108.233 433.865,109.854 432.019,110.448C430.173,111.043 428.998,110.765 428.998,110.765C428.998,110.765 431.046,110.113 431.852,109.744C432.657,109.374 434.771,108.233 434.771,108.233Z" style="fill:rgb(239,67,54);fill-rule:nonzero;"/>
        </g>
        <g transform="matrix(4.16667,0,0,4.16667,-1723.2,-162.352)">
            <path d="M431.885,113.854C431.885,113.854 433.532,114.256 435.085,114.853C436.638,115.45 436.954,117.077 438.757,117.67C439.971,118.07 442.327,118.364 441.217,119.613C440.106,120.862 437.101,121.157 435.676,119.904C433.793,118.247 431.642,117.739 430.74,116.907C429.838,116.074 431.014,113.62 431.885,113.854Z" style="fill:rgb(252,216,205);fill-rule:nonzero;"/>
        </g>
        <g transform="matrix(4.16667,0,0,4.16667,-1723.2,-162.352)">
            <path d="M499.846,135.005L466.229,154.377L432.649,134.989L466.247,115.618L499.846,135.005Z" style="fill:rgb(250,171,66);fill-rule:nonzero;"/>
        </g>
        <g transform="matrix(4.16667,0,0,4.16667,-1723.2,-162.352)">
            <path d="M466.229,190.065L466.229,154.377L432.649,134.989L432.649,170.678L466.229,190.065Z" style="fill:rgb(248,155,65);fill-rule:nonzero;"/>
        </g>
        <g transform="matrix(4.16667,0,0,4.16667,-1723.2,-162.352)">
            <path d="M499.846,170.694L499.846,135.005L466.229,154.361L466.229,190.049L499.846,170.694Z" style="fill:rgb(247,143,58);fill-rule:nonzero;"/>
        </g>
        <g transform="matrix(4.16667,0,0,4.16667,-1723.2,-162.352)">
            <path d="M474.725,123.76C467.904,121.786 460.211,122.208 455.278,124.835C450.524,127.368 448.571,131.851 452.068,135.758C455.39,139.469 462.884,140.82 468.78,139.676C474.279,138.609 478.637,134.918 475.548,131.252C474.067,129.495 470.864,127.96 467.54,128.053C464.851,128.127 462.434,129.31 462.202,130.879C461.983,132.364 464.145,134.281 467.038,134.266C469.271,134.255 470.534,132.943 469.45,131.737C469.265,131.53 468.678,131.644 468.842,131.858C470.145,133.566 466.57,134.187 464.595,132.989C463.336,132.225 463.036,131.163 463.681,130.329C464.854,128.811 468.089,128.298 470.903,129.213C477.755,131.44 475.604,136.442 470.973,138.248C466.888,139.842 460.388,139.891 455.958,137.63C451.219,135.211 450.566,131.188 452.575,128.378C457.142,121.992 473.285,121.401 481.396,127.92C485.126,130.919 485.783,134.297 484.232,137.415C482.597,140.706 479.42,144.081 474.11,145.656C468.769,147.239 461.945,146.445 456.475,144.265C450.249,141.783 444.832,138.214 443.151,134.226C443.076,134.046 442.633,134.103 442.696,134.277C444.361,138.858 450.189,143.002 457.756,145.521C464.139,147.646 471.498,147.835 476.796,145.604C482.565,143.175 486.706,138.272 486.36,133.825C486.048,129.795 481.323,125.671 474.725,123.76Z" style="fill:rgb(245,235,234);fill-rule:nonzero;"/>
        </g>
        <g transform="matrix(4.16667,0,0,4.16667,-1723.2,-162.352)">
            <path d="M487.856,162.042C488.217,164.517 488.949,171.377 488.974,173.085C487.208,172.767 483.142,172.588 482.233,172.274C481.534,173.05 477.673,177.355 476.907,178.224C476.465,178.725 474.755,180.896 474.305,181.042C474.2,180.185 476.55,170.78 476.75,169.697C475.003,168.761 472.562,167.45 470.777,166.594C473.125,164.591 475.946,162.026 478.496,159.996C479.648,155.791 481.534,150.325 482.321,148.365C483.178,150.099 485.442,154.805 485.9,156.047C487.398,155.538 492.907,152.902 494.675,152.332C493.234,154.653 489.679,159.826 487.856,162.042ZM496.14,151.035C494.675,151.027 489.672,153.031 486.39,154.554C485.202,151.328 482.233,146.941 482.233,146.941C482.233,146.941 479.3,154.921 478.097,159.108C475.239,161.56 471.406,164.788 469.381,166.888C471.092,168.322 473.674,169.656 475.702,170.55C474.76,173.743 473.102,181.658 473.013,183.465C476.575,180.57 481.068,174.918 482.094,173.798C483.043,174.063 488.851,174.675 490.057,174.323C490.177,171.488 489.223,163.969 488.933,162.362C489.825,161.213 494.675,154.147 496.14,151.035Z" style="fill:rgb(245,235,234);fill-rule:nonzero;"/>
        </g>
        <g transform="matrix(4.16667,0,0,4.16667,-1723.2,-162.352)">
            <path d="M453.438,165.819C452.514,167.149 452.033,168.733 451.822,170.542C450.99,169.961 450.15,169.489 449.316,168.986C448.946,168.763 448.57,168.492 448.202,168.281C447.833,168.066 447.457,167.903 447.087,167.699C446.253,167.24 445.413,166.741 444.581,166.361C444.37,164.309 443.89,162.17 442.966,159.773C441.803,156.753 441.037,153.961 441.211,151.174C441.335,149.179 442.063,147.968 442.881,147.049C444.293,145.464 447.51,146.912 448.202,147.312C448.894,147.71 452.111,149.979 453.522,153.193C454.341,155.057 455.068,157.108 455.193,159.247C455.366,162.234 454.602,164.143 453.438,165.819ZM448.202,176.064C447.962,175.919 445.652,174.541 444.513,173.756C444.676,171.873 444.782,169.22 444.667,167.369C445.472,167.903 446.282,168.339 447.087,168.806C447.456,169.02 447.833,169.282 448.202,169.485C448.57,169.708 448.947,169.881 449.316,170.093C450.121,170.556 450.933,171.056 451.736,171.45C451.621,173.168 451.728,175.943 451.891,178.016C450.752,177.485 448.441,176.196 448.202,176.064ZM451.451,148.771C450.612,147.863 449.099,146.848 448.202,146.316C447.305,145.812 445.791,145.08 444.952,145.019C440.416,144.69 440.383,150.702 440.487,152.708C440.639,155.649 441.688,158.105 442.744,161.096C444.24,165.335 443.635,170.472 443.635,174.245C444.046,174.912 446.688,176.415 447.643,176.934C447.825,177.033 448.014,177.151 448.202,177.26C448.39,177.368 448.578,177.468 448.761,177.579C449.715,178.162 452.357,179.71 452.77,179.519C452.77,175.746 452.163,169.91 453.659,167.398C454.715,165.626 455.765,164.382 455.917,161.616C456.021,159.73 455.987,153.68 451.451,148.771Z" style="fill:rgb(245,235,234);fill-rule:nonzero;"/>
        </g>
        <g transform="matrix(4.16667,0,0,4.16667,-1723.2,-162.352)">
            <path d="M445.309,157.409L445.41,157.229C445.537,156.839 445.427,156.254 445.227,155.745C444.858,154.802 444.059,154.047 443.731,154.813C443.504,155.346 443.701,156.396 444.681,157.332C444.774,157.421 444.862,157.471 444.946,157.5C445.348,158.931 445.79,160.355 446.089,161.791C446.534,163.922 446.699,165.922 446.836,167.954C446.863,168.371 447.309,168.644 447.313,168.229C447.346,165.097 446.711,160.925 445.309,157.409Z" style="fill:rgb(245,235,234);fill-rule:nonzero;"/>
        </g>
        <g transform="matrix(4.16667,0,0,4.16667,-1723.2,-162.352)">
            <path d="M450.979,160.682C450.938,160.587 450.901,160.489 450.877,160.385C450.75,159.85 450.86,159.392 451.061,159.112C451.429,158.596 452.229,158.764 452.556,159.908C452.783,160.704 452.586,161.525 451.606,161.33C451.513,161.312 451.425,161.26 451.341,161.192C450.938,162.158 450.497,163.073 450.197,164.163C449.753,165.781 449.588,167.589 449.451,169.464C449.424,169.849 448.979,169.607 448.974,169.188C448.941,166.019 449.576,162.579 450.979,160.682Z" style="fill:rgb(245,235,234);fill-rule:nonzero;"/>
        </g>
        <g transform="matrix(4.16667,0,0,4.16667,-1723.2,-162.352)">
            <path d="M449.795,172.197C449.052,171.734 448.308,171.292 447.564,170.863C447.163,170.631 446.728,170.292 446.331,170.16C446.184,170.111 446.156,170.52 446.291,170.642C446.694,171.008 447.15,171.201 447.564,171.463C448.307,171.932 449.052,172.389 449.795,172.825C450.099,173.002 450.098,172.385 449.795,172.197Z" style="fill:rgb(245,235,234);fill-rule:nonzero;"/>
        </g>
        <g transform="matrix(4.16667,0,0,4.16667,-1723.2,-162.352)">
            <path d="M449.795,174.451C449.052,173.989 448.308,173.546 447.564,173.117C447.163,172.886 446.728,172.546 446.331,172.415C446.184,172.365 446.156,172.774 446.291,172.896C446.694,173.263 447.15,173.456 447.564,173.717C448.307,174.187 449.052,174.644 449.795,175.079C450.099,175.257 450.098,174.639 449.795,174.451Z" style="fill:rgb(245,235,234);fill-rule:nonzero;"/>
        </g>
        <g transform="matrix(4.16667,0,0,4.16667,-1723.2,-162.352)">
            <path d="M483.603,115.016L464.979,125.738L446.377,114.998L464.999,104.275L483.603,115.016Z" style="fill:rgb(241,94,80);fill-rule:nonzero;"/>
        </g>
        <g transform="matrix(4.16667,0,0,4.16667,-1723.2,-162.352)">
            <path d="M464.979,145.509L464.979,125.738L446.377,114.998L446.377,134.769L464.979,145.509Z" style="fill:rgb(240,81,69);fill-rule:nonzero;"/>
        </g>
        <g transform="matrix(4.16667,0,0,4.16667,-1723.2,-162.352)">
            <path d="M483.603,134.787L483.603,115.016L464.979,125.738L464.979,145.509L483.603,134.787Z" style="fill:rgb(239,67,54);fill-rule:nonzero;"/>
        </g>
        <g transform="matrix(4.16667,0,0,4.16667,-1723.2,-162.352)">
            <path d="M471.713,132.788C472.193,133.481 472.443,134.306 472.554,135.247C472.986,134.945 473.425,134.699 473.858,134.437C474.052,134.321 474.247,134.18 474.439,134.07C474.631,133.958 474.827,133.873 475.02,133.767C475.454,133.528 475.892,133.268 476.324,133.07C476.435,132.001 476.685,130.888 477.166,129.64C477.771,128.067 478.17,126.613 478.08,125.161C478.016,124.122 477.636,123.492 477.21,123.013C476.475,122.188 474.799,122.942 474.439,123.15C474.079,123.358 472.403,124.539 471.668,126.213C471.242,127.183 470.863,128.251 470.799,129.365C470.708,130.921 471.106,131.915 471.713,132.788ZM474.439,138.124C474.564,138.047 475.767,137.33 476.36,136.921C476.275,135.94 476.22,134.559 476.28,133.595C475.861,133.873 475.438,134.101 475.02,134.343C474.828,134.455 474.631,134.591 474.439,134.697C474.247,134.813 474.051,134.903 473.858,135.014C473.439,135.255 473.018,135.515 472.599,135.721C472.658,136.615 472.604,138.061 472.519,139.14C473.111,138.863 474.314,138.192 474.439,138.124ZM472.747,123.91C473.184,123.437 473.972,122.908 474.439,122.631C474.906,122.369 475.694,121.988 476.132,121.956C478.493,121.785 478.511,124.916 478.457,125.96C478.378,127.492 477.831,128.771 477.281,130.328C476.502,132.536 476.817,135.211 476.817,137.176C476.604,137.523 475.227,138.306 474.73,138.576C474.636,138.628 474.537,138.689 474.439,138.746C474.341,138.802 474.243,138.854 474.148,138.912C473.651,139.215 472.275,140.022 472.061,139.922C472.061,137.958 472.376,134.918 471.597,133.61C471.047,132.687 470.501,132.04 470.422,130.599C470.367,129.617 470.385,126.466 472.747,123.91Z" style="fill:rgb(245,235,234);fill-rule:nonzero;"/>
        </g>
        <g transform="matrix(4.16667,0,0,4.16667,-1723.2,-162.352)">
            <path d="M475.945,128.408L475.893,128.314C475.827,128.112 475.885,127.807 475.988,127.542C476.181,127.051 476.597,126.658 476.768,127.056C476.886,127.333 476.783,127.88 476.272,128.368L476.135,128.456C475.925,129.201 475.695,129.943 475.539,130.69C475.308,131.8 475.222,132.841 475.15,133.899C475.136,134.117 474.904,134.259 474.902,134.043C474.885,132.412 475.216,130.239 475.945,128.408Z" style="fill:rgb(245,235,234);fill-rule:nonzero;"/>
        </g>
        <g transform="matrix(4.16667,0,0,4.16667,-1723.2,-162.352)">
            <path d="M472.993,130.113L473.046,129.958C473.112,129.679 473.055,129.441 472.95,129.295C472.759,129.026 472.343,129.114 472.172,129.709C472.053,130.124 472.156,130.552 472.666,130.45L472.805,130.378C473.014,130.881 473.244,131.358 473.399,131.925C473.631,132.768 473.718,133.71 473.788,134.686C473.803,134.887 474.035,134.761 474.037,134.542C474.054,132.892 473.724,131.101 472.993,130.113Z" style="fill:rgb(245,235,234);fill-rule:nonzero;"/>
        </g>
        <g transform="matrix(4.16667,0,0,4.16667,-1723.2,-162.352)">
            <path d="M473.609,136.109C473.996,135.868 474.384,135.638 474.771,135.415C474.98,135.294 475.207,135.117 475.413,135.049L475.435,135.299C475.224,135.49 474.986,135.591 474.771,135.727C474.385,135.971 473.997,136.209 473.609,136.436C473.451,136.529 473.452,136.207 473.609,136.109Z" style="fill:rgb(245,235,234);fill-rule:nonzero;"/>
        </g>
        <g transform="matrix(4.16667,0,0,4.16667,-1723.2,-162.352)">
            <path d="M473.609,137.283C473.996,137.042 474.384,136.812 474.771,136.588C474.98,136.468 475.207,136.291 475.413,136.223L475.435,136.474C475.224,136.665 474.986,136.765 474.771,136.901C474.385,137.146 473.997,137.383 473.609,137.61C473.451,137.703 473.452,137.381 473.609,137.283Z" style="fill:rgb(245,235,234);fill-rule:nonzero;"/>
        </g>
        <g transform="matrix(4.16667,0,0,4.16667,-1723.2,-162.352)">
            <path d="M455.756,122.102C454.316,120.9 452.271,120.364 451.673,122.027C451.271,123.144 451.745,124.861 452.738,125.769C453.066,126.069 453.18,125.578 452.891,125.173C452.712,124.923 452.513,124.705 452.421,124.507C451.68,122.915 452.478,121.628 453.72,121.961C454.165,122.081 454.607,122.226 455.062,122.486C456.321,123.247 457.47,125.013 457.504,126.859C457.55,129.333 455.699,128.88 454.599,129.589C453.539,130.272 453.083,132.367 454.623,134.266C455.028,134.765 455.352,134.215 454.978,133.662C453.313,131.198 455.546,130.343 456.138,130.134C456.531,129.996 456.957,129.909 457.291,129.63C457.754,129.245 458.062,128.648 458.144,127.792C458.332,125.847 457.269,123.364 455.756,122.102Z" style="fill:white;fill-rule:nonzero;"/>
        </g>
        <g transform="matrix(4.16667,0,0,4.16667,-1723.2,-162.352)">
            <path d="M455.046,137.589C454.826,137.705 454.41,137.336 454.31,136.916C454.253,136.681 454.286,136.435 454.384,136.331C454.509,136.197 454.833,136.263 455.022,136.549C455.262,136.911 455.271,137.472 455.046,137.589ZM455.663,136.562C455.443,136.005 455.051,135.542 454.67,135.366C454.322,135.205 453.821,135.279 453.704,136.133C453.564,137.151 454.242,138.284 455.008,138.527C455.789,138.776 456.093,137.651 455.663,136.562Z" style="fill:white;fill-rule:nonzero;"/>
        </g>
        <g transform="matrix(4.16667,0,0,4.16667,-1723.2,-162.352)">
            <path d="M493.099,96.467L474.476,107.189L455.872,96.449L474.495,85.727L493.099,96.467Z" style="fill:rgb(145,158,208);fill-rule:nonzero;"/>
        </g>
        <g transform="matrix(4.16667,0,0,4.16667,-1723.2,-162.352)">
            <path d="M474.476,126.96L474.476,107.189L455.872,96.449L455.872,116.22L474.476,126.96Z" style="fill:rgb(121,135,195);fill-rule:nonzero;"/>
        </g>
        <g transform="matrix(4.16667,0,0,4.16667,-1723.2,-162.352)">
            <path d="M493.099,116.238L493.099,96.467L474.476,107.189L474.476,126.96L493.099,116.238Z" style="fill:rgb(110,128,191);fill-rule:nonzero;"/>
        </g>
        <g transform="matrix(4.16667,0,0,4.16667,-1723.2,-162.352)">
            <path d="M471.229,113.038C470.48,110 468.624,107.157 466.534,105.854C464.521,104.597 462.379,104.839 461.658,107.035C460.974,109.12 462.109,112.278 463.846,114.277C465.465,116.141 467.833,116.99 468.552,115.003C468.896,114.051 468.776,112.491 468.009,111.242C467.388,110.232 466.403,109.57 465.754,109.828C465.139,110.071 464.883,111.319 465.526,112.42C466.022,113.269 466.802,113.462 467.023,112.783C467.062,112.667 466.889,112.468 466.843,112.578C466.479,113.451 465.454,112.224 465.476,111.206C465.489,110.557 465.829,110.208 466.29,110.271C467.127,110.384 468.036,111.506 468.307,112.781C468.967,115.887 466.583,116.168 464.874,114.799C463.365,113.591 461.914,111.121 461.801,108.932C461.68,106.59 463.072,105.455 464.587,105.603C468.03,105.938 471.813,111.969 471.112,116.501C470.789,118.586 469.646,119.581 468.113,119.676C466.497,119.777 464.509,119.309 462.737,117.628C460.956,115.939 459.756,113.16 459.383,110.591C458.958,107.668 459.126,104.814 460.278,103.294L460.158,103.132C458.776,104.776 458.479,107.914 459.186,111.357C459.78,114.262 461.33,117.112 463.35,118.642C465.548,120.309 468.331,120.809 469.953,119.697C471.422,118.69 471.955,115.978 471.229,113.038Z" style="fill:rgb(245,235,234);fill-rule:nonzero;"/>
        </g>
        <g transform="matrix(4.16667,0,0,4.16667,-1723.2,-162.352)">
            <path d="M478.558,94.721C480.129,95.385 484.253,97.27 485.141,97.766C483.427,97.971 479.765,98.606 478.808,98.668C478.587,99.013 477.378,100.926 477.146,101.31C477.013,101.532 476.61,102.456 476.29,102.575C475.763,102.342 473.057,99.191 472.684,98.84C470.675,98.861 467.864,98.891 465.863,98.941C466.91,97.958 468.088,96.73 469.298,95.705C468.178,94.278 467.062,92.359 466.759,91.652C468.391,92.015 472.767,93.01 473.799,93.296C474.856,92.894 478.359,91.191 479.622,90.725C479.535,91.648 479.034,93.764 478.558,94.721ZM480.252,90.098C478.961,90.344 475.583,91.776 473.471,92.777C470.792,92.033 465.959,91.25 465.959,91.25C465.959,91.25 467.43,94.083 468.497,95.512C467.23,96.713 465.5,98.306 464.786,99.264C467.016,99.394 469.961,99.348 472.195,99.267C472.988,100.361 475.546,102.959 476.384,103.503C478.045,102.053 479.125,99.639 479.458,99.138C480.426,99.055 485.838,98.252 486.719,97.945C485.387,97.095 480.734,95.055 479.666,94.633C479.866,94.146 480.543,91.257 480.252,90.098Z" style="fill:rgb(245,235,234);fill-rule:nonzero;"/>
        </g>
        <g transform="matrix(4.16667,0,0,4.16667,-1723.2,-162.352)">
            <path d="M484.976,102.694C483.535,103.155 481.49,104.981 480.892,107.333C480.49,108.915 480.964,110.084 481.957,109.846C482.285,109.767 482.399,109.145 482.109,109.074C481.931,109.03 481.731,109.042 481.64,108.95C480.899,108.213 481.696,106.006 482.938,104.904C483.385,104.509 483.826,104.144 484.28,103.88C485.541,103.186 486.688,103.626 486.724,105.433C486.77,107.853 484.918,109.538 483.818,111.517C482.758,113.425 482.302,116.045 483.843,116.166C484.247,116.197 484.571,115.274 484.197,115.152C482.532,114.612 484.766,111.177 485.356,110.286C485.751,109.692 486.177,109.113 486.51,108.45C486.973,107.53 487.28,106.578 487.363,105.626C487.551,103.465 486.487,102.209 484.976,102.694Z" style="fill:white;fill-rule:nonzero;"/>
        </g>
        <g transform="matrix(4.16667,0,0,4.16667,-1723.2,-162.352)">
            <path d="M484.265,119.001C484.045,119.37 483.63,119.482 483.528,119.178C483.472,119.009 483.506,118.724 483.603,118.508C483.728,118.229 484.053,117.921 484.241,117.988C484.48,118.073 484.489,118.625 484.265,119.001ZM484.882,117.261C484.662,116.958 484.27,116.949 483.89,117.212C483.541,117.453 483.04,118.105 482.923,119.094C482.784,120.273 483.462,120.623 484.227,119.983C485.009,119.329 485.312,117.854 484.882,117.261Z" style="fill:white;fill-rule:nonzero;"/>
        </g>
        <g transform="matrix(4.16667,0,0,4.16667,-1723.2,-162.352)">
            <path d="M493.099,104.275L493.086,108.083C493.086,108.083 491.822,107.621 491.188,107.829C490.556,108.037 491.332,108.592 491.881,109.078C492.429,109.563 493.794,109.635 493.909,110.049C494.025,110.462 495.727,112.542 496.333,113.342C496.939,114.143 497.847,115.016 497.847,115.016L500.581,113.795C500.581,113.795 495.515,108.701 495.187,107.189C494.857,105.678 493.895,104.275 493.099,104.275Z" style="fill:rgb(252,216,205);fill-rule:nonzero;"/>
        </g>
        <g transform="matrix(4.16667,0,0,4.16667,-1723.2,-162.352)">
            <path d="M506.035,148.156C510.058,143.891 506.227,139.385 504.288,138C503.266,139.265 497.171,141.764 497.135,141.918C496.398,145.052 497.071,148.332 497.999,151.366C498.577,153.257 499.077,156.45 500.421,161.629C499.795,164.205 500.505,168.106 500.766,171.021C500.947,173.054 501.753,178.386 501.88,178.841C501.514,178.729 500.902,178.185 500.074,177.899C499.301,177.633 498.313,177.613 497.866,177.79C496.487,178.337 496.094,178.833 496.465,179.717C497.011,181.019 498.743,181.435 499.973,181.69C501.828,182.076 502.873,185.027 504.854,182.986C505.362,182.463 504.915,181.085 504.74,180.362C504.775,179.858 504.624,175.383 505.193,171.971C505.88,167.864 506.237,163.257 503.833,160.85C506.533,153.981 506.437,150.259 506.035,148.156Z" style="fill:rgb(251,200,182);fill-rule:nonzero;"/>
        </g>
        <g transform="matrix(4.16667,0,0,4.16667,-1723.2,-162.352)">
            <path d="M504.758,180.118C504.758,180.118 503.599,180.535 502.853,180.772C502.106,181.009 500.317,181.106 498.946,179.778C498.413,179.262 498.031,178.612 498.219,178.244C498.571,177.552 500.074,177.899 500.074,177.899C500.074,177.899 497.491,176.107 496.044,177.291C495.371,177.841 495.209,178.938 496.333,180.105C497.003,180.801 498.974,182.042 500.672,182.952C501.781,183.546 503.579,184.723 504.81,183.536C506.04,182.349 504.758,180.118 504.758,180.118Z" style="fill:rgb(241,94,80);fill-rule:nonzero;"/>
        </g>
        <g transform="matrix(4.16667,0,0,4.16667,-1723.2,-162.352)">
            <path d="M501.813,151.192C505.837,146.926 502.005,142.421 500.067,141.037C499.044,142.301 492.949,144.8 492.913,144.955C492.177,148.088 492.851,151.368 493.778,154.402C494.355,156.292 494.855,159.486 496.2,164.665C495.574,167.241 496.283,171.142 496.544,174.058C496.726,176.09 497.531,181.421 497.658,181.877C497.293,181.765 496.682,181.221 495.853,180.936C495.08,180.669 494.091,180.649 493.646,180.826C492.266,181.373 491.872,181.869 492.243,182.753C492.79,184.055 494.522,184.471 495.752,184.727C497.606,185.112 498.652,188.063 500.633,186.022C501.141,185.499 500.693,184.121 500.519,183.398C500.555,182.894 500.402,178.418 500.973,175.007C501.658,170.899 502.016,166.293 499.611,163.886C502.312,157.017 502.215,153.294 501.813,151.192Z" style="fill:rgb(252,216,205);fill-rule:nonzero;"/>
        </g>
        <g transform="matrix(4.16667,0,0,4.16667,-1723.2,-162.352)">
            <path d="M500.536,183.154C500.536,183.154 499.377,183.571 498.631,183.808C497.886,184.045 496.096,184.142 494.725,182.814C494.192,182.298 493.811,181.647 493.997,181.28C494.35,180.588 495.853,180.936 495.853,180.936C495.853,180.936 493.271,179.143 491.822,180.327C491.15,180.876 490.987,181.974 492.111,183.141C492.782,183.837 494.753,185.078 496.451,185.988C497.561,186.582 499.357,187.759 500.588,186.572C501.818,185.385 500.536,183.154 500.536,183.154Z" style="fill:rgb(241,94,80);fill-rule:nonzero;"/>
        </g>
        <g transform="matrix(4.16667,0,0,4.16667,-1723.2,-162.352)">
            <path d="M506.391,119.604C504.597,118.961 502.414,119.983 502.324,121.825C501.337,123.5 502.306,125.957 503.849,127.078C505.644,128.382 508.416,127.063 509.014,125.046C509.631,122.96 508.485,120.354 506.391,119.604Z" style="fill:rgb(250,245,247);fill-rule:nonzero;"/>
        </g>
        <g transform="matrix(4.16667,0,0,4.16667,-1723.2,-162.352)">
            <path d="M506.002,121.86C505.971,121.712 505.836,121.591 505.695,121.553C503.578,120.97 503.087,119.826 502.719,117.91C502.666,117.637 502.308,117.514 502.084,117.652C500.964,118.343 499.808,118.848 498.54,119.194C499.727,122.737 497.577,123.493 496.645,124.9C496.408,125.256 498.858,127.038 500.169,126.854C501.301,126.694 502.422,126.335 503.392,125.719C504.462,125.038 506.313,123.315 506.002,121.86Z" style="fill:rgb(251,200,182);fill-rule:nonzero;"/>
        </g>
        <g transform="matrix(4.16667,0,0,4.16667,-1723.2,-162.352)">
            <path d="M503.196,114.517C502.999,112.694 501.505,110.265 499.459,110.419C497.376,110.577 495.959,113.67 495.796,115.11C495.52,117.557 495.736,122.172 499.599,120.69C502.608,119.536 503.491,117.237 503.196,114.517Z" style="fill:rgb(252,216,205);fill-rule:nonzero;"/>
        </g>
        <g transform="matrix(4.16667,0,0,4.16667,-1723.2,-162.352)">
            <path d="M498.543,115.848C498.543,115.848 500.09,114.788 500.334,116.294C500.579,117.801 499.109,118.32 499.109,118.32L498.543,115.848Z" style="fill:rgb(251,200,182);fill-rule:nonzero;"/>
        </g>
        <g transform="matrix(4.16667,0,0,4.16667,-1723.2,-162.352)">
            <path d="M507.386,129.905C508.725,125.764 507.907,123.012 506.724,121.658C506.237,121.101 505.082,119.953 503.82,121.089C504.23,122.975 500.207,123.505 497.847,123.505C496.061,124.838 495.227,125.844 494.206,127.648C493.125,129.558 492.219,131.136 494.524,132.528C493.817,134.623 495.319,137.155 494.704,142.509C496.856,144.219 501.002,144.2 503.293,142.811C505.082,141.727 506.034,140.516 505.944,139.208C505.351,137.935 504.483,137.637 504.549,136.054C504.631,134.055 506.772,131.802 507.386,129.905Z" style="fill:rgb(145,158,208);fill-rule:nonzero;"/>
        </g>
        <g transform="matrix(4.16667,0,0,4.16667,-1723.2,-162.352)">
            <path d="M494.783,125.721C493.758,125.521 492.438,125.347 491.4,125.51C490.211,125.698 488.286,125.771 487.262,125.917C486.411,125.353 485.136,124.256 483.141,123.164C481.093,122.042 480.2,121.666 479.654,120.817C479.093,119.945 478.562,119.456 478.089,118.906C477.141,117.804 477.307,119.11 477.479,119.5C477.676,119.948 477.947,120.715 477.947,120.715C477.947,120.715 475.192,120.431 473.533,120.555C471.828,120.683 471.542,123.408 473.46,123.822C475.394,124.24 477.806,124.022 478.532,124.025C479.259,124.029 482,126.613 482.78,127.443C483.024,127.703 484.212,128.952 484.458,129.229C484.848,129.667 485.215,129.651 486.02,129.854C486.939,130.086 487.034,130.196 489.486,130.5C491.587,130.76 492.661,131.106 494.767,130.452C497.078,129.733 495.947,125.948 494.783,125.721Z" style="fill:rgb(252,216,205);fill-rule:nonzero;"/>
        </g>
        <g transform="matrix(4.16667,0,0,4.16667,-1723.2,-162.352)">
            <path d="M498.572,125.373C496.892,123.505 493.922,124.084 491.881,125.373C490.803,125.246 490.026,129.844 490.904,130.673C491.883,133.113 494.924,134.398 497.513,133.458C500.581,132.344 500.287,127.279 498.572,125.373Z" style="fill:rgb(250,245,247);fill-rule:nonzero;"/>
        </g>
        <g transform="matrix(4.16667,0,0,4.16667,-1723.2,-162.352)">
            <path d="M491.881,125.373L490.687,125.5C490.687,125.5 489.826,125.796 489.529,127.499C489.231,129.202 490.007,130.557 490.007,130.557L490.904,130.673C490.904,130.673 490.434,129.065 490.653,127.708C490.872,126.349 491.881,125.373 491.881,125.373Z" style="fill:rgb(145,158,208);fill-rule:nonzero;"/>
        </g>
        <g transform="matrix(4.16667,0,0,4.16667,-1723.2,-162.352)">
            <path d="M507.911,118.994C507.77,118.917 507.625,118.847 507.481,118.776C507.873,118.351 508.199,117.806 507.842,117.336C507.605,117.025 507.131,116.856 506.789,116.679C506.62,116.591 506.449,116.503 506.275,116.423C506.791,116.241 507.176,115.915 507.004,115.325C506.911,115.005 506.548,114.863 506.355,114.621C506.049,114.237 505.906,113.807 505.791,113.334C505.607,112.575 505.574,111.788 505.302,111.049C504.839,109.795 503.547,109.306 502.246,109.014C500.727,108.674 498.896,108.541 497.878,108.541C496.357,108.541 496.08,107.728 495.235,108.268C494.682,108.622 494.813,109.282 495.135,109.957C494.808,109.981 493.909,109.979 493.909,110.99C493.909,111.754 494.585,112.291 495.235,112.645C494.236,113.405 494.329,114.361 495.024,115.282C495.668,116.133 497.623,116.917 498.89,116.367C498.89,118.441 498.255,119.795 497.589,120.485C497.104,120.988 495.931,121.635 496.45,122.508C496.929,123.312 498.284,123.029 498.993,122.784C499.161,122.726 499.327,122.653 499.491,122.573C499.318,122.875 499.124,123.171 498.861,123.451C498.663,123.661 498.755,123.988 499.025,124.075C500.241,124.468 501.521,123.999 502.546,123.12C502.417,123.553 502.295,123.988 502.252,124.422C502.151,125.443 502.805,126.004 503.786,125.581C505.275,124.94 505.907,123.02 505.81,121.213C505.954,121.21 506.099,121.2 506.238,121.179C506.873,121.083 507.984,120.799 508.332,120.177C508.607,119.685 508.362,119.24 507.911,118.994Z" style="fill:rgb(44,28,27);fill-rule:nonzero;"/>
        </g>
        <g transform="matrix(4.16667,0,0,4.16667,-1723.2,-162.352)">
            <path d="M494.35,140.517C493.322,141.85 492.263,143.678 490.295,146.815C488.826,149.155 485.895,156.052 485.895,156.052C485.895,156.052 485.163,158.606 487.334,159.85C489.504,161.094 489.639,161.405 490.459,163.496C491.188,165.357 493.926,165.999 495.77,164.254C498.157,161.996 501.061,166.227 504.229,165.272C506.036,164.727 507.319,161.554 508.098,161.137C510.291,159.962 511.123,161.983 513.328,160.162C515.534,158.339 516.89,156.052 516.89,156.052C516.89,156.052 510.662,142.998 508.098,140.749C505.532,138.5 504.229,137.12 504.229,137.12C504.229,137.12 496.26,138.041 494.35,140.517Z" style="fill:rgb(145,158,208);fill-rule:nonzero;"/>
        </g>
        <g transform="matrix(4.16667,0,0,4.16667,-1723.2,-162.352)">
            <path d="M495.955,145.371C492.962,149.211 491.976,155.063 491.194,159.743C491.134,160.103 491.614,160.24 491.742,159.894C493.465,155.219 494.766,150.257 496.106,145.458L495.955,145.371Z" style="fill:rgb(121,135,195);fill-rule:nonzero;"/>
        </g>
        <g transform="matrix(4.16667,0,0,4.16667,-1723.2,-162.352)">
            <path d="M497.273,148.834L497.139,148.816C496.25,152.777 495.434,157.047 495.384,161.116C495.38,161.42 495.823,161.474 495.908,161.187C497.053,157.294 497.337,152.871 497.273,148.834Z" style="fill:rgb(121,135,195);fill-rule:nonzero;"/>
        </g>
        <g transform="matrix(4.16667,0,0,4.16667,-1723.2,-162.352)">
            <path d="M502.834,146.852C502.798,146.763 502.657,146.794 502.685,146.894C503.869,151.171 503.977,155.593 504.994,159.864C505.084,160.24 505.582,160.113 505.62,159.78C506.11,155.505 504.425,150.737 502.834,146.852Z" style="fill:rgb(121,135,195);fill-rule:nonzero;"/>
        </g>
        <g transform="matrix(4.16667,0,0,4.16667,-1723.2,-162.352)">
            <path d="M507.621,146.488C507.493,146.379 507.257,146.526 507.37,146.682C508.376,148.058 509.317,149.446 509.955,151.038C510.538,152.493 510.723,154.003 511.144,155.496C511.266,155.931 511.891,155.828 511.913,155.392C512.078,152.162 510.004,148.543 507.621,146.488Z" style="fill:rgb(121,135,195);fill-rule:nonzero;"/>
        </g>
        <g transform="matrix(4.16667,0,0,4.16667,-1723.2,-162.352)">
            <path d="M494.886,138.454L494.35,140.517C494.35,140.517 497.843,143.003 501.658,141.888C505.553,140.75 506.241,139.076 506.241,139.076L504.744,137.277C504.744,137.277 500.683,141.037 494.886,138.454Z" style="fill:rgb(121,135,195);fill-rule:nonzero;"/>
        </g>
    </g>
</svg>
