<?xml version="1.0" encoding="UTF-8" standalone="no"?>
<!DOCTYPE svg PUBLIC "-//W3C//DTD SVG 1.1//EN" "http://www.w3.org/Graphics/SVG/1.1/DTD/svg11.dtd">
<svg width="100%" height="100%" viewBox="0 0 512 512" version="1.1" xmlns="http://www.w3.org/2000/svg" xmlns:xlink="http://www.w3.org/1999/xlink" xml:space="preserve" xmlns:serif="http://www.serif.com/" style="fill-rule:evenodd;clip-rule:evenodd;stroke-linejoin:round;stroke-miterlimit:2;">
    <g>
        <rect x="-6.573" y="-6.919" width="518.475" height="518.758" style="fill:white;"/>
        <g transform="matrix(0.74425,5.67213e-18,-4.48418e-18,0.817378,156.059,-0.273452)">
            <g>
                <g>
                    <path d="M471.1,392.8L471.1,388.4L475.5,388.4L475.5,392.8L471.1,392.8ZM453.4,392.8L453.4,388.4L457.8,388.4L457.8,392.8L453.4,392.8ZM435.6,392.8L435.6,388.4L440,388.4L440,392.8L435.6,392.8ZM417.9,392.8L417.9,388.4L422.3,388.4L422.3,392.8L417.9,392.8ZM400.1,392.8L400.1,388.4L404.5,388.4L404.5,392.8L400.1,392.8ZM382.4,392.8L382.4,388.4L386.8,388.4L386.8,392.8L382.4,392.8ZM364.7,392.8L364.7,388.4L369.1,388.4L369.1,392.8L364.7,392.8ZM346.9,392.8L346.9,388.4L351.3,388.4L351.3,392.8L346.9,392.8ZM329.2,392.8L329.2,388.4L333.6,388.4L333.6,392.8L329.2,392.8ZM311.4,392.8L311.4,388.4L315.8,388.4L315.8,392.8L311.4,392.8ZM293.7,392.8L293.7,388.4L298.1,388.4L298.1,392.8L293.7,392.8ZM275.9,392.8L275.9,388.4L280.3,388.4L280.3,392.8L275.9,392.8ZM258.2,392.8L258.2,388.4L262.6,388.4L262.6,392.8L258.2,392.8ZM240.5,392.8L240.5,388.4L244.9,388.4L244.9,392.8L240.5,392.8ZM222.7,392.8L222.7,388.4L227.1,388.4L227.1,392.8L222.7,392.8ZM205,392.8L205,388.4L209.4,388.4L209.4,392.8L205,392.8ZM187.2,392.8L187.2,388.4L191.6,388.4L191.6,392.8L187.2,392.8ZM169.5,392.8L169.5,388.4L173.9,388.4L173.9,392.8L169.5,392.8ZM151.7,392.8L151.7,388.4L156.1,388.4L156.1,392.8L151.7,392.8ZM134,392.8L134,388.4L138.4,388.4L138.4,392.8L134,392.8ZM116.3,392.8L116.3,388.4L120.7,388.4L120.7,392.8L116.3,392.8ZM98.5,392.8L98.5,388.4L103,388.4L103,392.8L98.5,392.8ZM80.8,392.8L80.8,388.4L85.2,388.4L85.2,392.8L80.8,392.8ZM63,392.8L63,388.4L67.4,388.4L67.4,392.8L63,392.8ZM45.3,392.8L45.3,388.4L49.7,388.4L49.7,392.8L45.3,392.8ZM27.5,392.8L27.5,388.4L32,388.4L32,392.8L27.5,392.8ZM471.1,375.2L471.1,370.8L475.5,370.8L475.5,375.2L471.1,375.2ZM453.4,375.2L453.4,370.8L457.8,370.8L457.8,375.2L453.4,375.2ZM435.6,375.2L435.6,370.8L440,370.8L440,375.2L435.6,375.2ZM417.9,375.2L417.9,370.8L422.3,370.8L422.3,375.2L417.9,375.2ZM400.1,375.2L400.1,370.8L404.5,370.8L404.5,375.2L400.1,375.2ZM382.4,375.2L382.4,370.8L386.8,370.8L386.8,375.2L382.4,375.2ZM364.7,375.2L364.7,370.8L369.1,370.8L369.1,375.2L364.7,375.2ZM346.9,375.2L346.9,370.8L351.3,370.8L351.3,375.2L346.9,375.2ZM329.2,375.2L329.2,370.8L333.6,370.8L333.6,375.2L329.2,375.2ZM311.4,375.2L311.4,370.8L315.8,370.8L315.8,375.2L311.4,375.2ZM293.7,375.2L293.7,370.8L298.1,370.8L298.1,375.2L293.7,375.2ZM275.9,375.2L275.9,370.8L280.3,370.8L280.3,375.2L275.9,375.2ZM258.2,375.2L258.2,370.8L262.6,370.8L262.6,375.2L258.2,375.2ZM240.5,375.2L240.5,370.8L244.9,370.8L244.9,375.2L240.5,375.2ZM222.7,375.2L222.7,370.8L227.1,370.8L227.1,375.2L222.7,375.2ZM205,375.2L205,370.8L209.4,370.8L209.4,375.2L205,375.2ZM187.2,375.2L187.2,370.8L191.6,370.8L191.6,375.2L187.2,375.2ZM169.5,375.2L169.5,370.8L173.9,370.8L173.9,375.2L169.5,375.2ZM151.7,375.2L151.7,370.8L156.1,370.8L156.1,375.2L151.7,375.2ZM134,375.2L134,370.8L138.4,370.8L138.4,375.2L134,375.2ZM116.3,375.2L116.3,370.8L120.7,370.8L120.7,375.2L116.3,375.2ZM98.5,375.2L98.5,370.8L102.9,370.8L102.9,375.2L98.5,375.2ZM80.8,375.2L80.8,370.8L85.2,370.8L85.2,375.2L80.8,375.2ZM63,375.2L63,370.8L67.4,370.8L67.4,375.2L63,375.2ZM45.3,375.2L45.3,370.8L49.7,370.8L49.7,375.2L45.3,375.2ZM27.5,375.2L27.5,370.8L32,370.8L32,375.2L27.5,375.2ZM471.1,357.5L471.1,353.1L475.5,353.1L475.5,357.5L471.1,357.5ZM453.4,357.5L453.4,353.1L457.8,353.1L457.8,357.5L453.4,357.5ZM435.6,357.5L435.6,353.1L440,353.1L440,357.5L435.6,357.5ZM417.9,357.5L417.9,353.1L422.3,353.1L422.3,357.5L417.9,357.5ZM400.1,357.5L400.1,353.1L404.5,353.1L404.5,357.5L400.1,357.5ZM382.4,357.5L382.4,353.1L386.8,353.1L386.8,357.5L382.4,357.5ZM364.7,357.5L364.7,353.1L369.1,353.1L369.1,357.5L364.7,357.5ZM346.9,357.5L346.9,353.1L351.3,353.1L351.3,357.5L346.9,357.5ZM329.2,357.5L329.2,353.1L333.6,353.1L333.6,357.5L329.2,357.5ZM311.4,357.5L311.4,353.1L315.8,353.1L315.8,357.5L311.4,357.5ZM293.7,357.5L293.7,353.1L298.1,353.1L298.1,357.5L293.7,357.5ZM275.9,357.5L275.9,353.1L280.3,353.1L280.3,357.5L275.9,357.5ZM258.2,357.5L258.2,353.1L262.6,353.1L262.6,357.5L258.2,357.5ZM240.5,357.5L240.5,353.1L244.9,353.1L244.9,357.5L240.5,357.5ZM222.7,357.5L222.7,353.1L227.1,353.1L227.1,357.5L222.7,357.5ZM205,357.5L205,353.1L209.4,353.1L209.4,357.5L205,357.5ZM187.2,357.5L187.2,353.1L191.6,353.1L191.6,357.5L187.2,357.5ZM169.5,357.5L169.5,353.1L173.9,353.1L173.9,357.5L169.5,357.5ZM151.7,357.5L151.7,353.1L156.1,353.1L156.1,357.5L151.7,357.5ZM134,357.5L134,353.1L138.4,353.1L138.4,357.5L134,357.5ZM116.3,357.5L116.3,353.1L120.7,353.1L120.7,357.5L116.3,357.5ZM98.5,357.5L98.5,353.1L102.9,353.1L102.9,357.5L98.5,357.5ZM80.8,357.5L80.8,353.1L85.2,353.1L85.2,357.5L80.8,357.5ZM63,357.5L63,353.1L67.4,353.1L67.4,357.5L63,357.5ZM45.3,357.5L45.3,353.1L49.7,353.1L49.7,357.5L45.3,357.5ZM27.5,357.5L27.5,353.1L32,353.1L32,357.5L27.5,357.5ZM471.1,339.9L471.1,335.5L475.5,335.5L475.5,339.9L471.1,339.9ZM453.4,339.9L453.4,335.5L457.8,335.5L457.8,339.9L453.4,339.9ZM435.6,339.9L435.6,335.5L440,335.5L440,339.9L435.6,339.9ZM417.9,339.9L417.9,335.5L422.3,335.5L422.3,339.9L417.9,339.9ZM400.1,339.9L400.1,335.5L404.5,335.5L404.5,339.9L400.1,339.9ZM382.4,339.9L382.4,335.5L386.8,335.5L386.8,339.9L382.4,339.9ZM364.7,339.9L364.7,335.5L369.1,335.5L369.1,339.9L364.7,339.9ZM346.9,339.9L346.9,335.5L351.3,335.5L351.3,339.9L346.9,339.9ZM329.2,339.9L329.2,335.5L333.6,335.5L333.6,339.9L329.2,339.9ZM311.4,339.9L311.4,335.5L315.8,335.5L315.8,339.9L311.4,339.9ZM293.7,339.9L293.7,335.5L298.1,335.5L298.1,339.9L293.7,339.9ZM275.9,339.9L275.9,335.5L280.3,335.5L280.3,339.9L275.9,339.9ZM258.2,339.9L258.2,335.5L262.6,335.5L262.6,339.9L258.2,339.9ZM240.5,339.9L240.5,335.5L244.9,335.5L244.9,339.9L240.5,339.9ZM222.7,339.9L222.7,335.5L227.1,335.5L227.1,339.9L222.7,339.9ZM205,339.9L205,335.5L209.4,335.5L209.4,339.9L205,339.9ZM187.2,339.9L187.2,335.5L191.6,335.5L191.6,339.9L187.2,339.9ZM169.5,339.9L169.5,335.5L173.9,335.5L173.9,339.9L169.5,339.9ZM151.7,339.9L151.7,335.5L156.1,335.5L156.1,339.9L151.7,339.9ZM134,339.9L134,335.5L138.4,335.5L138.4,339.9L134,339.9ZM116.3,339.9L116.3,335.5L120.7,335.5L120.7,339.9L116.3,339.9ZM98.5,339.9L98.5,335.5L102.9,335.5L102.9,339.9L98.5,339.9ZM80.8,339.9L80.8,335.5L85.2,335.5L85.2,339.9L80.8,339.9ZM63,339.9L63,335.5L67.4,335.5L67.4,339.9L63,339.9ZM45.3,339.9L45.3,335.5L49.7,335.5L49.7,339.9L45.3,339.9ZM27.5,339.9L27.5,335.5L32,335.5L32,339.9L27.5,339.9ZM471.1,322.2L471.1,317.8L475.5,317.8L475.5,322.2L471.1,322.2ZM453.4,322.2L453.4,317.8L457.8,317.8L457.8,322.2L453.4,322.2ZM435.6,322.2L435.6,317.8L440,317.8L440,322.2L435.6,322.2ZM417.9,322.2L417.9,317.8L422.3,317.8L422.3,322.2L417.9,322.2ZM400.1,322.2L400.1,317.8L404.5,317.8L404.5,322.2L400.1,322.2ZM382.4,322.2L382.4,317.8L386.8,317.8L386.8,322.2L382.4,322.2ZM364.7,322.2L364.7,317.8L369.1,317.8L369.1,322.2L364.7,322.2ZM346.9,322.2L346.9,317.8L351.3,317.8L351.3,322.2L346.9,322.2ZM329.2,322.2L329.2,317.8L333.6,317.8L333.6,322.2L329.2,322.2ZM311.4,322.2L311.4,317.8L315.8,317.8L315.8,322.2L311.4,322.2ZM293.7,322.2L293.7,317.8L298.1,317.8L298.1,322.2L293.7,322.2ZM275.9,322.2L275.9,317.8L280.3,317.8L280.3,322.2L275.9,322.2ZM258.2,322.2L258.2,317.8L262.6,317.8L262.6,322.2L258.2,322.2ZM240.5,322.2L240.5,317.8L244.9,317.8L244.9,322.2L240.5,322.2ZM222.7,322.2L222.7,317.8L227.1,317.8L227.1,322.2L222.7,322.2ZM205,322.2L205,317.8L209.4,317.8L209.4,322.2L205,322.2ZM187.2,322.2L187.2,317.8L191.6,317.8L191.6,322.2L187.2,322.2ZM169.5,322.2L169.5,317.8L173.9,317.8L173.9,322.2L169.5,322.2ZM151.7,322.2L151.7,317.8L156.1,317.8L156.1,322.2L151.7,322.2ZM134,322.2L134,317.8L138.4,317.8L138.4,322.2L134,322.2ZM116.3,322.2L116.3,317.8L120.7,317.8L120.7,322.2L116.3,322.2ZM98.5,322.2L98.5,317.8L102.9,317.8L102.9,322.2L98.5,322.2ZM80.8,322.2L80.8,317.8L85.2,317.8L85.2,322.2L80.8,322.2ZM63,322.2L63,317.8L67.4,317.8L67.4,322.2L63,322.2ZM45.3,322.2L45.3,317.8L49.7,317.8L49.7,322.2L45.3,322.2ZM27.5,322.2L27.5,317.8L32,317.8L32,322.2L27.5,322.2ZM471.1,304.6L471.1,300.2L475.5,300.2L475.5,304.6L471.1,304.6ZM453.4,304.6L453.4,300.2L457.8,300.2L457.8,304.6L453.4,304.6ZM435.6,304.6L435.6,300.2L440,300.2L440,304.6L435.6,304.6ZM417.9,304.6L417.9,300.2L422.3,300.2L422.3,304.6L417.9,304.6ZM400.1,304.6L400.1,300.2L404.5,300.2L404.5,304.6L400.1,304.6ZM382.4,304.6L382.4,300.2L386.8,300.2L386.8,304.6L382.4,304.6ZM364.7,304.6L364.7,300.2L369.1,300.2L369.1,304.6L364.7,304.6ZM346.9,304.6L346.9,300.2L351.3,300.2L351.3,304.6L346.9,304.6ZM329.2,304.6L329.2,300.2L333.6,300.2L333.6,304.6L329.2,304.6ZM311.4,304.6L311.4,300.2L315.8,300.2L315.8,304.6L311.4,304.6ZM293.7,304.6L293.7,300.2L298.1,300.2L298.1,304.6L293.7,304.6ZM275.9,304.6L275.9,300.2L280.3,300.2L280.3,304.6L275.9,304.6ZM258.2,304.6L258.2,300.2L262.6,300.2L262.6,304.6L258.2,304.6ZM240.5,304.6L240.5,300.2L244.9,300.2L244.9,304.6L240.5,304.6ZM222.7,304.6L222.7,300.2L227.1,300.2L227.1,304.6L222.7,304.6ZM205,304.6L205,300.2L209.4,300.2L209.4,304.6L205,304.6ZM187.2,304.6L187.2,300.2L191.6,300.2L191.6,304.6L187.2,304.6ZM169.5,304.6L169.5,300.2L173.9,300.2L173.9,304.6L169.5,304.6ZM151.7,304.6L151.7,300.2L156.1,300.2L156.1,304.6L151.7,304.6ZM134,304.6L134,300.2L138.4,300.2L138.4,304.6L134,304.6ZM116.3,304.6L116.3,300.2L120.7,300.2L120.7,304.6L116.3,304.6ZM98.5,304.6L98.5,300.2L102.9,300.2L102.9,304.6L98.5,304.6ZM80.8,304.6L80.8,300.2L85.2,300.2L85.2,304.6L80.8,304.6ZM63,304.6L63,300.2L67.4,300.2L67.4,304.6L63,304.6ZM45.3,304.6L45.3,300.2L49.7,300.2L49.7,304.6L45.3,304.6ZM27.5,304.6L27.5,300.2L32,300.2L32,304.6L27.5,304.6ZM471.1,286.9L471.1,282.5L475.5,282.5L475.5,286.9L471.1,286.9ZM453.4,286.9L453.4,282.5L457.8,282.5L457.8,286.9L453.4,286.9ZM435.6,286.9L435.6,282.5L440,282.5L440,286.9L435.6,286.9ZM417.9,286.9L417.9,282.5L422.3,282.5L422.3,286.9L417.9,286.9ZM400.1,286.9L400.1,282.5L404.5,282.5L404.5,286.9L400.1,286.9ZM382.4,286.9L382.4,282.5L386.8,282.5L386.8,286.9L382.4,286.9ZM364.7,286.9L364.7,282.5L369.1,282.5L369.1,286.9L364.7,286.9ZM346.9,286.9L346.9,282.5L351.3,282.5L351.3,286.9L346.9,286.9ZM329.2,286.9L329.2,282.5L333.6,282.5L333.6,286.9L329.2,286.9ZM311.4,286.9L311.4,282.5L315.8,282.5L315.8,286.9L311.4,286.9ZM293.7,286.9L293.7,282.5L298.1,282.5L298.1,286.9L293.7,286.9ZM275.9,286.9L275.9,282.5L280.3,282.5L280.3,286.9L275.9,286.9ZM258.2,286.9L258.2,282.5L262.6,282.5L262.6,286.9L258.2,286.9ZM240.5,286.9L240.5,282.5L244.9,282.5L244.9,286.9L240.5,286.9ZM222.7,286.9L222.7,282.5L227.1,282.5L227.1,286.9L222.7,286.9ZM205,286.9L205,282.5L209.4,282.5L209.4,286.9L205,286.9ZM187.2,286.9L187.2,282.5L191.6,282.5L191.6,286.9L187.2,286.9ZM169.5,286.9L169.5,282.5L173.9,282.5L173.9,286.9L169.5,286.9ZM151.7,286.9L151.7,282.5L156.1,282.5L156.1,286.9L151.7,286.9ZM134,286.9L134,282.5L138.4,282.5L138.4,286.9L134,286.9ZM116.3,286.9L116.3,282.5L120.7,282.5L120.7,286.9L116.3,286.9ZM98.5,286.9L98.5,282.5L102.9,282.5L102.9,286.9L98.5,286.9ZM80.8,286.9L80.8,282.5L85.2,282.5L85.2,286.9L80.8,286.9ZM63,286.9L63,282.5L67.4,282.5L67.4,286.9L63,286.9ZM45.3,286.9L45.3,282.5L49.7,282.5L49.7,286.9L45.3,286.9ZM27.5,286.9L27.5,282.5L32,282.5L32,286.9L27.5,286.9ZM471.1,269.3L471.1,264.9L475.5,264.9L475.5,269.3L471.1,269.3ZM453.4,269.3L453.4,264.9L457.8,264.9L457.8,269.3L453.4,269.3ZM435.6,269.3L435.6,264.9L440,264.9L440,269.3L435.6,269.3ZM417.9,269.3L417.9,264.9L422.3,264.9L422.3,269.3L417.9,269.3ZM400.1,269.3L400.1,264.9L404.5,264.9L404.5,269.3L400.1,269.3ZM382.4,269.3L382.4,264.9L386.8,264.9L386.8,269.3L382.4,269.3ZM364.7,269.3L364.7,264.9L369.1,264.9L369.1,269.3L364.7,269.3ZM346.9,269.3L346.9,264.9L351.3,264.9L351.3,269.3L346.9,269.3ZM329.2,269.3L329.2,264.9L333.6,264.9L333.6,269.3L329.2,269.3ZM311.4,269.3L311.4,264.9L315.8,264.9L315.8,269.3L311.4,269.3ZM293.7,269.3L293.7,264.9L298.1,264.9L298.1,269.3L293.7,269.3ZM275.9,269.3L275.9,264.9L280.3,264.9L280.3,269.3L275.9,269.3ZM258.2,269.3L258.2,264.9L262.6,264.9L262.6,269.3L258.2,269.3ZM240.5,269.3L240.5,264.9L244.9,264.9L244.9,269.3L240.5,269.3ZM222.7,269.3L222.7,264.9L227.1,264.9L227.1,269.3L222.7,269.3ZM205,269.3L205,264.9L209.4,264.9L209.4,269.3L205,269.3ZM187.2,269.3L187.2,264.9L191.6,264.9L191.6,269.3L187.2,269.3ZM169.5,269.3L169.5,264.9L173.9,264.9L173.9,269.3L169.5,269.3ZM151.7,269.3L151.7,264.9L156.1,264.9L156.1,269.3L151.7,269.3ZM134,269.3L134,264.9L138.4,264.9L138.4,269.3L134,269.3ZM116.3,269.3L116.3,264.9L120.7,264.9L120.7,269.3L116.3,269.3ZM98.5,269.3L98.5,264.9L102.9,264.9L102.9,269.3L98.5,269.3ZM80.8,269.3L80.8,264.9L85.2,264.9L85.2,269.3L80.8,269.3ZM63,269.3L63,264.9L67.4,264.9L67.4,269.3L63,269.3ZM45.3,269.3L45.3,264.9L49.7,264.9L49.7,269.3L45.3,269.3ZM27.5,269.3L27.5,264.9L32,264.9L32,269.3L27.5,269.3ZM471.1,251.6L471.1,247.2L475.5,247.2L475.5,251.6L471.1,251.6ZM453.4,251.6L453.4,247.2L457.8,247.2L457.8,251.6L453.4,251.6ZM435.6,251.6L435.6,247.2L440,247.2L440,251.6L435.6,251.6ZM417.9,251.6L417.9,247.2L422.3,247.2L422.3,251.6L417.9,251.6ZM400.1,251.6L400.1,247.2L404.5,247.2L404.5,251.6L400.1,251.6ZM382.4,251.6L382.4,247.2L386.8,247.2L386.8,251.6L382.4,251.6ZM364.7,251.6L364.7,247.2L369.1,247.2L369.1,251.6L364.7,251.6ZM346.9,251.6L346.9,247.2L351.3,247.2L351.3,251.6L346.9,251.6ZM329.2,251.6L329.2,247.2L333.6,247.2L333.6,251.6L329.2,251.6ZM311.4,251.6L311.4,247.2L315.8,247.2L315.8,251.6L311.4,251.6ZM293.7,251.6L293.7,247.2L298.1,247.2L298.1,251.6L293.7,251.6ZM275.9,251.6L275.9,247.2L280.3,247.2L280.3,251.6L275.9,251.6ZM258.2,251.6L258.2,247.2L262.6,247.2L262.6,251.6L258.2,251.6ZM240.5,251.6L240.5,247.2L244.9,247.2L244.9,251.6L240.5,251.6ZM222.7,251.6L222.7,247.2L227.1,247.2L227.1,251.6L222.7,251.6ZM205,251.6L205,247.2L209.4,247.2L209.4,251.6L205,251.6ZM187.2,251.6L187.2,247.2L191.6,247.2L191.6,251.6L187.2,251.6ZM169.5,251.6L169.5,247.2L173.9,247.2L173.9,251.6L169.5,251.6ZM151.7,251.6L151.7,247.2L156.1,247.2L156.1,251.6L151.7,251.6ZM134,251.6L134,247.2L138.4,247.2L138.4,251.6L134,251.6ZM116.3,251.6L116.3,247.2L120.7,247.2L120.7,251.6L116.3,251.6ZM98.5,251.6L98.5,247.2L102.9,247.2L102.9,251.6L98.5,251.6ZM80.8,251.6L80.8,247.2L85.2,247.2L85.2,251.6L80.8,251.6ZM63,251.6L63,247.2L67.4,247.2L67.4,251.6L63,251.6ZM45.3,251.6L45.3,247.2L49.7,247.2L49.7,251.6L45.3,251.6ZM27.5,251.6L27.5,247.2L32,247.2L32,251.6L27.5,251.6ZM471.1,233.9L471.1,229.5L475.5,229.5L475.5,233.9L471.1,233.9ZM453.4,233.9L453.4,229.5L457.8,229.5L457.8,233.9L453.4,233.9ZM435.6,233.9L435.6,229.5L440,229.5L440,233.9L435.6,233.9ZM417.9,233.9L417.9,229.5L422.3,229.5L422.3,233.9L417.9,233.9ZM400.1,233.9L400.1,229.5L404.5,229.5L404.5,233.9L400.1,233.9ZM382.4,233.9L382.4,229.5L386.8,229.5L386.8,233.9L382.4,233.9ZM364.7,233.9L364.7,229.5L369.1,229.5L369.1,233.9L364.7,233.9ZM346.9,233.9L346.9,229.5L351.3,229.5L351.3,233.9L346.9,233.9ZM329.2,233.9L329.2,229.5L333.6,229.5L333.6,233.9L329.2,233.9ZM311.4,233.9L311.4,229.5L315.8,229.5L315.8,233.9L311.4,233.9ZM293.7,233.9L293.7,229.5L298.1,229.5L298.1,233.9L293.7,233.9ZM275.9,233.9L275.9,229.5L280.3,229.5L280.3,233.9L275.9,233.9ZM258.2,233.9L258.2,229.5L262.6,229.5L262.6,233.9L258.2,233.9ZM240.5,233.9L240.5,229.5L244.9,229.5L244.9,233.9L240.5,233.9ZM222.7,233.9L222.7,229.5L227.1,229.5L227.1,233.9L222.7,233.9ZM205,233.9L205,229.5L209.4,229.5L209.4,233.9L205,233.9ZM187.2,233.9L187.2,229.5L191.6,229.5L191.6,233.9L187.2,233.9ZM169.5,233.9L169.5,229.5L173.9,229.5L173.9,233.9L169.5,233.9ZM151.7,233.9L151.7,229.5L156.1,229.5L156.1,233.9L151.7,233.9ZM134,233.9L134,229.5L138.4,229.5L138.4,233.9L134,233.9ZM116.3,233.9L116.3,229.5L120.7,229.5L120.7,233.9L116.3,233.9ZM98.5,233.9L98.5,229.5L102.9,229.5L102.9,233.9L98.5,233.9ZM80.8,233.9L80.8,229.5L85.2,229.5L85.2,233.9L80.8,233.9ZM63,233.9L63,229.5L67.4,229.5L67.4,233.9L63,233.9ZM45.3,233.9L45.3,229.5L49.7,229.5L49.7,233.9L45.3,233.9ZM27.5,233.9L27.5,229.5L32,229.5L32,233.9L27.5,233.9ZM471.1,216.3L471.1,211.9L475.5,211.9L475.5,216.3L471.1,216.3ZM453.4,216.3L453.4,211.9L457.8,211.9L457.8,216.3L453.4,216.3ZM435.6,216.3L435.6,211.9L440,211.9L440,216.3L435.6,216.3ZM417.9,216.3L417.9,211.9L422.3,211.9L422.3,216.3L417.9,216.3ZM400.1,216.3L400.1,211.9L404.5,211.9L404.5,216.3L400.1,216.3ZM382.4,216.3L382.4,211.9L386.8,211.9L386.8,216.3L382.4,216.3ZM364.7,216.3L364.7,211.9L369.1,211.9L369.1,216.3L364.7,216.3ZM346.9,216.3L346.9,211.9L351.3,211.9L351.3,216.3L346.9,216.3ZM329.2,216.3L329.2,211.9L333.6,211.9L333.6,216.3L329.2,216.3ZM311.4,216.3L311.4,211.9L315.8,211.9L315.8,216.3L311.4,216.3ZM293.7,216.3L293.7,211.9L298.1,211.9L298.1,216.3L293.7,216.3ZM275.9,216.3L275.9,211.9L280.3,211.9L280.3,216.3L275.9,216.3ZM258.2,216.3L258.2,211.9L262.6,211.9L262.6,216.3L258.2,216.3ZM240.5,216.3L240.5,211.9L244.9,211.9L244.9,216.3L240.5,216.3ZM222.7,216.3L222.7,211.9L227.1,211.9L227.1,216.3L222.7,216.3ZM205,216.3L205,211.9L209.4,211.9L209.4,216.3L205,216.3ZM187.2,216.3L187.2,211.9L191.6,211.9L191.6,216.3L187.2,216.3ZM169.5,216.3L169.5,211.9L173.9,211.9L173.9,216.3L169.5,216.3ZM151.7,216.3L151.7,211.9L156.1,211.9L156.1,216.3L151.7,216.3ZM134,216.3L134,211.9L138.4,211.9L138.4,216.3L134,216.3ZM116.3,216.3L116.3,211.9L120.7,211.9L120.7,216.3L116.3,216.3ZM98.5,216.3L98.5,211.9L102.9,211.9L102.9,216.3L98.5,216.3ZM80.8,216.3L80.8,211.9L85.2,211.9L85.2,216.3L80.8,216.3ZM63,216.3L63,211.9L67.4,211.9L67.4,216.3L63,216.3ZM45.3,216.3L45.3,211.9L49.7,211.9L49.7,216.3L45.3,216.3ZM27.5,216.3L27.5,211.9L32,211.9L32,216.3L27.5,216.3ZM471.1,198.6L471.1,194.2L475.5,194.2L475.5,198.6L471.1,198.6ZM453.4,198.6L453.4,194.2L457.8,194.2L457.8,198.6L453.4,198.6ZM435.6,198.6L435.6,194.2L440,194.2L440,198.6L435.6,198.6ZM417.9,198.6L417.9,194.2L422.3,194.2L422.3,198.6L417.9,198.6ZM400.1,198.6L400.1,194.2L404.5,194.2L404.5,198.6L400.1,198.6ZM382.4,198.6L382.4,194.2L386.8,194.2L386.8,198.6L382.4,198.6ZM364.7,198.6L364.7,194.2L369.1,194.2L369.1,198.6L364.7,198.6ZM346.9,198.6L346.9,194.2L351.3,194.2L351.3,198.6L346.9,198.6ZM329.2,198.6L329.2,194.2L333.6,194.2L333.6,198.6L329.2,198.6ZM311.4,198.6L311.4,194.2L315.8,194.2L315.8,198.6L311.4,198.6ZM293.7,198.6L293.7,194.2L298.1,194.2L298.1,198.6L293.7,198.6ZM275.9,198.6L275.9,194.2L280.3,194.2L280.3,198.6L275.9,198.6ZM258.2,198.6L258.2,194.2L262.6,194.2L262.6,198.6L258.2,198.6ZM240.5,198.6L240.5,194.2L244.9,194.2L244.9,198.6L240.5,198.6ZM222.7,198.6L222.7,194.2L227.1,194.2L227.1,198.6L222.7,198.6ZM205,198.6L205,194.2L209.4,194.2L209.4,198.6L205,198.6ZM187.2,198.6L187.2,194.2L191.6,194.2L191.6,198.6L187.2,198.6ZM169.5,198.6L169.5,194.2L173.9,194.2L173.9,198.6L169.5,198.6ZM151.7,198.6L151.7,194.2L156.1,194.2L156.1,198.6L151.7,198.6ZM134,198.6L134,194.2L138.4,194.2L138.4,198.6L134,198.6ZM116.3,198.6L116.3,194.2L120.7,194.2L120.7,198.6L116.3,198.6ZM98.5,198.6L98.5,194.2L102.9,194.2L102.9,198.6L98.5,198.6ZM80.8,198.6L80.8,194.2L85.2,194.2L85.2,198.6L80.8,198.6ZM63,198.6L63,194.2L67.4,194.2L67.4,198.6L63,198.6ZM45.3,198.6L45.3,194.2L49.7,194.2L49.7,198.6L45.3,198.6ZM27.5,198.6L27.5,194.2L32,194.2L32,198.6L27.5,198.6ZM471.1,181L471.1,176.6L475.5,176.6L475.5,181L471.1,181ZM453.4,181L453.4,176.6L457.8,176.6L457.8,181L453.4,181ZM435.6,181L435.6,176.6L440,176.6L440,181L435.6,181ZM417.9,181L417.9,176.6L422.3,176.6L422.3,181L417.9,181ZM400.1,181L400.1,176.6L404.5,176.6L404.5,181L400.1,181ZM382.4,181L382.4,176.6L386.8,176.6L386.8,181L382.4,181ZM364.7,181L364.7,176.6L369.1,176.6L369.1,181L364.7,181ZM346.9,181L346.9,176.6L351.3,176.6L351.3,181L346.9,181ZM329.2,181L329.2,176.6L333.6,176.6L333.6,181L329.2,181ZM311.4,181L311.4,176.6L315.8,176.6L315.8,181L311.4,181ZM293.7,181L293.7,176.6L298.1,176.6L298.1,181L293.7,181ZM275.9,181L275.9,176.6L280.3,176.6L280.3,181L275.9,181ZM258.2,181L258.2,176.6L262.6,176.6L262.6,181L258.2,181ZM240.5,181L240.5,176.6L244.9,176.6L244.9,181L240.5,181ZM222.7,181L222.7,176.6L227.1,176.6L227.1,181L222.7,181ZM205,181L205,176.6L209.4,176.6L209.4,181L205,181ZM187.3,181L187.3,176.6L191.7,176.6L191.7,181L187.3,181ZM169.5,181L169.5,176.6L173.9,176.6L173.9,181L169.5,181ZM151.8,181L151.8,176.6L156.2,176.6L156.2,181L151.8,181ZM134,181L134,176.6L138.4,176.6L138.4,181L134,181ZM116.3,181L116.3,176.6L120.7,176.6L120.7,181L116.3,181ZM98.5,181L98.5,176.6L102.9,176.6L102.9,181L98.5,181ZM80.8,181L80.8,176.6L85.2,176.6L85.2,181L80.8,181ZM63,181L63,176.6L67.4,176.6L67.4,181L63,181ZM45.3,181L45.3,176.6L49.7,176.6L49.7,181L45.3,181ZM27.5,181L27.5,176.6L32,176.6L32,181L27.5,181ZM471.1,163.3L471.1,158.9L475.5,158.9L475.5,163.3L471.1,163.3ZM453.4,163.3L453.4,158.9L457.8,158.9L457.8,163.3L453.4,163.3ZM435.6,163.3L435.6,158.9L440,158.9L440,163.3L435.6,163.3ZM417.9,163.3L417.9,158.9L422.3,158.9L422.3,163.3L417.9,163.3ZM400.1,163.3L400.1,158.9L404.5,158.9L404.5,163.3L400.1,163.3ZM382.4,163.3L382.4,158.9L386.8,158.9L386.8,163.3L382.4,163.3ZM364.6,163.3L364.6,158.9L369,158.9L369,163.3L364.6,163.3ZM346.9,163.3L346.9,158.9L351.3,158.9L351.3,163.3L346.9,163.3ZM329.2,163.3L329.2,158.9L333.6,158.9L333.6,163.3L329.2,163.3ZM311.4,163.3L311.4,158.9L315.8,158.9L315.8,163.3L311.4,163.3ZM293.7,163.3L293.7,158.9L298.1,158.9L298.1,163.3L293.7,163.3ZM275.9,163.3L275.9,158.9L280.3,158.9L280.3,163.3L275.9,163.3ZM258.2,163.3L258.2,158.9L262.6,158.9L262.6,163.3L258.2,163.3ZM240.4,163.3L240.4,158.9L244.8,158.9L244.8,163.3L240.4,163.3ZM222.7,163.3L222.7,158.9L227.1,158.9L227.1,163.3L222.7,163.3ZM205,163.3L205,158.9L209.4,158.9L209.4,163.3L205,163.3ZM187.2,163.3L187.2,158.9L191.6,158.9L191.6,163.3L187.2,163.3ZM169.5,163.3L169.5,158.9L173.9,158.9L173.9,163.3L169.5,163.3ZM151.7,163.3L151.7,158.9L156.1,158.9L156.1,163.3L151.7,163.3ZM134,163.3L134,158.9L138.4,158.9L138.4,163.3L134,163.3ZM116.3,163.3L116.3,158.9L120.7,158.9L120.7,163.3L116.3,163.3ZM98.5,163.3L98.5,158.9L102.9,158.9L102.9,163.3L98.5,163.3ZM80.8,163.3L80.8,158.9L85.2,158.9L85.2,163.3L80.8,163.3ZM63,163.3L63,158.9L67.4,158.9L67.4,163.3L63,163.3ZM45.3,163.3L45.3,158.9L49.7,158.9L49.7,163.3L45.3,163.3ZM27.5,163.3L27.5,158.9L32,158.9L32,163.3L27.5,163.3ZM471.1,145.7L471.1,141.3L475.5,141.3L475.5,145.7L471.1,145.7ZM453.4,145.7L453.4,141.3L457.8,141.3L457.8,145.7L453.4,145.7ZM435.6,145.7L435.6,141.3L440,141.3L440,145.7L435.6,145.7ZM417.9,145.7L417.9,141.3L422.3,141.3L422.3,145.7L417.9,145.7ZM400.1,145.7L400.1,141.3L404.5,141.3L404.5,145.7L400.1,145.7ZM382.4,145.7L382.4,141.3L386.8,141.3L386.8,145.7L382.4,145.7ZM364.6,145.7L364.6,141.3L369,141.3L369,145.7L364.6,145.7ZM346.9,145.7L346.9,141.3L351.3,141.3L351.3,145.7L346.9,145.7ZM329.2,145.7L329.2,141.3L333.6,141.3L333.6,145.7L329.2,145.7ZM311.4,145.7L311.4,141.3L315.8,141.3L315.8,145.7L311.4,145.7ZM293.7,145.7L293.7,141.3L298.1,141.3L298.1,145.7L293.7,145.7ZM275.9,145.7L275.9,141.3L280.3,141.3L280.3,145.7L275.9,145.7ZM258.2,145.7L258.2,141.3L262.6,141.3L262.6,145.7L258.2,145.7ZM240.4,145.7L240.4,141.3L244.8,141.3L244.8,145.7L240.4,145.7ZM222.7,145.7L222.7,141.3L227.1,141.3L227.1,145.7L222.7,145.7ZM205,145.7L205,141.3L209.4,141.3L209.4,145.7L205,145.7ZM187.2,145.7L187.2,141.3L191.6,141.3L191.6,145.7L187.2,145.7ZM169.5,145.7L169.5,141.3L173.9,141.3L173.9,145.7L169.5,145.7ZM151.7,145.7L151.7,141.3L156.1,141.3L156.1,145.7L151.7,145.7ZM134,145.7L134,141.3L138.4,141.3L138.4,145.7L134,145.7ZM116.3,145.7L116.3,141.3L120.7,141.3L120.7,145.7L116.3,145.7ZM98.5,145.7L98.5,141.3L102.9,141.3L102.9,145.7L98.5,145.7ZM80.8,145.7L80.8,141.3L85.2,141.3L85.2,145.7L80.8,145.7ZM63,145.7L63,141.3L67.4,141.3L67.4,145.7L63,145.7ZM45.3,145.7L45.3,141.3L49.7,141.3L49.7,145.7L45.3,145.7ZM27.5,145.7L27.5,141.3L32,141.3L32,145.7L27.5,145.7ZM471.1,128L471.1,123.6L475.5,123.6L475.5,128L471.1,128ZM453.4,128L453.4,123.6L457.8,123.6L457.8,128L453.4,128ZM435.6,128L435.6,123.6L440,123.6L440,128L435.6,128ZM417.9,128L417.9,123.6L422.3,123.6L422.3,128L417.9,128ZM400.1,128L400.1,123.6L404.5,123.6L404.5,128L400.1,128ZM382.4,128L382.4,123.6L386.8,123.6L386.8,128L382.4,128ZM364.6,128L364.6,123.6L369,123.6L369,128L364.6,128ZM346.9,128L346.9,123.6L351.3,123.6L351.3,128L346.9,128ZM329.2,128L329.2,123.6L333.6,123.6L333.6,128L329.2,128ZM311.4,128L311.4,123.6L315.8,123.6L315.8,128L311.4,128ZM293.7,128L293.7,123.6L298.1,123.6L298.1,128L293.7,128ZM275.9,128L275.9,123.6L280.3,123.6L280.3,128L275.9,128ZM258.2,128L258.2,123.6L262.6,123.6L262.6,128L258.2,128ZM240.4,128L240.4,123.6L244.8,123.6L244.8,128L240.4,128ZM222.7,128L222.7,123.6L227.1,123.6L227.1,128L222.7,128ZM205,128L205,123.6L209.4,123.6L209.4,128L205,128ZM187.3,128L187.3,123.6L191.7,123.6L191.7,128L187.3,128ZM169.5,128L169.5,123.6L173.9,123.6L173.9,128L169.5,128ZM151.8,128L151.8,123.6L156.2,123.6L156.2,128L151.8,128ZM134,128L134,123.6L138.4,123.6L138.4,128L134,128ZM116.3,128L116.3,123.6L120.7,123.6L120.7,128L116.3,128ZM98.5,128L98.5,123.6L102.9,123.6L102.9,128L98.5,128ZM80.8,128L80.8,123.6L85.2,123.6L85.2,128L80.8,128ZM63,128L63,123.6L67.4,123.6L67.4,128L63,128ZM45.3,128L45.3,123.6L49.7,123.6L49.7,128L45.3,128ZM27.5,128L27.5,123.6L32,123.6L32,128L27.5,128ZM471.1,110.3L471.1,105.9L475.5,105.9L475.5,110.3L471.1,110.3ZM453.4,110.3L453.4,105.9L457.8,105.9L457.8,110.3L453.4,110.3ZM435.6,110.3L435.6,105.9L440,105.9L440,110.3L435.6,110.3ZM417.9,110.3L417.9,105.9L422.3,105.9L422.3,110.3L417.9,110.3ZM400.1,110.3L400.1,105.9L404.5,105.9L404.5,110.3L400.1,110.3ZM382.4,110.3L382.4,105.9L386.8,105.9L386.8,110.3L382.4,110.3ZM364.6,110.3L364.6,105.9L369,105.9L369,110.3L364.6,110.3ZM346.9,110.3L346.9,105.9L351.3,105.9L351.3,110.3L346.9,110.3ZM329.2,110.3L329.2,105.9L333.6,105.9L333.6,110.3L329.2,110.3ZM311.4,110.3L311.4,105.9L315.8,105.9L315.8,110.3L311.4,110.3ZM293.7,110.3L293.7,105.9L298.1,105.9L298.1,110.3L293.7,110.3ZM275.9,110.3L275.9,105.9L280.3,105.9L280.3,110.3L275.9,110.3ZM258.2,110.3L258.2,105.9L262.6,105.9L262.6,110.3L258.2,110.3ZM240.4,110.3L240.4,105.9L244.8,105.9L244.8,110.3L240.4,110.3ZM222.7,110.3L222.7,105.9L227.1,105.9L227.1,110.3L222.7,110.3ZM205,110.3L205,105.9L209.4,105.9L209.4,110.3L205,110.3ZM187.2,110.3L187.2,105.9L191.6,105.9L191.6,110.3L187.2,110.3ZM169.5,110.3L169.5,105.9L173.9,105.9L173.9,110.3L169.5,110.3ZM151.7,110.3L151.7,105.9L156.1,105.9L156.1,110.3L151.7,110.3ZM134,110.3L134,105.9L138.4,105.9L138.4,110.3L134,110.3ZM116.2,110.3L116.2,105.9L120.6,105.9L120.6,110.3L116.2,110.3ZM98.5,110.3L98.5,105.9L102.9,105.9L102.9,110.3L98.5,110.3ZM80.8,110.3L80.8,105.9L85.2,105.9L85.2,110.3L80.8,110.3ZM63,110.3L63,105.9L67.4,105.9L67.4,110.3L63,110.3ZM45.3,110.3L45.3,105.9L49.7,105.9L49.7,110.3L45.3,110.3ZM27.5,110.3L27.5,105.9L32,105.9L32,110.3L27.5,110.3ZM471.1,92.7L471.1,88.3L475.5,88.3L475.5,92.7L471.1,92.7ZM453.4,92.7L453.4,88.3L457.8,88.3L457.8,92.7L453.4,92.7ZM435.6,92.7L435.6,88.3L440,88.3L440,92.7L435.6,92.7ZM417.9,92.7L417.9,88.3L422.3,88.3L422.3,92.7L417.9,92.7ZM400.1,92.7L400.1,88.3L404.5,88.3L404.5,92.7L400.1,92.7ZM382.4,92.7L382.4,88.3L386.8,88.3L386.8,92.7L382.4,92.7ZM364.6,92.7L364.6,88.3L369,88.3L369,92.7L364.6,92.7ZM346.9,92.7L346.9,88.3L351.3,88.3L351.3,92.7L346.9,92.7ZM329.2,92.7L329.2,88.3L333.6,88.3L333.6,92.7L329.2,92.7ZM311.4,92.7L311.4,88.3L315.8,88.3L315.8,92.7L311.4,92.7ZM293.7,92.7L293.7,88.3L298.1,88.3L298.1,92.7L293.7,92.7ZM275.9,92.7L275.9,88.3L280.3,88.3L280.3,92.7L275.9,92.7ZM258.2,92.7L258.2,88.3L262.6,88.3L262.6,92.7L258.2,92.7ZM240.4,92.7L240.4,88.3L244.8,88.3L244.8,92.7L240.4,92.7ZM222.7,92.7L222.7,88.3L227.1,88.3L227.1,92.7L222.7,92.7ZM205,92.7L205,88.3L209.4,88.3L209.4,92.7L205,92.7ZM187.2,92.7L187.2,88.3L191.6,88.3L191.6,92.7L187.2,92.7ZM169.5,92.7L169.5,88.3L173.9,88.3L173.9,92.7L169.5,92.7ZM151.7,92.7L151.7,88.3L156.1,88.3L156.1,92.7L151.7,92.7ZM134,92.7L134,88.3L138.4,88.3L138.4,92.7L134,92.7ZM116.2,92.7L116.2,88.3L120.6,88.3L120.6,92.7L116.2,92.7ZM98.5,92.7L98.5,88.3L102.9,88.3L102.9,92.7L98.5,92.7ZM80.8,92.7L80.8,88.3L85.2,88.3L85.2,92.7L80.8,92.7ZM63,92.7L63,88.3L67.4,88.3L67.4,92.7L63,92.7ZM45.3,92.7L45.3,88.3L49.7,88.3L49.7,92.7L45.3,92.7ZM27.5,92.7L27.5,88.3L32,88.3L32,92.7L27.5,92.7ZM471.1,75L471.1,70.6L475.5,70.6L475.5,75L471.1,75ZM453.4,75L453.4,70.6L457.8,70.6L457.8,75L453.4,75ZM435.6,75L435.6,70.6L440,70.6L440,75L435.6,75ZM417.9,75L417.9,70.6L422.3,70.6L422.3,75L417.9,75ZM400.1,75L400.1,70.6L404.5,70.6L404.5,75L400.1,75ZM382.4,75L382.4,70.6L386.8,70.6L386.8,75L382.4,75ZM364.6,75L364.6,70.6L369,70.6L369,75L364.6,75ZM346.9,75L346.9,70.6L351.3,70.6L351.3,75L346.9,75ZM329.2,75L329.2,70.6L333.6,70.6L333.6,75L329.2,75ZM311.4,75L311.4,70.6L315.8,70.6L315.8,75L311.4,75ZM293.7,75L293.7,70.6L298.1,70.6L298.1,75L293.7,75ZM275.9,75L275.9,70.6L280.3,70.6L280.3,75L275.9,75ZM258.2,75L258.2,70.6L262.6,70.6L262.6,75L258.2,75ZM240.4,75L240.4,70.6L244.8,70.6L244.8,75L240.4,75ZM222.7,75L222.7,70.6L227.1,70.6L227.1,75L222.7,75ZM205,75L205,70.6L209.4,70.6L209.4,75L205,75ZM187.3,75L187.3,70.6L191.7,70.6L191.7,75L187.3,75ZM169.5,75L169.5,70.6L173.9,70.6L173.9,75L169.5,75ZM151.8,75L151.8,70.6L156.2,70.6L156.2,75L151.8,75ZM134,75L134,70.6L138.4,70.6L138.4,75L134,75ZM116.3,75L116.3,70.6L120.7,70.6L120.7,75L116.3,75ZM98.5,75L98.5,70.6L102.9,70.6L102.9,75L98.5,75ZM80.8,75L80.8,70.6L85.2,70.6L85.2,75L80.8,75ZM63,75L63,70.6L67.4,70.6L67.4,75L63,75ZM45.3,75L45.3,70.6L49.7,70.6L49.7,75L45.3,75ZM27.5,75L27.5,70.6L32,70.6L32,75L27.5,75ZM471.1,57.4L471.1,53L475.5,53L475.5,57.4L471.1,57.4ZM453.4,57.4L453.4,53L457.8,53L457.8,57.4L453.4,57.4ZM435.6,57.4L435.6,53L440,53L440,57.4L435.6,57.4ZM417.9,57.4L417.9,53L422.3,53L422.3,57.4L417.9,57.4ZM400.1,57.4L400.1,53L404.5,53L404.5,57.4L400.1,57.4ZM382.4,57.4L382.4,53L386.8,53L386.8,57.4L382.4,57.4ZM364.6,57.4L364.6,53L369,53L369,57.4L364.6,57.4ZM346.9,57.4L346.9,53L351.3,53L351.3,57.4L346.9,57.4ZM329.2,57.4L329.2,53L333.6,53L333.6,57.4L329.2,57.4ZM311.4,57.4L311.4,53L315.8,53L315.8,57.4L311.4,57.4ZM293.7,57.4L293.7,53L298.1,53L298.1,57.4L293.7,57.4ZM275.9,57.4L275.9,53L280.3,53L280.3,57.4L275.9,57.4ZM258.2,57.4L258.2,53L262.6,53L262.6,57.4L258.2,57.4ZM240.4,57.4L240.4,53L244.8,53L244.8,57.4L240.4,57.4ZM222.7,57.4L222.7,53L227.1,53L227.1,57.4L222.7,57.4ZM205,57.4L205,53L209.4,53L209.4,57.4L205,57.4ZM187.2,57.4L187.2,53L191.6,53L191.6,57.4L187.2,57.4ZM169.5,57.4L169.5,53L173.9,53L173.9,57.4L169.5,57.4ZM151.7,57.4L151.7,53L156.1,53L156.1,57.4L151.7,57.4ZM134,57.4L134,53L138.4,53L138.4,57.4L134,57.4ZM116.2,57.4L116.2,53L120.6,53L120.6,57.4L116.2,57.4ZM98.5,57.4L98.5,53L102.9,53L102.9,57.4L98.5,57.4ZM80.8,57.4L80.8,53L85.2,53L85.2,57.4L80.8,57.4ZM63,57.4L63,53L67.4,53L67.4,57.4L63,57.4ZM45.3,57.4L45.3,53L49.7,53L49.7,57.4L45.3,57.4ZM27.5,57.4L27.5,53L32,53L32,57.4L27.5,57.4ZM471.1,39.7L471.1,35.3L475.5,35.3L475.5,39.7L471.1,39.7ZM453.4,39.7L453.4,35.3L457.8,35.3L457.8,39.7L453.4,39.7ZM435.6,39.7L435.6,35.3L440,35.3L440,39.7L435.6,39.7ZM417.9,39.7L417.9,35.3L422.3,35.3L422.3,39.7L417.9,39.7ZM400.1,39.7L400.1,35.3L404.5,35.3L404.5,39.7L400.1,39.7ZM382.4,39.7L382.4,35.3L386.8,35.3L386.8,39.7L382.4,39.7ZM364.6,39.7L364.6,35.3L369,35.3L369,39.7L364.6,39.7ZM346.9,39.7L346.9,35.3L351.3,35.3L351.3,39.7L346.9,39.7ZM329.2,39.7L329.2,35.3L333.6,35.3L333.6,39.7L329.2,39.7ZM311.4,39.7L311.4,35.3L315.8,35.3L315.8,39.7L311.4,39.7ZM293.7,39.7L293.7,35.3L298.1,35.3L298.1,39.7L293.7,39.7ZM275.9,39.7L275.9,35.3L280.3,35.3L280.3,39.7L275.9,39.7ZM258.2,39.7L258.2,35.3L262.6,35.3L262.6,39.7L258.2,39.7ZM240.4,39.7L240.4,35.3L244.8,35.3L244.8,39.7L240.4,39.7ZM222.7,39.7L222.7,35.3L227.1,35.3L227.1,39.7L222.7,39.7ZM205,39.7L205,35.3L209.4,35.3L209.4,39.7L205,39.7ZM187.2,39.7L187.2,35.3L191.6,35.3L191.6,39.7L187.2,39.7ZM169.5,39.7L169.5,35.3L173.9,35.3L173.9,39.7L169.5,39.7ZM151.7,39.7L151.7,35.3L156.1,35.3L156.1,39.7L151.7,39.7ZM134,39.7L134,35.3L138.4,35.3L138.4,39.7L134,39.7ZM116.2,39.7L116.2,35.3L120.6,35.3L120.6,39.7L116.2,39.7ZM98.5,39.7L98.5,35.3L102.9,35.3L102.9,39.7L98.5,39.7ZM80.8,39.7L80.8,35.3L85.2,35.3L85.2,39.7L80.8,39.7ZM63,39.7L63,35.3L67.4,35.3L67.4,39.7L63,39.7ZM45.3,39.7L45.3,35.3L49.7,35.3L49.7,39.7L45.3,39.7ZM27.5,39.7L27.5,35.3L32,35.3L32,39.7L27.5,39.7ZM471.1,22.1L471.1,17.7L475.5,17.7L475.5,22.1L471.1,22.1ZM453.4,22.1L453.4,17.7L457.8,17.7L457.8,22.1L453.4,22.1ZM435.6,22.1L435.6,17.7L440,17.7L440,22.1L435.6,22.1ZM417.9,22.1L417.9,17.7L422.3,17.7L422.3,22.1L417.9,22.1ZM400.1,22.1L400.1,17.7L404.5,17.7L404.5,22.1L400.1,22.1ZM382.4,22.1L382.4,17.7L386.8,17.7L386.8,22.1L382.4,22.1ZM364.6,22.1L364.6,17.7L369,17.7L369,22.1L364.6,22.1ZM346.9,22.1L346.9,17.7L351.3,17.7L351.3,22.1L346.9,22.1ZM329.2,22.1L329.2,17.7L333.6,17.7L333.6,22.1L329.2,22.1ZM311.4,22.1L311.4,17.7L315.8,17.7L315.8,22.1L311.4,22.1ZM293.7,22.1L293.7,17.7L298.1,17.7L298.1,22.1L293.7,22.1ZM275.9,22.1L275.9,17.7L280.3,17.7L280.3,22.1L275.9,22.1ZM258.2,22.1L258.2,17.7L262.6,17.7L262.6,22.1L258.2,22.1ZM240.4,22.1L240.4,17.7L244.8,17.7L244.8,22.1L240.4,22.1ZM222.7,22.1L222.7,17.7L227.1,17.7L227.1,22.1L222.7,22.1ZM205,22.1L205,17.7L209.4,17.7L209.4,22.1L205,22.1ZM187.2,22.1L187.2,17.7L191.6,17.7L191.6,22.1L187.2,22.1ZM169.5,22.1L169.5,17.7L173.9,17.7L173.9,22.1L169.5,22.1ZM151.7,22.1L151.7,17.7L156.1,17.7L156.1,22.1L151.7,22.1ZM134,22.1L134,17.7L138.4,17.7L138.4,22.1L134,22.1ZM116.2,22.1L116.2,17.7L120.6,17.7L120.6,22.1L116.2,22.1ZM98.5,22.1L98.5,17.7L102.9,17.7L102.9,22.1L98.5,22.1ZM80.8,22.1L80.8,17.7L85.2,17.7L85.2,22.1L80.8,22.1ZM63,22.1L63,17.7L67.4,17.7L67.4,22.1L63,22.1ZM45.3,22.1L45.3,17.7L49.7,17.7L49.7,22.1L45.3,22.1ZM27.5,22.1L27.5,17.7L32,17.7L32,22.1L27.5,22.1ZM471.1,4.4L471.1,0L475.5,0L475.5,4.4L471.1,4.4ZM453.4,4.4L453.4,0L457.8,0L457.8,4.4L453.4,4.4ZM435.6,4.4L435.6,0L440,0L440,4.4L435.6,4.4ZM417.9,4.4L417.9,0L422.3,0L422.3,4.4L417.9,4.4ZM400.1,4.4L400.1,0L404.5,0L404.5,4.4L400.1,4.4ZM382.4,4.4L382.4,0L386.8,0L386.8,4.4L382.4,4.4ZM364.6,4.4L364.6,0L369,0L369,4.4L364.6,4.4ZM346.9,4.4L346.9,0L351.3,0L351.3,4.4L346.9,4.4ZM329.2,4.4L329.2,0L333.6,0L333.6,4.4L329.2,4.4ZM311.4,4.4L311.4,0L315.8,0L315.8,4.4L311.4,4.4ZM293.7,4.4L293.7,0L298.1,0L298.1,4.4L293.7,4.4ZM275.9,4.4L275.9,0L280.3,0L280.3,4.4L275.9,4.4ZM258.2,4.4L258.2,0L262.6,0L262.6,4.4L258.2,4.4ZM240.4,4.4L240.4,0L244.8,0L244.8,4.4L240.4,4.4ZM222.7,4.4L222.7,0L227.1,0L227.1,4.4L222.7,4.4ZM205,4.4L205,0L209.4,0L209.4,4.4L205,4.4ZM187.3,4.4L187.3,0L191.7,0L191.7,4.4L187.3,4.4ZM169.5,4.4L169.5,0L173.9,0L173.9,4.4L169.5,4.4ZM151.8,4.4L151.8,0L156.2,0L156.2,4.4L151.8,4.4ZM134,4.4L134,0L138.4,0L138.4,4.4L134,4.4ZM116.3,4.4L116.3,0L120.7,0L120.7,4.4L116.3,4.4ZM98.5,4.4L98.5,0L102.9,0L102.9,4.4L98.5,4.4ZM80.8,4.4L80.8,0L85.2,0L85.2,4.4L80.8,4.4ZM63,4.4L63,0L67.4,0L67.4,4.4L63,4.4ZM45.3,4.4L45.3,0L49.7,0L49.7,4.4L45.3,4.4ZM27.5,4.4L27.5,0L32,0L32,4.4L27.5,4.4Z" style="fill:rgb(253,214,188);fill-opacity:0.63;fill-rule:nonzero;"/>
                </g>
            </g>
        </g>
        <g transform="matrix(0.685061,0.00187715,-0.00139047,0.507448,139.823,135.181)">
            <rect x="-6.573" y="-6.919" width="518.475" height="518.758" style="fill:white;fill-opacity:0.4;"/>
        </g>
        <g transform="matrix(0.766794,0,0,0.766794,0.354,119.401)">
            <g>
                <g>
                    <path d="M397.621,62.61C397.621,57.087 393.144,52.61 387.621,52.61L387.564,52.61C382.041,52.61 377.592,57.087 377.592,62.61C377.592,68.133 382.097,72.61 387.62,72.61C393.143,72.61 397.621,68.133 397.621,62.61Z" style="fill:rgb(253,214,188);fill-rule:nonzero;"/>
                    <path d="M451.562,62.61C451.562,57.087 447.085,52.61 441.562,52.61L441.505,52.61C435.982,52.61 431.533,57.087 431.533,62.61C431.533,68.133 436.038,72.61 441.561,72.61C447.084,72.61 451.562,68.133 451.562,62.61Z" style="fill:rgb(253,214,188);fill-rule:nonzero;"/>
                    <path d="M343.708,62.61C343.708,57.087 339.231,52.61 333.708,52.61L333.651,52.61C328.128,52.61 323.679,57.087 323.679,62.61C323.679,68.133 328.184,72.61 333.707,72.61C339.23,72.61 343.708,68.133 343.708,62.61Z" style="fill:rgb(253,214,188);fill-rule:nonzero;"/>
                    <path d="M60.438,62.61C60.438,68.133 64.915,72.61 70.438,72.61L220.554,72.61C226.077,72.61 230.554,68.133 230.554,62.61C230.554,57.087 226.077,52.61 220.554,52.61L70.438,52.61C64.916,52.61 60.438,57.087 60.438,62.61Z" style="fill:rgb(253,214,188);fill-rule:nonzero;"/>
                    <path d="M479.714,0L167.067,0C161.544,0 157.067,4.477 157.067,10C157.067,15.523 161.544,20 167.067,20L479.714,20C486.376,20 491.795,25.407 491.795,32.053L491.795,105.22L20.205,105.22L20.205,32.053C20.205,25.407 25.612,20 32.258,20L77.27,20C82.793,20 87.27,15.523 87.27,10C87.27,4.477 82.793,0 77.27,0L32.258,0C14.584,0 0.205,14.379 0.205,32.053L0.205,479.918C0.205,497.608 14.584,512 32.258,512L479.714,512C497.403,512 511.795,497.608 511.795,479.918L511.795,32.053C511.795,14.379 497.403,0 479.714,0ZM479.714,492L32.258,492C25.612,492 20.205,486.58 20.205,479.918L20.205,125.22L491.795,125.22L491.795,479.918C491.795,486.58 486.375,492 479.714,492Z" style="fill:rgb(253,214,188);fill-rule:nonzero;"/>
                    <path d="M93.653,382.613C70.681,382.613 51.991,401.302 51.991,424.275C51.991,447.232 70.68,465.909 93.653,465.909C116.61,465.909 135.286,447.232 135.286,424.275C135.286,401.303 116.61,382.613 93.653,382.613ZM93.653,445.91C81.709,445.91 71.991,436.205 71.991,424.276C71.991,412.332 81.708,402.614 93.653,402.614C105.581,402.614 115.286,412.332 115.286,424.276C115.286,436.205 105.582,445.91 93.653,445.91Z" style="fill:rgb(253,214,188);fill-rule:nonzero;"/>
                    <path d="M201.875,382.613C178.918,382.613 160.242,401.302 160.242,424.275C160.242,447.232 178.919,465.909 201.875,465.909C224.831,465.909 243.508,447.232 243.508,424.275C243.508,401.303 224.832,382.613 201.875,382.613ZM201.875,445.91C189.946,445.91 180.242,436.205 180.242,424.276C180.242,412.332 189.947,402.614 201.875,402.614C213.803,402.614 223.508,412.332 223.508,424.276C223.508,436.205 213.804,445.91 201.875,445.91Z" style="fill:rgb(253,214,188);fill-rule:nonzero;"/>
                    <path d="M310.097,382.613C287.14,382.613 268.464,401.302 268.464,424.275C268.464,447.232 287.141,465.909 310.097,465.909C333.069,465.909 351.759,447.232 351.759,424.275C351.758,401.303 333.069,382.613 310.097,382.613ZM310.097,445.91C298.168,445.91 288.464,436.205 288.464,424.276C288.464,412.332 298.169,402.614 310.097,402.614C322.041,402.614 331.759,412.332 331.759,424.276C331.758,436.205 322.041,445.91 310.097,445.91Z" style="fill:rgb(253,214,188);fill-rule:nonzero;"/>
                    <path d="M418.347,382.613C395.375,382.613 376.685,401.302 376.685,424.275C376.685,447.232 395.374,465.909 418.347,465.909C441.304,465.909 459.98,447.232 459.98,424.275C459.98,401.303 441.303,382.613 418.347,382.613ZM418.347,445.91C406.403,445.91 396.685,436.205 396.685,424.276C396.685,412.332 406.402,402.614 418.347,402.614C430.276,402.614 439.98,412.332 439.98,424.276C439.98,436.205 430.275,445.91 418.347,445.91Z" style="fill:rgb(253,214,188);fill-rule:nonzero;"/>
                    <path d="M52.027,333.874C52.387,339.044 56.805,343.172 62.006,343.172L285.819,343.172C291.276,343.172 295.833,338.619 295.833,333.172L295.833,163.918C295.833,158.395 291.356,153.918 285.833,153.918L61.992,153.918C56.469,153.918 51.992,158.395 51.992,163.918L51.992,333.171C52.004,333.406 52.015,333.64 52.027,333.874ZM217.804,323.172L199.173,293.808L224.096,254.549L267.644,323.172L217.804,323.172ZM194.118,323.172L80.183,323.172L137.161,233.405L194.118,323.172ZM275.833,173.918L275.833,298.751L232.541,230.531C230.707,227.64 227.521,225.889 224.099,225.889C220.676,225.889 217.491,227.64 215.656,230.53L187.332,275.146L145.607,209.386C143.773,206.495 140.587,204.744 137.164,204.743L137.163,204.743C133.74,204.743 130.555,206.494 128.72,209.384L71.991,298.757L71.991,173.918L275.833,173.918Z" style="fill:rgb(253,214,188);fill-rule:nonzero;"/>
                    <path d="M338.045,173.918L449.583,173.918C455.106,173.918 459.583,169.441 459.583,163.918C459.583,158.395 455.106,153.918 449.583,153.918L338.045,153.918C332.522,153.918 328.045,158.395 328.045,163.918C328.045,169.441 332.522,173.918 338.045,173.918Z" style="fill:rgb(253,214,188);fill-rule:nonzero;"/>
                    <path d="M338.045,229.334L449.583,229.334C455.106,229.334 459.583,224.857 459.583,219.334C459.583,213.811 455.106,209.334 449.583,209.334L338.045,209.334C332.522,209.334 328.045,213.811 328.045,219.334C328.045,224.857 332.522,229.334 338.045,229.334Z" style="fill:rgb(253,214,188);fill-rule:nonzero;"/>
                    <path d="M338.045,284.723L449.583,284.723C455.106,284.723 459.583,280.246 459.583,274.723C459.583,269.2 455.106,264.723 449.583,264.723L338.045,264.723C332.522,264.723 328.045,269.2 328.045,274.723C328.045,280.246 332.522,284.723 338.045,284.723Z" style="fill:rgb(253,214,188);fill-rule:nonzero;"/>
                    <path d="M338.045,340.11L449.583,340.11C455.106,340.11 459.583,335.633 459.583,330.11C459.583,324.587 455.106,320.11 449.583,320.11L338.045,320.11C332.522,320.11 328.045,324.587 328.045,330.11C328.045,335.633 332.522,340.11 338.045,340.11Z" style="fill:rgb(253,214,188);fill-rule:nonzero;"/>
                    <path d="M122.168,20L122.225,20C127.748,20 132.197,15.523 132.197,10C132.197,4.477 127.692,0 122.169,0C116.646,0 112.169,4.477 112.169,10C112.169,15.523 116.646,20 122.168,20Z" style="fill:rgb(253,214,188);fill-rule:nonzero;"/>
                </g>
            </g>
        </g>
    </g>
</svg>
