<?xml version="1.0" encoding="UTF-8" standalone="no"?>
<!DOCTYPE svg PUBLIC "-//W3C//DTD SVG 1.1//EN" "http://www.w3.org/Graphics/SVG/1.1/DTD/svg11.dtd">
<svg width="100%" height="100%" viewBox="0 0 4000 2500" version="1.1" xmlns="http://www.w3.org/2000/svg" xmlns:xlink="http://www.w3.org/1999/xlink" xml:space="preserve" xmlns:serif="http://www.serif.com/" style="fill-rule:evenodd;clip-rule:evenodd;stroke-linejoin:round;stroke-miterlimit:2;">
    <g>
        <rect x="0" y="0" width="4000" height="2500" style="fill:white;fill-rule:nonzero;"/>
        <path d="M674.233,345.98C1189.86,154.558 1713.93,323.793 2069.36,692.392C2247.12,876.748 2522.58,813.051 2803.03,749.353C3083.31,685.694 3368.58,622.036 3566.32,805.98C3836.3,1057.12 3712.63,1702.81 3342.45,1982.48C2839.27,2362.61 964.739,2374.02 653.716,2243.58C122.234,2020.68 650.324,1607.9 402.234,1212.21C109.546,745.393 446.368,430.573 674.233,345.98Z" style="fill:rgb(231,243,254);fill-rule:nonzero;"/>
        <path d="M3576.66,2133.69C3318.55,2121.07 2440.52,2142.44 2173.48,2150.78C1906.44,2159.11 1596.47,2139.78 1435.46,2111.36C1274.45,2082.93 343.734,2113.78 385.969,2190.2C428.205,2266.62 800.644,2224.39 1223,2255.1C1645.35,2285.82 2595.23,2251.26 2809.5,2255.1C3023.76,2258.94 3220.24,2247.42 3496.36,2232.06C3772.48,2216.71 3726.27,2141 3576.66,2133.69Z" style="fill:rgb(204,226,255);fill-rule:nonzero;"/>
        <path d="M2820.59,666.204L2794.34,625.634C2786.68,626.51 2778.9,626.975 2771,626.975C2759.42,626.975 2748.08,625.992 2737.03,624.131L2708.68,663.255C2694.81,659.656 2681.41,654.883 2668.6,649.049L2671.21,600.814C2654.43,591.339 2639.14,579.55 2625.76,565.878L2621.35,567.318L2621.35,269.448L2633.47,274.124C2647.53,261.191 2663.42,250.219 2680.7,241.633L2680.64,193.324C2693.73,188.188 2707.36,184.135 2721.42,181.274L2747.67,221.844C2755.33,220.969 2763.11,220.503 2771,220.503C2782.58,220.503 2793.93,221.485 2804.98,223.346L2833.33,184.224C2847.2,187.823 2860.6,192.595 2873.41,198.428L2870.8,246.665C2887.57,256.139 2902.86,267.928 2916.25,281.6L2962.16,266.619C2971.16,277.554 2979.23,289.28 2986.27,301.669L2955.83,339.125C2963.71,356.305 2969.26,374.773 2972.08,394.127L3017.99,408.98C3018.28,413.864 3018.44,418.782 3018.44,423.739C3018.44,433.132 3017.9,442.398 3016.88,451.52L2970.26,463.926C2966.42,483.055 2959.89,501.209 2951.1,517.987L2979.52,557.007C2971.84,568.997 2963.15,580.274 2953.58,590.733L2908.54,573.354C2894.48,586.286 2878.59,597.258 2861.3,605.846L2861.36,654.153C2848.28,659.289 2834.65,663.344 2820.59,666.204ZM2771,326.689C2717.4,326.689 2673.95,370.14 2673.95,423.739C2673.95,477.338 2717.4,520.789 2771,520.789C2824.6,520.789 2868.05,477.338 2868.05,423.739C2868.05,370.14 2824.6,326.689 2771,326.689Z" style="fill:rgb(206,227,255);fill-rule:nonzero;"/>
        <path d="M2903.37,535.797C2902.24,535.797 2901.11,535.418 2900.17,534.642C2898.05,532.876 2897.76,529.724 2899.53,527.6C2923.71,498.517 2937.03,461.631 2937.03,423.739C2937.03,405.592 2934.07,387.775 2928.21,370.782C2927.31,368.171 2928.7,365.326 2931.31,364.426C2933.92,363.527 2936.77,364.915 2937.67,367.525C2943.88,385.569 2947.03,404.481 2947.03,423.739C2947.03,463.962 2932.89,503.119 2907.22,533.995C2906.23,535.184 2904.8,535.797 2903.37,535.797Z" style="fill:white;fill-rule:nonzero;"/>
        <path d="M2889.32,306.736C2888.09,306.736 2886.86,306.285 2885.89,305.376C2869.64,290.073 2850.81,278.473 2829.94,270.898C2827.34,269.957 2826,267.089 2826.94,264.493C2827.88,261.896 2830.75,260.557 2833.35,261.498C2855.51,269.54 2875.5,281.853 2892.75,298.096C2894.76,299.988 2894.85,303.153 2892.96,305.164C2891.98,306.208 2890.65,306.736 2889.32,306.736Z" style="fill:white;fill-rule:nonzero;"/>
        <path d="M2733.36,266.287C2731.12,266.287 2729.09,264.777 2728.51,262.51C2727.84,259.833 2729.46,257.114 2732.14,256.438C2745.91,252.962 2760.16,251.199 2774.49,251.199C2777.26,251.199 2779.49,253.438 2779.49,256.199C2779.49,258.96 2777.26,261.199 2774.49,261.199C2760.98,261.199 2747.56,262.859 2734.58,266.134C2734.17,266.238 2733.76,266.287 2733.36,266.287Z" style="fill:white;fill-rule:nonzero;"/>
        <path d="M2605.15,791.441L2605.15,572.604L2621.35,567.318L2621.35,788.43C2615.95,789.454 2610.53,790.462 2605.15,791.441ZM2621.35,269.448L2605.15,263.198L2605.15,204.648L1150.23,204.648L1150.23,267.107C1137.04,266.678 1123.77,266.461 1110.52,266.461C1098.65,266.461 1086.8,266.633 1074.89,266.981L1074.89,181.98L2621.35,181.98L2621.35,269.448Z" style="fill:rgb(206,227,255);fill-rule:nonzero;"/>
        <path d="M2621.35,1110.86L1074.89,1110.86L1074.89,266.981C1086.8,266.633 1098.65,266.461 1110.52,266.461C1123.77,266.461 1137.04,266.678 1150.23,267.107L1150.23,1057.38L2605.15,1057.38L2605.15,791.441C2610.53,790.462 2615.95,789.454 2621.35,788.43L2621.35,1110.86Z" style="fill:rgb(194,221,255);fill-rule:nonzero;"/>
        <path d="M2605.15,572.604L2605.15,263.198L2621.35,269.448L2621.35,567.318L2605.15,572.604Z" style="fill:rgb(182,213,255);fill-rule:nonzero;"/>
        <rect x="1150.23" y="204.648" width="1454.92" height="852.732" style="fill:white;fill-rule:nonzero;"/>
        <path d="M2390.87,645.345C2460.21,579.345 2578.71,580.845 2576.21,681.345C2573.71,781.845 2582.01,791.29 2610.54,844.011C2709.54,1026.94 2492.54,1016.18 2402.04,1022.18C2311.54,1028.18 2319.04,857.678 2335.04,763.178C2351.04,668.678 2370.58,664.657 2390.87,645.345Z" style="fill:rgb(48,60,96);fill-rule:nonzero;"/>
        <path d="M2423.19,1221.58C2400.96,1408.25 2360.57,1546.24 2356.07,1634.74C2351.57,1723.23 2333.57,2071.68 2333.57,2071.68C2333.57,2071.68 2383.07,2068.22 2387.57,2060.72C2392.07,2053.22 2480.57,1856.73 2476.07,1735.23C2471.57,1613.74 2564.46,1429.01 2564.46,1429.01L2542.06,1247.76L2423.19,1221.58Z" style="fill:rgb(68,118,189);fill-rule:nonzero;"/>
        <path d="M2444.54,1302.84L2409.78,1317.39C2400.33,1376.58 2389.84,1429.8 2380.64,1477.01C2435.96,1512.77 2464.53,1631.93 2476.78,1704.78C2483.02,1623.26 2521.48,1524.76 2545.34,1470.29L2444.54,1302.84Z" style="fill:rgb(62,107,171);fill-rule:nonzero;"/>
        <path d="M2605.06,1202.76C2605.06,1202.76 2679.98,1298.33 2677.63,1406.75C2674.06,1571.8 2656.06,1618.92 2687.38,1791.98C2699.61,1859.57 2660.38,2080.68 2660.38,2080.68C2660.38,2080.68 2626.87,2083.3 2608.87,2074.34C2610.37,2058.1 2587.21,1793.82 2542.11,1672.34C2520.26,1613.51 2489.57,1448.75 2473.07,1354.25C2456.57,1259.76 2453.57,1240.26 2459.57,1240.26C2465.57,1240.26 2605.06,1202.76 2605.06,1202.76Z" style="fill:rgb(68,118,189);fill-rule:nonzero;"/>
        <path d="M2178.21,937.345C2178.21,937.345 2181.54,887.893 2176.21,872.619C2170.87,857.345 2124.87,844.011 2124.87,844.011C2124.87,844.011 2122.87,914.678 2127.54,923.345C2132.21,932.011 2159.54,956.678 2159.54,956.678L2178.21,937.345Z" style="fill:rgb(240,153,89);fill-rule:nonzero;"/>
        <path d="M2436.86,901.313C2331.54,1014.68 2297.16,1062.38 2289.16,1062.38C2264.16,1018.25 2181.13,924.917 2181.13,924.917L2145.72,947.678C2145.72,947.678 2227.54,1161.45 2279.54,1163.66C2331.54,1165.87 2437.23,1089.94 2438.57,1081.22C2439.91,1072.5 2436.86,901.313 2436.86,901.313Z" style="fill:rgb(162,223,242);fill-rule:nonzero;"/>
        <path d="M2327.01,1152.58C2378.54,1131.6 2437.57,1087.72 2438.57,1081.22C2439.91,1072.5 2436.86,901.313 2436.86,901.313C2413.9,926.028 2393.86,947.947 2376.46,967.117C2357.59,1037.38 2358.83,1113.89 2327.01,1152.58Z" style="fill:rgb(150,207,224);fill-rule:nonzero;"/>
        <path d="M2543.87,826.678C2543.87,826.678 2644.66,877.199 2666.66,966.626C2688.66,1056.05 2623.56,1166.54 2615.56,1225.5C2607.56,1284.46 2423.57,1294.83 2423.57,1231.72C2423.57,1171.21 2377.47,1042.78 2380.07,1010.06C2386.18,933.304 2498.38,839.272 2498.38,839.272L2543.87,826.678Z" style="fill:rgb(162,223,242);fill-rule:nonzero;"/>
        <path d="M2514.58,710.826L2557.85,844.255C2557.85,844.255 2511.65,879.909 2432.58,965.678C2435.65,908.604 2483.47,846.387 2483.47,846.387L2450.74,720.387L2514.58,710.826Z" style="fill:rgb(240,153,89);fill-rule:nonzero;"/>
        <path d="M2534.76,773.062L2514.58,710.826L2450.74,720.387L2483.47,846.387C2483.47,846.387 2480.27,851.48 2475.56,859.488C2506.39,836.601 2525.31,808.118 2534.76,773.062Z" style="fill:rgb(227,133,64);fill-rule:nonzero;"/>
        <path d="M2490.74,740.942C2479.07,783.403 2433.88,806.778 2401.76,797.952C2369.65,789.125 2362.78,751.44 2374.45,708.979C2386.12,666.518 2421.62,639.251 2453.73,648.078C2485.84,656.904 2502.41,698.48 2490.74,740.942Z" style="fill:rgb(240,153,89);fill-rule:nonzero;"/>
        <path d="M2415.53,1171.89C2429.54,1260.68 2377.51,1450.63 2377.51,1450.63C2377.51,1450.63 2408.54,1457.68 2501.54,1448.68C2594.54,1439.68 2635.54,1346.86 2649.54,1344.27C2663.54,1341.68 2670.73,1430.65 2677.63,1437.68C2684.54,1444.71 2685.59,1325.33 2667.54,1278.39C2635.54,1195.2 2641.8,1159.91 2653.76,1109.51C2675.03,1019.88 2415.53,1171.89 2415.53,1171.89Z" style="fill:rgb(162,223,242);fill-rule:nonzero;"/>
        <path d="M2335.83,2027.98C2344.21,2062.01 2327.67,2089 2305.54,2108.68C2287.54,2124.68 2232.21,2131.48 2234.87,2139.48C2237.54,2147.48 2302.87,2150.01 2324.87,2146.68C2346.87,2143.34 2352.87,2132.68 2380.25,2132.69C2398.21,2132.7 2401.54,2118.1 2393.54,2100.06C2385.54,2082.01 2382.74,2072.04 2389.97,2055.86C2397.2,2039.68 2335.83,2027.98 2335.83,2027.98Z" style="fill:rgb(68,118,189);fill-rule:nonzero;"/>
        <path d="M2662.31,2027.98C2660.97,2063.31 2656.87,2089.63 2665.54,2106.01C2699.01,2134.01 2726.83,2165.82 2716.21,2168.01C2665.54,2178.48 2646.21,2148.11 2617.54,2139.48C2582.36,2128.88 2620.87,2084.68 2607.09,2027.98C2599.42,1996.45 2660.21,2004.01 2660.21,2004.01L2662.31,2027.98Z" style="fill:rgb(68,118,189);fill-rule:nonzero;"/>
        <path d="M2675.1,1307.36C2673.08,1296.28 2670.58,1286.3 2667.54,1278.39C2635.54,1195.2 2641.8,1159.91 2653.76,1109.51C2654.71,1105.53 2655.09,1102.04 2654.97,1098.98C2657.67,1090 2660.19,1080.89 2662.4,1071.72L2651.54,973.678L2573.23,880.678C2514.54,966.678 2554.15,1073.68 2545.34,1132.68C2536.54,1191.68 2438.2,1266.91 2438.2,1266.91L2441.4,1287.84C2445.79,1316.55 2472.41,1336.5 2501.18,1332.51C2541.71,1326.88 2594.88,1315.58 2618.54,1293.63C2641.43,1272.38 2661.71,1288.82 2675.1,1307.36Z" style="fill:rgb(150,207,224);fill-rule:nonzero;"/>
        <path d="M2461.19,1263.53C2461.19,1263.53 2417.78,1275.68 2412.59,1278.39C2407.4,1281.11 2404.53,1295.46 2404.53,1295.46C2404.53,1295.46 2379.68,1317.04 2389.2,1324.68C2398.72,1332.32 2415.72,1351.66 2438.2,1342.66C2451.99,1337.14 2462.69,1286.45 2471.73,1286.04C2480.78,1285.64 2461.19,1263.53 2461.19,1263.53Z" style="fill:rgb(240,153,89);fill-rule:nonzero;"/>
        <path d="M2584.14,869.345C2630.6,870.661 2672.73,954.343 2687.41,1026.94C2702.09,1099.55 2717.54,1202.76 2717.54,1202.76C2717.54,1202.76 2640.54,1263.53 2564.46,1281.29C2498.08,1296.79 2464.2,1302.84 2464.2,1302.84L2450.74,1264.95L2609.54,1171.68C2609.54,1171.68 2551.15,1061.68 2545.34,978.678C2539.54,895.678 2548.83,868.345 2584.14,869.345Z" style="fill:rgb(162,223,242);fill-rule:nonzero;"/>
        <path d="M2151.94,900.921L2036.12,924.161L2021.37,850.605L2137.19,827.365L2151.94,900.921Z" style="fill:rgb(245,220,149);fill-rule:nonzero;"/>
        <path d="M2150.35,931.345C2151.94,900.921 2136.87,859.429 2128.21,859.488C2119.54,859.548 2130.87,886.678 2126.21,904.678C2123.68,914.432 2150.35,931.345 2150.35,931.345Z" style="fill:rgb(240,153,89);fill-rule:nonzero;"/>
        <path d="M2382.96,661.345C2385.54,744.678 2482.87,738.29 2509.54,733.15C2536.21,728.011 2477.07,908.959 2527.87,919.399C2565.17,927.066 2556.77,868.717 2598.21,872.619C2616.54,874.345 2634.96,902.683 2634.96,902.683C2634.96,902.683 2632.21,885.226 2618.21,872.619C2604.21,860.011 2567.5,782.678 2557.85,727.345C2548.21,672.011 2482.87,636.222 2463.54,635.117C2444.21,634.011 2396.87,656.011 2396.87,656.011L2382.96,661.345Z" style="fill:rgb(48,60,96);fill-rule:nonzero;"/>
        <path d="M2527.01,938.261C2525.69,938.261 2524.36,938.122 2523,937.832C2506.74,934.371 2498.86,917.285 2498.19,884.061C2497.61,855.582 2502.32,819.034 2507.3,780.339C2509.32,764.705 2511.4,748.538 2513.12,732.885C2513.26,731.547 2514.45,730.579 2515.8,730.729C2517.14,730.875 2518.11,732.078 2517.96,733.416C2516.24,749.115 2514.15,765.305 2512.14,780.962C2502.49,855.83 2493.38,926.545 2524.01,933.066C2524.96,933.269 2525.91,933.368 2526.86,933.368C2544.45,933.371 2560.29,899.086 2569.52,865.695C2569.88,864.398 2571.22,863.638 2572.52,863.997C2573.82,864.355 2574.58,865.697 2574.22,866.994C2568.12,889.032 2551.73,938.255 2527.01,938.261Z" style="fill:rgb(48,60,96);fill-rule:nonzero;"/>
        <path d="M2520.5,957.63C2514.96,957.631 2510.13,955.485 2506.1,951.228C2472.92,916.154 2505.73,740.172 2507.14,732.698C2507.39,731.375 2508.67,730.508 2509.99,730.756C2511.31,731.006 2512.18,732.281 2511.93,733.603C2511.59,735.409 2478.16,914.6 2509.64,947.879C2513.3,951.748 2517.64,953.292 2522.89,952.596C2540.12,950.32 2550.06,926.943 2558.84,906.317C2567.35,886.309 2575.36,867.412 2589.62,867.91C2590.97,867.957 2592.02,869.085 2591.97,870.43C2591.93,871.775 2590.8,872.856 2589.45,872.779C2589.33,872.775 2589.22,872.773 2589.1,872.773C2578.41,872.773 2571.08,889.999 2563.32,908.225C2554.04,930.05 2543.51,954.787 2523.52,957.427C2522.5,957.563 2521.49,957.63 2520.5,957.63Z" style="fill:rgb(48,60,96);fill-rule:nonzero;"/>
        <path d="M2513.15,749.157C2506.29,757.997 2495.54,761.138 2489.14,756.172C2482.74,751.207 2483.12,740.015 2489.98,731.175C2496.83,722.335 2507.58,719.194 2513.98,724.16C2520.38,729.125 2520.01,740.317 2513.15,749.157Z" style="fill:rgb(240,153,89);fill-rule:nonzero;"/>
        <path d="M1756.88,1057.74C1780.64,1105.26 1760.97,1159.98 1714.23,1179.31C1667.19,1198.77 1615.75,1187.72 1591.99,1140.2C1568.23,1092.69 1585.87,1035.71 1631.41,1012.94C1676.94,990.166 1733.11,1010.23 1756.88,1057.74Z" style="fill:rgb(48,60,96);fill-rule:nonzero;"/>
        <path d="M1628.78,1185.02C1623.54,1185.02 1613.2,1183.17 1600.06,1171.5C1589.27,1161.94 1581.53,1147.27 1578.26,1130.2C1574.12,1108.65 1576.82,1083.89 1586.26,1056.58C1586.7,1055.31 1588.08,1054.64 1589.36,1055.08C1590.63,1055.52 1591.3,1056.9 1590.86,1058.17C1581.7,1084.66 1579.07,1108.58 1583.04,1129.28C1586.12,1145.3 1593.31,1159 1603.29,1167.86C1619.96,1182.65 1631.13,1179.96 1631.25,1179.93C1632.54,1179.59 1633.88,1180.35 1634.23,1181.64C1634.58,1182.93 1633.84,1184.26 1632.55,1184.62C1632.39,1184.67 1631.07,1185.02 1628.78,1185.02Z" style="fill:rgb(48,60,96);fill-rule:nonzero;"/>
        <path d="M1701.45,1242.65C1728.5,1248.71 1762.64,1323.86 1779.36,1372.01C1796.22,1420.57 1824.81,1480.81 1843.53,1499.52C1862.24,1518.24 1985.24,1561.63 1985.24,1561.63C1985.24,1561.63 1681.35,1562.22 1687.57,1561.62C1693.8,1561.02 1701.45,1242.65 1701.45,1242.65Z" style="fill:rgb(168,206,255);fill-rule:nonzero;"/>
        <path d="M1862.78,1537.49C1846.15,1535.11 1786.13,1542.84 1811.68,1532.14C1837.23,1521.45 1833.67,1507.78 1833.67,1507.78C1833.67,1507.78 1797.42,1538.08 1790.89,1511.58C1785.25,1488.74 1783.09,1408.07 1761.7,1327.21C1744.03,1287.12 1720.9,1247.01 1701.45,1242.65C1701.45,1242.65 1700.77,1271.12 1699.64,1311.04C1707.1,1399.37 1719.77,1529.15 1722.98,1561.87C1763.26,1561.93 1830.67,1561.87 1887.07,1561.79L1924.58,1560C1924.58,1560 1879.42,1539.87 1862.78,1537.49Z" style="fill:rgb(147,187,240);fill-rule:nonzero;"/>
        <path d="M1602.02,1226C1602.02,1226 1515.99,1274.06 1495.94,1284.29C1475.89,1294.51 1552.12,1594.56 1569.08,1607.42C1586.03,1620.28 1735.3,1609.63 1752.29,1593.43C1769.29,1577.23 1739.25,1527.51 1753.96,1427.96C1768.66,1328.4 1709.1,1242.46 1701.45,1242.65C1693.8,1242.84 1643.86,1226 1643.86,1226L1602.02,1226Z" style="fill:rgb(168,206,255);fill-rule:nonzero;"/>
        <path d="M1569.08,1607.42C1586.03,1620.28 1692.84,1620.56 1738.31,1606.42C1743.44,1604.82 1766.74,1595.54 1767.28,1586.81C1761.8,1585.78 1740.01,1588.4 1731.17,1586.36C1700.42,1579.3 1683.48,1541.21 1683.48,1541.21C1683.48,1541.21 1666.55,1535.11 1628.67,1519.07C1590.79,1503.03 1606.39,1454.45 1605.5,1433.06C1604.6,1411.67 1568.06,1341.7 1499.43,1288.67L1493.14,1291.49C1488.24,1340.25 1553.39,1595.52 1569.08,1607.42Z" style="fill:rgb(147,187,240);fill-rule:nonzero;"/>
        <path d="M2160.11,1372.01L1952.97,1372.01L1858.62,1572.77L2086.8,1572.77L2172.2,1391.04C2176.36,1382.18 2169.9,1372.01 2160.11,1372.01Z" style="fill:rgb(117,161,222);fill-rule:nonzero;"/>
        <path d="M1870.97,1575.62L1746.32,1575.62C1738.59,1575.62 1732.32,1569.35 1732.32,1561.62C1732.32,1553.89 1738.59,1547.62 1746.32,1547.62L1862.04,1547.62L1940.27,1379.25C1943.53,1372.23 1951.86,1369.19 1958.87,1372.45C1965.88,1375.71 1968.92,1384.03 1965.66,1391.04L1883.66,1567.52C1881.37,1572.46 1876.42,1575.62 1870.97,1575.62Z" style="fill:rgb(62,107,171);fill-rule:nonzero;"/>
        <path d="M1654.81,1532.74C1708.89,1542.84 1722.18,1555.25 1751.66,1560C1785.07,1565.39 1781.1,1572.77 1756.28,1572.77C1731.47,1572.77 1669.1,1573.74 1647.7,1568.98C1626.29,1564.23 1654.81,1532.74 1654.81,1532.74Z" style="fill:rgb(240,153,89);fill-rule:nonzero;"/>
        <path d="M1489.18,1289.92C1447.74,1422.42 1388.99,1572.77 1398.35,1572.77C1407.71,1572.77 1645.67,1582.39 1655.03,1574.38C1664.39,1566.37 1661.71,1535.62 1660.38,1531.61C1659.04,1527.6 1525.09,1503.83 1525.09,1503.83C1525.09,1503.83 1542.73,1469.45 1549.42,1402.27C1556.1,1335.09 1497.04,1264.79 1489.18,1289.92Z" style="fill:rgb(168,206,255);fill-rule:nonzero;"/>
        <path d="M1633.53,1110.86L1600.15,1232.85C1600.15,1232.85 1656.55,1320.9 1672.06,1313.08C1687.57,1305.25 1663.39,1241.51 1663.39,1232.85C1663.39,1224.19 1687.57,1134.81 1687.57,1134.81L1633.53,1110.86Z" style="fill:rgb(240,153,89);fill-rule:nonzero;"/>
        <path d="M1664.55,1239.07C1663.83,1236.18 1663.39,1234.01 1663.39,1232.85C1663.39,1224.19 1687.57,1134.81 1687.57,1134.81L1633.53,1110.86L1622.48,1151.23C1632.13,1192.93 1649.54,1220.7 1664.55,1239.07Z" style="fill:rgb(227,133,64);fill-rule:nonzero;"/>
        <path d="M1758.44,1108.84C1764.8,1144.21 1760.61,1191.2 1729.2,1203.14C1697.78,1215.09 1659.95,1192.23 1644.68,1152.1C1629.42,1111.96 1642.51,1069.74 1673.93,1057.79C1705.34,1045.85 1750.84,1066.58 1758.44,1108.84Z" style="fill:rgb(240,153,89);fill-rule:nonzero;"/>
        <path d="M1652.13,1128.75C1656.53,1141.11 1652.71,1153.77 1643.59,1157.02C1634.47,1160.26 1623.5,1152.87 1619.1,1140.5C1614.7,1128.14 1618.52,1115.48 1627.64,1112.23C1636.76,1108.99 1647.73,1116.38 1652.13,1128.75Z" style="fill:rgb(240,153,89);fill-rule:nonzero;"/>
        <path d="M1758.81,1064.4C1748.11,1147.41 1647.26,1136.71 1647.26,1136.71C1647.26,1136.71 1626.46,1109.37 1617.1,1123.71C1607.74,1138.05 1630.08,1039.55 1687.95,1036.45C1706.97,1035.43 1758.81,1064.4 1758.81,1064.4Z" style="fill:rgb(48,60,96);fill-rule:nonzero;"/>
        <path d="M1656.3,1029.3C1656.3,1057.61 1631.84,1080.55 1601.67,1080.55C1571.51,1080.55 1547.05,1057.61 1547.05,1029.3C1547.05,1001 1571.51,978.053 1601.67,978.053C1631.84,978.053 1656.3,1001 1656.3,1029.3Z" style="fill:rgb(48,60,96);fill-rule:nonzero;"/>
        <path d="M1492.87,2175.94L1505.36,2175.94L1586.02,1802.23L1558.54,1802.23L1492.87,2175.94Z" style="fill:rgb(46,91,154);fill-rule:nonzero;"/>
        <path d="M1881.22,2175.94L1868.73,2175.94L1774.86,1789.02L1802.34,1789.02L1881.22,2175.94Z" style="fill:rgb(46,91,154);fill-rule:nonzero;"/>
        <path d="M1635.39,1816.23C1585.35,1816.23 1553.65,1807.25 1533.42,1787.54C1508.35,1763.11 1503.16,1725.27 1503.08,1675.97C1503.02,1637.17 1502.1,1611.9 1500,1591.47C1499.21,1583.78 1504.8,1576.9 1512.49,1576.11C1520.18,1575.32 1527.06,1580.91 1527.85,1588.6C1530.05,1610.02 1531.02,1636.13 1531.08,1675.92C1531.16,1725.89 1537.5,1752.42 1552.96,1767.48C1568.83,1782.94 1597.51,1789.31 1645.94,1788.1C1692.71,1786.94 1724.91,1780.4 1750.77,1775.14C1784.8,1768.23 1809.38,1763.23 1838.53,1777.16C1845.51,1780.5 1848.46,1788.85 1845.13,1795.83C1841.79,1802.81 1833.43,1805.76 1826.46,1802.42C1805.77,1792.54 1788.21,1796.11 1756.35,1802.58C1729.4,1808.06 1695.87,1814.87 1646.63,1816.09C1642.79,1816.18 1639.04,1816.23 1635.39,1816.23Z" style="fill:rgb(46,91,154);fill-rule:nonzero;"/>
        <path d="M1521.71,1574.38L1598.31,1577.57L1577.92,1789.03C1577.92,1789.03 1520.82,1752.59 1521.71,1713.37C1522.61,1674.16 1521.71,1574.38 1521.71,1574.38Z" style="fill:rgb(46,91,154);fill-rule:nonzero;"/>
        <path d="M1899.81,1594.08C1964.57,1584.25 1986.58,1587.35 2026.22,1661.12C2065.85,1734.88 2118.61,1867.69 2148.95,1884.85C2194.64,1910.68 2209.78,1974.01 2228.54,1971.17C2247.3,1968.32 2259.38,1976.61 2238.96,1993.58C2218.55,2010.54 2185.58,2024.99 2174.31,2021.98C2163.04,2018.97 2154.29,1970.26 2124.85,1954.45C2095.41,1938.63 2104.26,1925.64 2106.19,1911.65C2108.12,1897.66 2020.25,1833.26 1954,1753.16C1913.53,1704.21 1892.68,1671.91 1889.59,1642.63C1886.5,1613.35 1899.81,1594.08 1899.81,1594.08Z" style="fill:rgb(240,153,89);fill-rule:nonzero;"/>
        <path d="M2060.36,1861.56C2045.32,1823.4 2030.23,1760.42 2016.05,1702.68C1995.88,1620.56 1974.74,1601.07 1961.35,1592.31C1945.16,1588.25 1925.98,1590.11 1899.81,1594.08C1899.81,1594.08 1886.5,1613.35 1889.59,1642.63C1892.68,1671.91 1913.53,1704.21 1954,1753.16C1988.88,1795.33 2029.75,1833.15 2060.36,1861.56Z" style="fill:rgb(227,133,64);fill-rule:nonzero;"/>
        <path d="M1919.53,1659C1919.53,1659 1902.3,1789.02 1886.25,1802.24C1874.78,1811.69 1866.65,1812.32 1858.62,1773.54C1850.6,1734.76 1871.1,1590.03 1871.1,1590.03L1919.53,1659Z" style="fill:rgb(46,91,154);fill-rule:nonzero;"/>
        <path d="M1905.8,1729.36L1746.32,1756.16L1836.36,1627.05L1904.88,1613.1L1945.97,1622.55L1905.8,1729.36Z" style="fill:rgb(240,153,89);fill-rule:nonzero;"/>
        <path d="M2106.19,1911.65C2101.02,1932.49 2101.64,1947.89 2110.63,1955.61C2119.61,1963.32 2153.55,2020.68 2153.55,2020.68L2164.13,2019.07L2139.64,1966.59L2106.19,1911.65Z" style="fill:rgb(46,91,154);fill-rule:nonzero;"/>
        <path d="M2174.31,2021.98C2185.58,2024.99 2218.55,2010.54 2238.96,1993.58C2259.38,1976.61 2247.3,1968.32 2228.54,1971.17C2227.49,1971.33 2226.44,1971.26 2225.4,1971.01C2216.03,1991.94 2185.21,2007.64 2175.27,1985.53C2165.41,1963.62 2123.19,1920.01 2106.18,1910.68C2106.22,1911.02 2106.23,1911.35 2106.19,1911.65C2104.26,1925.64 2095.41,1938.63 2124.85,1954.45C2154.29,1970.26 2163.04,2018.97 2174.31,2021.98Z" style="fill:rgb(46,91,154);fill-rule:nonzero;"/>
        <path d="M1574.3,1599.29C1517.72,1700.83 1556.37,1765.36 1625.14,1771.94C1693.91,1778.51 1802.47,1765.96 1865.75,1713.37C1929.04,1660.79 1980.98,1605.18 1973.73,1596.89C1966.47,1588.59 1574.3,1599.29 1574.3,1599.29Z" style="fill:rgb(227,133,64);fill-rule:nonzero;"/>
        <path d="M1895.17,1675.05C1906.75,1640.29 1920.11,1613.62 1945.97,1613.13C1973.16,1612.63 1989.89,1626.77 1991.05,1671.25C1992.43,1724.22 1994.3,1899.64 1991.85,1977.64C1990,2036.69 2007.21,2055.59 2005.75,2117.14C2004.66,2163.5 2054.08,2140.08 2034.99,2164.13C2021.86,2180.66 1982.78,2175.25 1958.78,2172.2C1937.39,2169.48 1969.85,2105.38 1940.25,2088.24C1914.85,2073.54 1914.35,2049.66 1930.39,2031.59C1946.43,2013.51 1932.17,1960.04 1921.48,1922.6C1910.78,1885.17 1894.19,1844.67 1883.3,1756.16C1880.19,1730.92 1888.09,1696.28 1895.17,1675.05Z" style="fill:rgb(240,153,89);fill-rule:nonzero;"/>
        <path d="M2018.08,2145.2C2009.89,2147.7 1999.79,2150.46 1991,2150.75C1973.17,2151.34 1967.82,2131.73 1966.64,2105.1C1965.6,2081.84 1948.71,2045.21 1931.38,2030.36C1931.06,2030.78 1930.74,2031.2 1930.39,2031.59C1914.35,2049.66 1914.85,2073.54 1940.25,2088.24C1969.85,2105.38 1937.39,2169.48 1958.78,2172.2C1982.78,2175.25 2021.86,2180.66 2034.99,2164.13C2047.4,2148.5 2032,2147.26 2018.08,2145.2Z" style="fill:rgb(46,91,154);fill-rule:nonzero;"/>
        <path d="M1934.4,2024.96C1934.4,2024.96 1908.4,2052.11 1910.78,2063.4C1913.16,2074.69 1921.17,2103.21 1922.51,2125.2C1923.85,2147.18 1925.04,2172.42 1925.04,2172.42C1925.04,2172.42 1934.4,2172.42 1935.14,2169.76C1935.89,2167.11 1941.09,2080.4 1941.09,2080.4L1934.4,2024.96Z" style="fill:rgb(46,91,154);fill-rule:nonzero;"/>
        <path d="M1547.05,1590.03C1547.05,1590.03 1513.49,1732.46 1555.89,1771.94C1598.29,1811.42 1774.37,1775.91 1815.84,1773.54C1843.92,1771.94 1871.1,1806.21 1871.1,1806.21C1871.1,1806.21 1851.49,1726.74 1864.86,1662.57C1878.23,1598.4 1899.81,1594.08 1899.81,1594.08L1871.1,1590.03L1547.05,1590.03Z" style="fill:rgb(117,161,222);fill-rule:nonzero;"/>
        <path d="M1539.45,1552.79C1553.8,1583.24 1524,1635.83 1534.44,1650.98C1544.89,1666.13 1604.68,1653.1 1643.86,1621.57C1683.04,1590.03 1757.19,1583.1 1757.19,1583.1L1539.45,1552.79Z" style="fill:rgb(168,206,255);fill-rule:nonzero;"/>
        <path d="M1600.15,1812.31C1718.69,1816.76 1843.47,1814.66 1843.47,1796.99C1843.47,1779.33 1838.12,1766.85 1746.32,1773.98C1654.52,1781.11 1592.13,1790.92 1564.5,1784.68C1536.87,1778.44 1600.15,1812.31 1600.15,1812.31Z" style="fill:rgb(46,91,154);fill-rule:nonzero;"/>
        <path d="M2864.29,1605.04L1194.07,1605.04C1186.94,1605.04 1181.16,1599.26 1181.16,1592.13L1181.16,1585.68C1181.16,1578.55 1186.94,1572.77 1194.07,1572.77L2864.29,1572.77C2871.42,1572.77 2877.2,1578.55 2877.2,1585.68L2877.2,1592.13C2877.2,1599.26 2871.42,1605.04 2864.29,1605.04Z" style="fill:rgb(46,91,154);fill-rule:nonzero;"/>
        <path d="M3086.22,1140.27C3097.7,1180.76 3069.65,1222.48 3038.75,1231.25C3007.86,1240.01 2985.81,1212.5 2974.32,1172.01C2962.84,1131.52 2978.58,1091.6 3009.47,1082.83C3040.37,1074.07 3074.73,1099.78 3086.22,1140.27Z" style="fill:rgb(240,153,89);fill-rule:nonzero;"/>
        <path d="M2912.98,1924.82C2912.98,1924.82 2992.17,2047.82 3002.86,2053.16C3013.56,2058.51 3040.3,2059.85 3030.27,2079.9C3020.24,2099.95 3016.23,2178.83 3006.87,2182.84C2997.52,2186.85 2917.3,2196.21 2929.33,2182.84C2941.37,2169.47 2948.77,2176.16 2954.84,2152.09C2960.91,2128.03 2969.44,2082.57 2958.08,2073.22C2946.71,2063.86 2877.2,1979.63 2877.2,1979.63L2912.98,1924.82Z" style="fill:rgb(240,153,89);fill-rule:nonzero;"/>
        <path d="M2514.42,1977.64C2514.42,1977.64 2418.16,2136.29 2400.33,2150.55C2382.51,2164.81 2323.68,2186.21 2371.81,2189.77C2419.94,2193.34 2443.12,2173.73 2473.42,2164.81C2503.72,2155.9 2541.16,2150.55 2526.9,2127.38C2512.64,2104.21 2518.56,2053.62 2549.3,2021.53C2580.05,1989.44 2514.42,1977.64 2514.42,1977.64Z" style="fill:rgb(240,153,89);fill-rule:nonzero;"/>
        <path d="M3005.65,1609.75C3005.65,1609.75 2767.36,1603.52 2672.88,1681.05C2617.62,1764.84 2483.93,2012.04 2473.54,2039.28C2480.67,2046.41 2520.78,2059.28 2538.61,2057.49C2591.2,1994.79 2660.7,1940.58 2688.35,1891.4C2722.41,1830.79 2732.91,1800.49 2788.17,1795.14C2843.43,1789.79 2968.21,1771.97 3005.65,1771.97C3043.08,1771.97 3005.65,1609.75 3005.65,1609.75Z" style="fill:rgb(103,145,201);fill-rule:nonzero;"/>
        <path d="M3213.45,2190.2L3200.96,2190.2L3111.39,1816.49L3138.87,1816.49L3213.45,2190.2Z" style="fill:rgb(46,91,154);fill-rule:nonzero;"/>
        <path d="M2839.27,2190.2L2851.77,2190.2L2954.55,1803.28L2927.07,1803.28L2839.27,2190.2Z" style="fill:rgb(46,91,154);fill-rule:nonzero;"/>
        <path d="M3141.4,1593.43L3002.86,1617.34C3002.86,1617.34 2818.76,1619.03 2734.61,1634.71C2658.04,1648.97 2646.76,1735.96 2734.61,1855.75C2784.51,1923.8 2826.7,1978.08 2912.98,2039.28C2934.93,2023.17 2943.32,2017.07 2949.39,1978.3C2943.14,1969.74 2926.98,1916.15 2921.96,1905.66C2874.24,1805.9 2810.54,1769.62 2809.66,1759.81C2820.35,1742.43 3092.96,1850.4 3147.16,1786.89C3198.91,1726.25 3141.4,1593.43 3141.4,1593.43Z" style="fill:rgb(117,161,222);fill-rule:nonzero;"/>
        <path d="M3147.16,1279.79C3110.67,1274.66 3073.51,1281.6 3038.75,1306.76C3008.38,1337.72 2974.02,1388.77 2976.13,1472.98C2978.8,1579.93 2959.58,1586.8 2979.63,1616.21C3063.27,1650.75 3206.31,1799.14 3172.63,1640.05C3148.23,1524.86 3226.12,1439 3163.29,1311.22C3158.17,1300.82 3151.78,1290.73 3147.16,1279.79Z" style="fill:rgb(243,113,104);fill-rule:nonzero;"/>
        <path d="M2976.1,1513.23C2974.48,1568.99 2966.6,1585.41 2972.62,1602.89C3006.72,1606.37 3069.09,1620.02 3084.68,1641.84C3102.5,1666.79 3120.33,1670.36 3112.01,1651.94C3103.69,1633.52 3081.71,1607.37 3115.58,1517.65C3149.44,1427.93 3165.49,1367.32 3132.21,1304.93L2976.1,1513.23Z" style="fill:rgb(213,74,65);fill-rule:nonzero;"/>
        <path d="M3147.16,1279.79C3124.69,1226.6 3119.17,1166.84 3119.17,1166.84L3060.35,1184.22C3060.35,1184.22 3093.77,1259.08 3061.69,1285.82C3054.87,1291.5 3046.95,1298.4 3038.75,1306.76C3073.51,1281.6 3110.67,1274.66 3147.16,1279.79Z" style="fill:rgb(240,153,89);fill-rule:nonzero;"/>
        <path d="M3120.94,1181C3117.46,1177.9 3113.1,1174.03 3108.52,1169.98L3060.54,1184.16L3060.44,1184.42C3061.6,1187.07 3073.82,1215.59 3075.43,1243.02C3089.73,1234.34 3105.38,1220.2 3123.28,1195.49C3122.31,1190.01 3121.54,1185.12 3120.94,1181Z" style="fill:rgb(227,133,64);fill-rule:nonzero;"/>
        <path d="M3105.8,1296.51C3045.22,1317.7 3051.94,1381.53 2996.18,1475.66C2967.32,1524.37 2940.52,1523.64 2940.52,1523.64C2940.52,1523.64 2872.85,1524.19 2790.99,1514.18C2739.73,1507.91 2736.48,1523.17 2772.13,1535.92C2844.03,1561.62 2918.64,1589.29 2978.8,1582.61C3038.96,1575.92 3141.85,1422.43 3147.16,1382.47C3154.5,1327.21 3136.31,1285.84 3105.8,1296.51Z" style="fill:rgb(240,153,89);fill-rule:nonzero;"/>
        <path d="M3074.62,1830.5C3070.86,1830.5 3067.01,1830.45 3063.06,1830.35C3013.82,1829.13 2980.29,1822.32 2953.34,1816.84C2921.48,1810.37 2903.92,1806.8 2883.23,1816.69C2876.26,1820.02 2867.9,1817.07 2864.57,1810.09C2861.23,1803.11 2864.18,1794.76 2871.16,1791.42C2900.31,1777.49 2924.9,1782.49 2958.92,1789.4C2984.79,1794.66 3016.98,1801.2 3063.75,1802.36C3116.42,1803.66 3148.64,1795.76 3165.1,1777.51C3179.8,1761.21 3184.13,1734.04 3178.72,1691.99C3176.89,1677.75 3175.06,1665.91 3173.45,1655.47C3168.91,1626.16 3165.92,1606.79 3169.62,1576.94C3173.06,1549.11 3182.3,1511.99 3203.68,1439.96C3205.88,1432.55 3213.68,1428.33 3221.09,1430.53C3228.5,1432.73 3232.73,1440.52 3230.53,1447.93C3190.52,1582.66 3192.55,1595.82 3201.12,1651.19C3202.76,1661.8 3204.62,1673.83 3206.49,1688.42C3213.02,1739.17 3206.47,1773.44 3185.89,1796.26C3164.68,1819.78 3130.1,1830.5 3074.62,1830.5Z" style="fill:rgb(46,91,154);fill-rule:nonzero;"/>
        <path d="M2520.96,2111.36C2457.09,2142.59 2422.72,2160.5 2402.24,2158.79C2397.41,2158.39 2393.4,2157.89 2390.04,2157.37C2367.26,2170.83 2330.9,2186.74 2371.81,2189.77C2419.94,2193.34 2443.12,2173.73 2473.42,2164.81C2503.73,2155.9 2541.16,2150.55 2526.9,2127.38C2524.17,2122.94 2522.18,2117.49 2520.96,2111.36Z" style="fill:rgb(213,74,65);fill-rule:nonzero;"/>
        <path d="M3009.83,2055.77C3008.26,2106.34 3001.31,2156.45 2970.38,2165.92C2962.19,2168.43 2954.71,2168.79 2948.1,2167.91C2943.24,2173.92 2937.3,2173.99 2929.33,2182.84C2917.3,2196.21 2997.52,2186.85 3006.87,2182.84C3016.23,2178.83 3020.24,2099.95 3030.27,2079.9C3038.51,2063.43 3021.93,2059.58 3009.83,2055.77Z" style="fill:rgb(213,74,65);fill-rule:nonzero;"/>
        <path d="M2763.8,1575.62L2560.89,1575.62C2555.44,1575.62 2550.49,1572.46 2548.2,1567.52L2466.2,1391.04C2462.94,1384.03 2465.98,1375.71 2472.99,1372.45C2480.01,1369.19 2488.33,1372.23 2491.59,1379.25L2569.82,1547.62L2763.8,1547.62C2771.54,1547.62 2777.8,1553.89 2777.8,1561.62C2777.8,1569.35 2771.54,1575.62 2763.8,1575.62Z" style="fill:rgb(117,161,222);fill-rule:nonzero;"/>
        <path d="M2806.25,1515.94C2765.25,1515.35 2724.59,1490.91 2704.39,1494.48C2684.19,1498.04 2618.23,1543.79 2626.55,1545.58C2634.87,1547.36 2687.16,1520.26 2688.94,1519.84C2690.72,1519.43 2702.01,1538.62 2729.94,1545.66C2757.87,1552.71 2730.14,1524.73 2816.71,1550.88C2873,1567.88 2806.25,1515.94 2806.25,1515.94Z" style="fill:rgb(240,153,89);fill-rule:nonzero;"/>
        <path d="M3141.13,1231.25L3147.16,1279.79C3147.16,1279.79 3094.1,1282.94 3067.7,1297.8C3041.3,1312.65 3002.34,1355.57 3002.34,1355.57L3034.17,1300.77L3038.75,1265.71L3141.13,1231.25Z" style="fill:rgb(242,229,222);fill-rule:nonzero;"/>
        <path d="M3118.55,1290.67C3079.14,1283.28 3060.91,1318.59 3035.36,1376.23C3009.81,1433.87 2966.19,1503.87 2957.52,1512.9C2948.85,1521.92 2811.35,1512.9 2811.35,1512.9C2811.35,1512.9 2807.19,1552.71 2811.35,1557.46C2815.5,1562.21 2839.27,1561.62 2839.27,1561.62C2839.27,1561.62 2848.78,1569.21 2857.69,1575.22C2866.61,1581.23 2942.07,1592.52 2977.13,1590.74C3012.18,1588.95 3044.27,1585.98 3049.02,1580.63C3053.78,1575.29 3149.44,1427.93 3155.39,1375.04C3161.33,1322.16 3138.66,1294.44 3118.55,1290.67Z" style="fill:rgb(242,229,222);fill-rule:nonzero;"/>
        <path d="M3002.34,1048.23C2927.81,1051.8 2939.5,1163.92 2939.5,1163.92C2939.5,1163.92 2958.86,1169.9 2999.41,1163.21C2996.29,1151.18 2997.63,1120.43 2997.63,1120.43C2997.63,1120.43 3002.34,1145.39 3008.32,1160.54C3016.9,1164.47 3026.59,1160.98 3043.08,1157C3051.55,1192.62 3075.48,1207.68 3091.86,1212.83C3109.96,1218.52 3129.12,1225.3 3150.51,1214.61C3171.9,1203.91 3160.14,1094.58 3148.78,1072.6C3131.73,1039.59 3103.39,1010.06 3054.37,1025.65C3029.79,1033.48 3002.34,1048.23 3002.34,1048.23Z" style="fill:rgb(48,60,96);fill-rule:nonzero;"/>
        <path d="M3131.95,1181.39L3162.42,1225.9C3162.42,1225.9 3128.65,1310.28 3226.86,1348.5C3303.78,1378.44 3294.72,1431.19 3259.96,1484.24C3225.21,1537.29 3280.76,1583.62 3280.76,1583.62C3280.76,1583.62 3289.23,1524.85 3363.97,1513.76C3465.88,1498.64 3494.73,1361.82 3418.62,1293.41C3355.63,1236.8 3336.47,1283.68 3293.83,1232.88C3251.2,1182.08 3170.72,1216.39 3170.72,1216.39L3141.22,1173.37L3131.95,1181.39Z" style="fill:rgb(48,60,96);fill-rule:nonzero;"/>
        <path d="M3453.67,1430.96C3453.28,1430.96 3452.88,1430.86 3452.5,1430.66C3451.32,1430.01 3450.89,1428.53 3451.54,1427.35C3477.22,1380.41 3456.26,1323.54 3445.72,1308.14C3444.61,1306.51 3443.55,1304.86 3442.43,1303.12C3432.07,1286.94 3419.18,1266.81 3350.45,1254.44C3333.98,1251.48 3320.63,1241.67 3306.49,1231.29C3277.17,1209.77 3243.93,1185.38 3171.73,1218.6C3170.51,1219.17 3169.06,1218.63 3168.5,1217.41C3167.94,1216.19 3168.47,1214.74 3169.7,1214.18C3244.51,1179.75 3278.97,1205.05 3309.37,1227.37C3323.04,1237.4 3335.96,1246.88 3351.31,1249.65C3422.13,1262.4 3435.66,1283.52 3446.54,1300.49C3447.63,1302.2 3448.67,1303.82 3449.74,1305.38C3456.09,1314.67 3463.94,1333.9 3467.15,1355.93C3469.94,1375.03 3470.23,1403.34 3455.81,1429.69C3455.37,1430.5 3454.53,1430.96 3453.67,1430.96Z" style="fill:rgb(48,60,96);fill-rule:nonzero;"/>
        <path d="M3115.67,1226.72C3110.81,1226.72 3105.55,1226.3 3099.89,1225.45C3073.91,1221.56 3039.06,1206.79 3036.32,1123.78C3036.27,1122.43 3037.33,1121.31 3038.67,1121.26C3040.06,1121.2 3041.14,1122.27 3041.19,1123.62C3042.32,1157.98 3049.15,1183.41 3061.47,1199.21C3070.85,1211.23 3083.29,1218.04 3100.61,1220.63C3124.86,1224.27 3140.95,1219.77 3148.42,1207.26C3149.11,1206.11 3150.61,1205.73 3151.76,1206.42C3152.92,1207.11 3153.29,1208.61 3152.6,1209.76C3145.86,1221.04 3133.47,1226.72 3115.67,1226.72Z" style="fill:rgb(48,60,96);fill-rule:nonzero;"/>
        <path d="M789.673,1285.62C703.169,1335.09 582.85,1540.7 608.25,1574.26C633.651,1607.81 770.013,1519.58 770.013,1519.58L789.673,1285.62Z" style="fill:rgb(150,207,224);fill-rule:nonzero;"/>
        <path d="M951.285,1047.18C918.252,1046.28 930.51,1021.73 892.525,1031.53C872.555,1036.69 887.297,1044.9 861.354,1042.23C835.409,1039.55 822.643,1036.88 819.373,1053.81C816.102,1070.75 814.521,1076.1 802.043,1078.77C789.565,1081.44 783.93,1103.73 802.043,1118.88C820.157,1134.03 811.351,1140.27 807.34,1152.75C803.33,1165.23 817.001,1166.12 824.426,1177.7C831.851,1189.29 817.59,1191.48 828.286,1201.53C838.981,1211.57 853.983,1210.68 853.983,1210.68L899.009,1124.35L951.285,1047.18Z" style="fill:rgb(48,60,96);fill-rule:nonzero;"/>
        <path d="M1624.26,2083.39C1624.26,2083.39 1672.39,2084.73 1709.82,2070.02C1747.25,2055.31 1772.65,2032.59 1765.97,2059.32C1759.29,2086.06 1728.54,2131.93 1701.8,2136.4C1675.06,2140.87 1665.7,2170.29 1651,2170.29C1636.29,2170.29 1614.9,2136.4 1577.47,2119.47C1543.35,2104.04 1624.26,2083.39 1624.26,2083.39Z" style="fill:rgb(46,91,154);fill-rule:nonzero;"/>
        <path d="M1244.98,2078.88C1244.98,2078.88 1265.23,2106.79 1300.45,2126.21C1336.83,2146.26 1378.81,2155.91 1352.78,2164.98C1326.76,2174.05 1288.7,2181.1 1251.59,2170.32C1225.55,2162.76 1195.03,2161.18 1186.97,2148.88C1178.91,2136.58 1196.46,2105.69 1189.16,2059.53C1183.31,2022.54 1244.98,2078.88 1244.98,2078.88Z" style="fill:rgb(46,91,154);fill-rule:nonzero;"/>
        <path d="M1019.62,1630.22C1019.62,1630.22 1298.41,1734.61 1320.88,1763.8C1343.34,1792.98 1636.39,2058.82 1636.39,2078.42C1636.39,2098.03 1586.48,2133.69 1586.48,2133.69C1586.48,2133.69 1335.14,1979.49 1272.75,1901.06C1210.35,1822.62 1058.08,1784.81 977.132,1777.55C896.18,1770.28 1019.62,1630.22 1019.62,1630.22Z" style="fill:rgb(62,107,171);fill-rule:nonzero;"/>
        <path d="M1030.31,1630.22C1030.31,1630.22 1221.05,1623.09 1262.05,1630.22C1303.05,1637.35 1392.98,1637.27 1334.16,1803.28C1288.05,1933.4 1272.84,2098.14 1272.84,2098.14L1181.16,2120.66C1181.16,2120.66 1184.8,1824.43 1228.54,1745.56C1196.69,1750.81 1138.22,1761.05 1057.18,1784.23C906.851,1827.22 824.426,1805.69 824.426,1805.69L802.043,1727.25L1030.31,1630.22Z" style="fill:rgb(68,118,189);fill-rule:nonzero;"/>
        <path d="M871.031,1137.76L824.426,1275.46L883.304,1314.23L916.67,1195.25L871.031,1137.76Z" style="fill:rgb(168,107,72);fill-rule:nonzero;"/>
        <path d="M888.57,1295.45L916.67,1195.25L871.031,1137.76L853.983,1188.13C859.867,1233.62 874.081,1271.25 888.57,1295.45Z" style="fill:rgb(122,78,52);fill-rule:nonzero;"/>
        <path d="M989.912,1161.07C991.424,1202.95 970.852,1239.2 938.154,1242.42C905.457,1245.65 875.616,1214.45 871.504,1172.74C867.391,1131.04 890.564,1094.62 923.261,1091.39C955.959,1088.17 987.525,1094.98 989.912,1161.07Z" style="fill:rgb(168,107,72);fill-rule:nonzero;"/>
        <path d="M802.043,1271.45C658.987,1368.06 747.964,1524.18 779.377,1638.27C806.133,1735.44 805.261,1794.17 809.271,1794.17C813.282,1794.17 911.667,1779.46 967.816,1728.66C1023.97,1677.86 1061.93,1628.65 1061.93,1628.65C1061.93,1628.65 989.99,1615.84 966.479,1522.78C954.544,1475.54 959.97,1449.89 932.762,1375.02C905.553,1300.16 802.043,1271.45 802.043,1271.45Z" style="fill:rgb(162,223,242);fill-rule:nonzero;"/>
        <path d="M802.043,1271.45L817.365,1233.96C817.365,1233.96 865.942,1266.05 885.327,1281.2C904.712,1296.35 916.67,1299.92 916.67,1299.92C916.67,1299.92 923.677,1353.66 919.126,1348.78C861.792,1287.33 802.043,1271.45 802.043,1271.45Z" style="fill:rgb(162,223,242);fill-rule:nonzero;"/>
        <path d="M738.642,2190.2L751.133,2190.2L840.704,1816.49L813.224,1816.49L738.642,2190.2Z" style="fill:rgb(46,91,154);fill-rule:nonzero;"/>
        <path d="M1112.81,2190.2L1100.32,2190.2L997.542,1803.28L1025.02,1803.28L1112.81,2190.2Z" style="fill:rgb(46,91,154);fill-rule:nonzero;"/>
        <path d="M877.788,1830.49C827.751,1830.49 796.051,1821.51 775.822,1801.8C750.745,1777.37 745.556,1739.53 745.481,1690.23C745.323,1586.58 739.591,1565.15 710.411,1501.86C707.174,1494.84 710.242,1486.52 717.264,1483.28C724.286,1480.05 732.603,1483.11 735.839,1490.14C766.682,1557.04 773.315,1581.63 773.481,1690.19C773.557,1740.15 779.896,1766.68 795.36,1781.74C811.224,1797.2 839.899,1803.57 888.339,1802.36C935.109,1801.2 967.303,1794.66 993.171,1789.4C1027.19,1782.49 1051.78,1777.49 1080.93,1791.42C1087.91,1794.76 1090.86,1803.11 1087.52,1810.09C1084.19,1817.07 1075.83,1820.02 1068.86,1816.69C1048.17,1806.8 1030.61,1810.37 998.748,1816.84C971.802,1822.32 938.268,1829.13 889.03,1830.35C885.186,1830.45 881.435,1830.49 877.788,1830.49Z" style="fill:rgb(46,91,154);fill-rule:nonzero;"/>
        <path d="M1495.92,1574L1293,1574C1285.27,1574 1279,1567.74 1279,1560C1279,1552.27 1285.27,1546 1293,1546L1486.98,1546L1565.22,1377.63C1568.48,1370.62 1576.8,1367.57 1583.81,1370.83C1590.83,1374.09 1593.87,1382.41 1590.61,1389.43L1508.61,1565.9C1506.32,1570.84 1501.36,1574 1495.92,1574Z" style="fill:rgb(62,107,171);fill-rule:nonzero;"/>
        <path d="M807.34,1412.11C807.34,1412.11 842.992,1520.85 887.111,1565.86C931.23,1610.87 1020.02,1626 1047.82,1624.23C1025.66,1615.32 983.452,1589.96 966.479,1522.78C954.544,1475.54 959.97,1449.89 932.762,1375.02C912.564,1319.45 850.331,1289.31 819.595,1277.47C857.958,1305.03 905.923,1350.4 920.663,1384.93C937.024,1423.26 807.34,1412.11 807.34,1412.11Z" style="fill:rgb(150,207,224);fill-rule:nonzero;"/>
        <path d="M1299.42,1507.54C1299.42,1507.54 1360.91,1479.47 1367.6,1482.14C1374.28,1484.82 1442.46,1525.99 1442.46,1532.81C1442.46,1539.63 1382.3,1507.39 1382.3,1507.39C1382.3,1507.39 1388.99,1525.21 1384.98,1533.76C1380.97,1542.3 1334.72,1542.3 1293,1539.63C1251.29,1536.96 1299.42,1507.54 1299.42,1507.54Z" style="fill:rgb(168,107,72);fill-rule:nonzero;"/>
        <path d="M809.306,1328.1C752.618,1444.29 947.076,1562.07 1062.44,1572.54C1177.81,1583.02 1314.87,1545.26 1314.87,1545.26L1299.42,1507.54C1299.42,1507.54 1068.29,1477.38 1062.44,1473.15C1056.59,1468.93 830.068,1285.55 809.306,1328.1Z" style="fill:rgb(162,223,242);fill-rule:nonzero;"/>
        <path d="M883.011,1141.68C888.266,1155.5 884.413,1169.78 874.406,1173.59C864.399,1177.4 852.028,1169.28 846.773,1155.46C841.519,1141.64 845.372,1127.36 855.378,1123.55C865.385,1119.75 877.757,1127.86 883.011,1141.68Z" style="fill:rgb(168,107,72);fill-rule:nonzero;"/>
        <path d="M989.99,1053.22C1005.65,1046.68 1023.29,1039.68 1017.83,1066.29C1015.46,1077.88 1017.83,1074.61 1021.99,1085.31C1026.15,1096 1011.51,1104.4 1006.76,1110.34C1002,1116.28 1013.68,1122.74 1004.17,1129.87C994.661,1137 982.127,1127.23 973.27,1129.87C946.828,1137.76 950.096,1116.96 935.241,1112.64C920.386,1108.31 913.105,1108.98 910.285,1118.49C907.465,1128 920.684,1159.28 909.394,1156.31C898.104,1153.34 895.562,1178.59 892.525,1192.86C889.488,1207.12 881.742,1183.01 882.243,1166.7C883.011,1141.68 876.8,1131.17 867.584,1124.17C858.368,1117.17 854.444,1053.52 899.009,1051.14C943.574,1048.76 943.857,1044.46 962.872,1040.44C981.886,1036.42 982.852,1056.2 989.99,1053.22Z" style="fill:rgb(48,60,96);fill-rule:nonzero;"/>
        <path d="M3488.49,1780.1C3516.9,1806.04 3504.55,1831.99 3483.54,1880.17C3462.54,1928.35 3458.83,2106.26 3458.83,2106.26L3476.13,2103.79C3476.13,2103.79 3473.66,1920.94 3497.13,1871.52C3520.61,1822.1 3530.49,1797.4 3551.49,1813.46C3572.5,1829.52 3488.49,1780.1 3488.49,1780.1Z" style="fill:rgb(116,181,112);fill-rule:nonzero;"/>
        <path d="M3472.88,1746.51C3476.33,1731.13 3496.82,1714.5 3524.22,1700.38C3520.15,1723.06 3507.09,1760.14 3520.61,1767.75C3538.84,1778 3522.38,1726.23 3529.42,1697.78C3555.15,1685.21 3586.11,1674.94 3614.62,1669.83C3614.57,1669.94 3614.54,1670.04 3614.5,1670.15C3598.44,1710.92 3577.44,1726.98 3586.09,1733.15C3592.59,1737.8 3613.78,1690.71 3641.77,1666.57C3662.77,1665.45 3680.54,1668.29 3691.05,1676.62C3707.3,1689.48 3718.21,1700.89 3701.87,1740.06C3692.53,1746.73 3680.44,1751.51 3666.39,1752.92C3629.33,1756.63 3612.03,1757.86 3637.97,1770.22C3650.68,1776.27 3671.97,1769.88 3689.24,1765.98C3683.64,1776.3 3676.75,1787.98 3668.39,1801.29C3663.08,1809.73 3657.23,1817.05 3651.02,1823.39C3639.08,1825.68 3628.66,1825.7 3623.15,1823.34C3605.85,1815.93 3561.38,1792.45 3550.26,1802.34C3539.38,1812.01 3632.63,1818.14 3626.17,1842.72C3580.96,1868.76 3529.24,1856.37 3520.1,1832.46C3507.82,1800.35 3462.49,1792.79 3472.88,1746.51Z" style="fill:rgb(156,212,153);fill-rule:nonzero;"/>
        <path d="M3566.32,1922.18C3516.9,1885.11 3466.25,1919.7 3440.3,1959.24C3414.36,1998.77 3432.89,2087.72 3432.89,2087.72C3432.89,2087.72 3442.77,2087.72 3442.77,2084.02C3442.77,2080.31 3415.59,1979.01 3479.84,1933.29C3520.03,1904.7 3549.02,1918.47 3552.73,1932.06C3556.43,1945.65 3536.67,1970.36 3536.67,1970.36L3566.32,1922.18Z" style="fill:rgb(116,181,112);fill-rule:nonzero;"/>
        <path d="M3452.66,1845.99C3502.08,1845.99 3518.14,1922.59 3504.55,1967.06C3490.96,2011.54 3472.42,2094.31 3472.42,2094.31L3460.07,2081.96C3460.07,2081.96 3507.02,1965.83 3495.9,1913.94C3484.78,1862.05 3457.6,1853.4 3452.66,1853.4C3447.72,1853.4 3452.66,1845.99 3452.66,1845.99Z" style="fill:rgb(156,212,153);fill-rule:nonzero;"/>
        <path d="M3494.11,1967.41C3497.58,1962.8 3501.88,1959 3507.11,1956.47C3506.43,1960.16 3505.57,1963.7 3504.55,1967.06C3498.35,1987.33 3491.14,2015.54 3485.11,2040.25C3484.57,2037.09 3483.72,2032.21 3482.42,2024.69C3482.11,2022.91 3481.87,2020.98 3481.7,2018.94C3486.54,2002.48 3491.12,1984.54 3494.11,1967.41Z" style="fill:rgb(116,181,112);fill-rule:nonzero;"/>
        <path d="M3507.62,1967.78C3601.51,1928.24 3552.04,1873.99 3634.82,1909.82C3640.65,1912.34 3647.75,1918.71 3654.87,1927.48C3647.49,1929.57 3638.57,1931.08 3628.64,1929.59C3603.93,1925.88 3612.58,1945.65 3653.35,1950.59C3661.03,1951.52 3667.27,1952.81 3672.45,1954.62C3691.88,1991.93 3700.63,2041.01 3659.53,2058.07C3651.43,2061.44 3641.42,2063.36 3630.27,2064.08C3617.59,2054 3633.37,1995.66 3613.81,2003.71C3595.04,2011.45 3619.7,2053.72 3616.32,2064.37C3597.79,2064.04 3577.27,2061.01 3557.67,2056.15C3549.91,2051.8 3543.98,2045.97 3542.16,2038.31C3535.98,2012.36 3576.75,1996.3 3577.99,1974.06C3579.12,1953.62 3563.04,2019.04 3520.45,2028.67C3481.93,2010.68 3463.73,1986.26 3507.62,1967.78Z" style="fill:rgb(156,212,153);fill-rule:nonzero;"/>
        <path d="M3440.71,1897.88C3450.6,1876.88 3424.65,1871.93 3425.89,1887.99C3426.98,1902.23 3427.11,1936.82 3412.51,1946.24C3387.34,1943.51 3353.09,1933.37 3327.2,1917.91C3326.87,1915.82 3327.19,1913.67 3328.29,1911.47C3339.41,1889.23 3411.06,1870.7 3388.83,1863.29C3371.12,1857.38 3340.08,1892.23 3315.07,1909.78C3300.05,1898.38 3289.99,1884.8 3289.99,1869.64C3289.99,1849.11 3314.93,1825.88 3347.18,1814.77C3361.7,1816.24 3375.18,1824.17 3396.24,1836.11C3427.35,1853.74 3420.15,1825.23 3390.74,1808.32C3416.13,1809.63 3441.45,1820.48 3460.12,1846.4C3460.12,1846.4 3458.36,1857.48 3470.08,1874.62C3502.07,1921.37 3465.15,1948.66 3421.02,1946.89C3423.52,1934.57 3433.89,1912.39 3440.71,1897.88Z" style="fill:rgb(156,212,153);fill-rule:nonzero;"/>
        <path d="M3563.35,1920.08C3587.51,1938.75 3614.34,1960.58 3647.29,1975.4C3680.24,1990.23 3673.65,2038.55 3673.65,2038.55C3673.65,2038.55 3678.59,1996.82 3651.13,1982.54C3623.68,1968.27 3605.56,1951.24 3584.69,1947.95C3563.83,1944.65 3552.29,1941.36 3552.29,1941.36C3552.29,1941.36 3558.88,1928.18 3555.04,1923.24C3551.2,1918.3 3563.35,1920.08 3563.35,1920.08Z" style="fill:rgb(116,181,112);fill-rule:nonzero;"/>
        <path d="M3682.43,1700.85C3594.03,1724.46 3529.23,1781.02 3517.15,1794.75C3505.07,1808.47 3505.07,1812.32 3505.07,1812.32L3514.41,1829.89L3518.8,1827.69C3518.8,1827.69 3511.66,1812.87 3530.33,1793.65C3562.53,1760.5 3601.71,1734.34 3628.62,1722.81C3655.53,1711.28 3682.43,1700.85 3682.43,1700.85Z" style="fill:rgb(116,181,112);fill-rule:nonzero;"/>
        <path d="M3438.4,2190.2L3472.18,2190.2C3496.2,2190.2 3515.67,2170.73 3515.67,2146.71L3515.67,2069.11L3394.91,2069.11L3394.91,2146.71C3394.91,2170.73 3414.38,2190.2 3438.4,2190.2Z" style="fill:rgb(117,161,222);fill-rule:nonzero;"/>
        <rect x="3394.91" y="2082.98" width="120.76" height="8.5" style="fill:white;fill-rule:nonzero;"/>
        <rect x="3394.91" y="2098.48" width="120.76" height="5" style="fill:white;fill-rule:nonzero;"/>
        <path d="M2005.9,448.561C2005.9,357.048 1932.3,282.725 1841.06,281.558C1749.4,280.385 1673.34,354.196 1671.88,445.848C1671.17,490.586 1688.06,531.374 1716.07,561.748C1728.97,575.74 1736.13,594.075 1736.13,613.109L1736.13,687.977C1736.13,736.413 1775.76,776.043 1824.2,776.043L1853.56,776.043C1902,776.043 1941.63,736.413 1941.63,687.977L1941.63,613.117C1941.63,593.924 1949.03,575.558 1962,561.414C1989.26,531.692 2005.9,492.071 2005.9,448.561Z" style="fill:rgb(245,220,149);fill-rule:nonzero;"/>
        <path d="M1851.51,741.502L1826.25,741.502C1784.58,741.502 1750.49,707.408 1750.49,665.739L1750.49,601.33C1750.49,584.955 1744.33,569.182 1733.22,557.144C1709.13,531.013 1694.6,495.924 1695.21,457.435C1696.46,379.203 1760.88,316.085 1838.9,316.085C1839.52,316.085 1840.14,316.089 1840.76,316.097C1919.25,317.101 1982.56,381.041 1982.56,459.77C1982.56,497.201 1968.25,531.288 1944.8,556.857C1933.64,569.026 1927.27,584.825 1927.27,601.337L1927.27,665.739C1927.27,707.408 1893.18,741.502 1851.51,741.502Z" style="fill:rgb(250,238,202);fill-rule:nonzero;"/>
        <path d="M1863.57,643.135L1808.57,643.135C1805.98,643.135 1803.82,641.165 1803.59,638.591C1803.49,637.522 1793.22,531.347 1745.75,501.615C1743.4,500.149 1742.7,497.063 1744.16,494.723C1745.63,492.383 1748.71,491.672 1751.05,493.139C1797.37,522.143 1810.53,611.605 1813.06,633.135L1858.28,633.135C1858.1,625.75 1858.52,611.491 1862.78,593.041C1868.47,568.379 1882.42,531.177 1916.57,493.995C1918.44,491.961 1921.6,491.827 1923.64,493.695C1925.67,495.563 1925.81,498.726 1923.94,500.759C1861.51,568.717 1868.46,636.889 1868.53,637.57C1868.69,638.985 1868.24,640.402 1867.29,641.464C1866.35,642.527 1864.99,643.135 1863.57,643.135Z" style="fill:rgb(148,189,242);fill-rule:nonzero;"/>
        <path d="M1763.19,451.523C1759.89,451.523 1757.04,452.128 1754.77,453.476C1749.86,456.383 1747.32,463.368 1747.22,474.237C1747.12,485.767 1749.66,493.185 1754.77,496.284C1767.11,503.762 1795.93,489.863 1823.58,475.272C1801.23,463.349 1777.77,451.523 1763.19,451.523ZM1844.82,475.302C1872.27,489.896 1901,503.867 1913.68,496.394C1918.99,493.267 1921.75,485.775 1921.9,474.127C1922.05,463.129 1919.67,456.06 1914.83,453.115C1902.57,445.653 1872.8,460.46 1844.82,475.302ZM1904.74,508.454C1886.17,508.454 1860.85,495.262 1834.19,480.962C1799.75,499.304 1767.59,515.749 1749.59,504.836C1741.13,499.708 1737.08,489.67 1737.22,474.147C1737.35,459.535 1741.54,449.685 1749.68,444.871C1767.71,434.191 1799.94,451.227 1834.21,469.621C1869.15,450.985 1902.06,433.631 1920.03,444.574C1928.1,449.486 1932.09,459.473 1931.9,474.256C1931.71,489.638 1927.28,499.985 1918.76,505.009C1914.71,507.396 1909.99,508.454 1904.74,508.454Z" style="fill:rgb(148,189,242);fill-rule:nonzero;"/>
        <path d="M1856.57,799.801L1824.57,799.801C1813.29,799.801 1804.07,790.576 1804.07,779.301L1804.07,776.301C1804.07,765.026 1813.29,755.801 1824.57,755.801L1856.57,755.801C1867.84,755.801 1877.07,765.026 1877.07,776.301L1877.07,779.301C1877.07,790.576 1867.84,799.801 1856.57,799.801Z" style="fill:rgb(148,189,242);fill-rule:nonzero;"/>
        <path d="M1731.28,634.135L1731.28,687.091C1731.28,737.816 1772.78,779.317 1823.51,779.317L1854.25,779.317C1904.98,779.317 1946.48,737.816 1946.48,687.091L1946.48,634.135L1731.28,634.135Z" style="fill:rgb(148,189,242);fill-rule:nonzero;"/>
        <path d="M1945.57,650.801L1734.9,650.801C1728.3,650.801 1722.9,645.401 1722.9,638.801L1722.9,637.468C1722.9,630.868 1728.3,625.468 1734.9,625.468L1945.57,625.468C1952.17,625.468 1957.57,630.868 1957.57,637.468L1957.57,638.801C1957.57,645.401 1952.17,650.801 1945.57,650.801Z" style="fill:rgb(158,200,255);fill-rule:nonzero;"/>
        <path d="M1946.32,669.793L1737.25,695.619C1730.7,696.428 1724.67,691.73 1723.87,685.18L1723.7,683.857C1722.89,677.307 1727.59,671.286 1734.14,670.477L1943.22,644.65C1949.77,643.841 1955.79,648.539 1956.6,655.089L1956.76,656.412C1957.57,662.962 1952.87,668.984 1946.32,669.793Z" style="fill:rgb(158,200,255);fill-rule:nonzero;"/>
        <path d="M1946.32,706.384L1737.25,732.21C1730.7,733.02 1724.67,728.322 1723.87,721.772L1723.7,720.449C1722.89,713.898 1727.59,707.877 1734.14,707.068L1943.22,681.242C1949.77,680.433 1955.79,685.13 1956.6,691.681L1956.76,693.004C1957.57,699.554 1952.87,705.575 1946.32,706.384Z" style="fill:rgb(158,200,255);fill-rule:nonzero;"/>
        <path d="M1933.42,745.542L1759.29,767.052C1753.28,767.794 1747.75,763.483 1747.01,757.472L1746.6,754.19C1745.86,748.178 1750.17,742.652 1756.18,741.91L1930.32,720.4C1936.33,719.658 1941.85,723.969 1942.6,729.98L1943,733.262C1943.74,739.274 1939.43,744.8 1933.42,745.542Z" style="fill:rgb(158,200,255);fill-rule:nonzero;"/>
        <path d="M3441.06,793.015L3553.3,793.015C3553.3,854.586 3502.63,905.251 3441.06,905.251C3379.49,905.251 3328.83,854.586 3328.83,793.015C3328.83,731.444 3379.49,680.779 3441.06,680.779L3441.06,793.015Z" style="fill:rgb(158,200,255);fill-rule:nonzero;"/>
        <path d="M3572.1,777.3C3572.1,715.313 3521.85,665.063 3459.86,665.063L3459.86,777.3L3572.1,777.3Z" style="fill:rgb(243,152,146);fill-rule:nonzero;"/>
        <path d="M3347.62,777.3C3347.62,839.286 3397.87,889.536 3459.86,889.536C3398.29,889.536 3347.62,838.871 3347.62,777.3Z" style="fill:rgb(243,152,146);fill-rule:nonzero;"/>
        <path d="M3459.86,665.063C3397.87,665.063 3347.62,715.313 3347.62,777.3C3347.62,715.729 3398.29,665.063 3459.86,665.063Z" style="fill:rgb(243,152,146);fill-rule:nonzero;"/>
        <path d="M3459.86,889.536C3521.85,889.536 3572.1,839.286 3572.1,777.3C3572.1,838.871 3521.43,889.536 3459.86,889.536Z" style="fill:rgb(243,152,146);fill-rule:nonzero;"/>
        <rect x="1244.45" y="718.775" width="24.51" height="70.928" style="fill:rgb(158,200,255);fill-rule:nonzero;"/>
        <rect x="1558.64" y="741.849" width="24.52" height="47.854" style="fill:rgb(158,200,255);fill-rule:nonzero;"/>
        <rect x="1348.33" y="623.75" width="24.52" height="165.953" style="fill:rgb(158,200,255);fill-rule:nonzero;"/>
        <rect x="1400.28" y="715.11" width="24.51" height="74.593" style="fill:rgb(158,200,255);fill-rule:nonzero;"/>
        <rect x="1452.22" y="693.996" width="24.51" height="95.707" style="fill:rgb(158,200,255);fill-rule:nonzero;"/>
        <rect x="1296.39" y="671.944" width="24.51" height="117.759" style="fill:rgb(158,200,255);fill-rule:nonzero;"/>
        <rect x="1504.34" y="644.664" width="24.51" height="145.039" style="fill:rgb(158,200,255);fill-rule:nonzero;"/>
        <g>
            <clipPath id="_clip1">
                <path d="M462.563,580.773C420.949,580.773 387.214,547.038 387.214,505.423C387.214,463.809 420.949,430.074 462.563,430.074C504.178,430.074 537.913,463.809 537.913,505.423C537.913,547.038 504.178,580.773 462.563,580.773ZM462.563,363.188C384.008,363.188 320.327,426.869 320.327,505.423C320.327,583.979 384.008,647.66 462.563,647.66C541.119,647.66 604.8,583.979 604.8,505.423C604.8,426.869 541.119,363.188 462.563,363.188Z"/>
            </clipPath>
            <g clip-path="url(#_clip1)">
                <path d="M591.118,584.036L462.563,505.424L439.31,654.307C499.702,663.826 559.596,635.53 591.118,584.036Z" style="fill:rgb(162,223,242);fill-rule:nonzero;"/>
                <path d="M591.253,583.859C591.6,583.292 592.053,582.511 592.035,582.541C619.186,537.06 620.283,480.573 595.372,434.206C549.879,458.04 576.97,443.561 462.563,505.424C591.33,584.166 571.332,572.023 591.253,583.859Z" style="fill:rgb(156,212,153);fill-rule:nonzero;"/>
                <path d="M321.248,453.353L462.563,505.424L595.129,433.741C533.12,319.065 366.208,332.818 321.248,453.353Z" style="fill:rgb(158,200,255);fill-rule:nonzero;"/>
                <path d="M439.31,654.307L462.563,505.424L321.248,453.353C287.644,543.445 347.288,639.8 439.31,654.307Z" style="fill:rgb(243,152,146);fill-rule:nonzero;"/>
                <path d="M312,478C314.632,478 317.05,478.674 319.142,479.848C320.364,473.097 322.065,466.396 324.273,459.796L401.006,488.07L401,488C400.843,484.501 402.161,481.231 404.335,478.64L396.652,475.809L327.765,450.425C333.417,436.667 340.934,424.155 349.959,413.1C346.71,411.91 344.053,409.606 342.299,406.668C332.555,418.592 324.454,432.104 318.387,446.97L318.304,446.939L316.564,451.605L314.81,456.309L314.893,456.34C312.462,463.56 310.599,470.894 309.271,478.283C310.168,478.103 311.081,478 312,478Z" style="fill:white;fill-rule:nonzero;"/>
                <path d="M589.48,576.989L588.527,576.429C583.275,573.318 580.993,571.966 570.525,565.583L472.583,505.69L553.888,461.726C565.827,455.302 570.721,452.743 582.847,446.403C585.809,444.854 589.202,443.08 593.233,440.97C614.422,483.901 613.036,535.269 589.48,576.989ZM445.034,650.062L466.347,513.6L521.813,547.523C544.175,561.202 556.968,569.026 565.022,573.939L584.17,585.648C553.626,631.973 499.958,656.816 445.034,650.062ZM601.823,435.806L601.906,435.761L599.527,431.363L599.378,431.099L597.434,427.48L597.359,427.519C582.359,401.456 560.971,380.671 535.246,367.269C510.053,354.144 481.414,348.27 452.411,350.286C418.312,352.654 387.246,365.437 362.568,386.116C365.468,387.879 367.69,390.62 368.923,393.858C392.038,374.469 421.147,362.48 453.104,360.261C508.877,356.384 560.213,383.685 588.281,431.76L549.129,452.931C541.046,457.28 529.746,463.395 510.828,473.631C498.708,480.189 483.457,488.441 463.924,499.004L462.717,499.657L458.78,497.249L458.565,498.622L430.993,488.462C431.021,491.969 429.59,495.222 427.307,497.761L456.991,508.699L435.156,648.503C393.917,640.545 358.235,615.184 336.704,578.328C323.835,556.299 317.161,531.792 316.86,507.111C315.3,507.675 313.66,508 312,508C310.168,508 308.449,507.657 306.862,507.063C307.152,533.51 314.283,559.772 328.069,583.372C351.124,622.836 389.393,649.955 433.613,658.383L433.6,658.469L438.526,659.246L443.478,660.026L443.491,659.939C449.887,660.738 456.295,661.142 462.688,661.142C485.172,661.142 507.442,656.226 528.15,646.584C554.663,634.241 576.936,614.942 592.847,590.622L592.948,590.681L593.927,589.078L595.521,586.463C595.766,586.063 596.059,585.565 596.226,585.281L596.331,585.105L596.408,584.969L597.994,582.379L597.922,582.335C623.468,537.431 624.924,481.984 601.823,435.806Z" style="fill:rgb(231,243,254);fill-rule:nonzero;"/>
            </g>
        </g>
        <path d="M1286.93,532.979L872.367,532.979C867.855,532.979 864.197,529.321 864.197,524.809L864.197,346.414C864.197,341.902 867.855,338.244 872.367,338.244L1286.93,338.244C1291.44,338.244 1295.1,341.902 1295.1,346.414L1295.1,524.809C1295.1,529.321 1291.44,532.979 1286.93,532.979Z" style="fill:rgb(158,200,255);fill-rule:nonzero;"/>
        <path d="M1276.72,523.839L882.579,523.839C878.934,523.839 875.979,520.885 875.979,517.24L875.979,396.006C875.979,392.361 878.934,389.406 882.579,389.406L1276.72,389.406C1280.36,389.406 1283.32,392.361 1283.32,396.006L1283.32,517.24C1283.32,520.885 1280.36,523.839 1276.72,523.839Z" style="fill:white;fill-rule:nonzero;"/>
        <path d="M895.185,367.768L885.619,367.768C883.599,367.768 881.961,366.13 881.961,364.11L881.961,356.232C881.961,354.212 883.599,352.575 885.619,352.575L895.185,352.575C897.205,352.575 898.842,354.212 898.842,356.232L898.842,364.11C898.842,366.13 897.205,367.768 895.185,367.768Z" style="fill:white;fill-rule:nonzero;"/>
        <path d="M925.877,367.768L916.312,367.768C914.292,367.768 912.654,366.13 912.654,364.11L912.654,356.232C912.654,354.212 914.292,352.575 916.312,352.575L925.877,352.575C927.897,352.575 929.535,354.212 929.535,356.232L929.535,364.11C929.535,366.13 927.897,367.768 925.877,367.768Z" style="fill:white;fill-rule:nonzero;"/>
        <path d="M956.57,367.768L947.004,367.768C944.984,367.768 943.347,366.13 943.347,364.11L943.347,356.232C943.347,354.212 944.984,352.575 947.004,352.575L956.57,352.575C958.59,352.575 960.228,354.212 960.228,356.232L960.228,364.11C960.228,366.13 958.59,367.768 956.57,367.768Z" style="fill:white;fill-rule:nonzero;"/>
        <path d="M1266.74,418.871L1051.28,418.871C1047.74,418.871 1044.84,415.971 1044.84,412.425C1044.84,408.88 1047.74,405.98 1051.28,405.98L1266.74,405.98C1270.29,405.98 1273.19,408.88 1273.19,412.425C1273.19,415.971 1270.29,418.871 1266.74,418.871Z" style="fill:rgb(158,200,255);fill-rule:nonzero;"/>
        <path d="M1104.69,518.315L889.226,518.315C885.68,518.315 882.78,515.415 882.78,511.869C882.78,508.324 885.68,505.424 889.226,505.424L1104.69,505.424C1108.23,505.424 1111.13,508.324 1111.13,511.869C1111.13,515.415 1108.23,518.315 1104.69,518.315Z" style="fill:rgb(158,200,255);fill-rule:nonzero;"/>
        <path d="M1144.38,518.315L1122.08,518.315C1120.87,518.315 1119.88,517.323 1119.88,516.111L1119.88,507.628C1119.88,506.416 1120.87,505.424 1122.08,505.424L1144.38,505.424C1145.59,505.424 1146.58,506.416 1146.58,507.628L1146.58,516.111C1146.58,517.323 1145.59,518.315 1144.38,518.315Z" style="fill:rgb(158,200,255);fill-rule:nonzero;"/>
        <path d="M1177.99,518.315L1155.69,518.315C1154.48,518.315 1153.49,517.323 1153.49,516.111L1153.49,507.628C1153.49,506.416 1154.48,505.424 1155.69,505.424L1177.99,505.424C1179.2,505.424 1180.19,506.416 1180.19,507.628L1180.19,516.111C1180.19,517.323 1179.2,518.315 1177.99,518.315Z" style="fill:rgb(158,200,255);fill-rule:nonzero;"/>
        <path d="M1268.82,446.955L912.015,446.955C909.609,446.955 907.641,444.986 907.641,442.581C907.641,440.175 909.609,438.207 912.015,438.207L1268.82,438.207C1271.22,438.207 1273.19,440.175 1273.19,442.581C1273.19,444.986 1271.22,446.955 1268.82,446.955Z" style="fill:rgb(158,200,255);fill-rule:nonzero;"/>
        <path d="M1268.82,465.831L912.015,465.831C909.609,465.831 907.641,463.862 907.641,461.457C907.641,459.051 909.609,457.083 912.015,457.083L1268.82,457.083C1271.22,457.083 1273.19,459.051 1273.19,461.457C1273.19,463.862 1271.22,465.831 1268.82,465.831Z" style="fill:rgb(158,200,255);fill-rule:nonzero;"/>
        <path d="M2345.23,408.98L2161.23,408.98L2161.23,301.736L2299.61,301.736C2317.43,319.552 2327.42,329.541 2345.23,347.358L2345.23,408.98Z" style="fill:rgb(255,184,179);fill-rule:nonzero;"/>
        <path d="M2296.23,301.736L2296.23,358.98L2345.23,358.98L2345.23,347.98L2299.3,302.047L2296.23,301.736Z" style="fill:rgb(243,152,146);fill-rule:nonzero;"/>
        <path d="M2299.61,301.736L2299.61,347.98L2345.23,347.98L2299.61,301.736Z" style="fill:rgb(255,184,179);fill-rule:nonzero;"/>
        <path d="M2263.98,341.98L2181.98,341.98C2180.2,341.98 2178.73,340.517 2178.73,338.73C2178.73,336.942 2180.2,335.48 2181.98,335.48L2263.98,335.48C2265.77,335.48 2267.23,336.942 2267.23,338.73C2267.23,340.517 2265.77,341.98 2263.98,341.98Z" style="fill:white;fill-rule:nonzero;"/>
        <path d="M2263.98,358.608L2181.98,358.608C2180.2,358.608 2178.73,357.145 2178.73,355.358C2178.73,353.57 2180.2,352.108 2181.98,352.108L2263.98,352.108C2265.77,352.108 2267.23,353.57 2267.23,355.358C2267.23,357.145 2265.77,358.608 2263.98,358.608Z" style="fill:white;fill-rule:nonzero;"/>
        <path d="M2263.98,376.108L2181.98,376.108C2180.2,376.108 2178.73,374.645 2178.73,372.858C2178.73,371.07 2180.2,369.608 2181.98,369.608L2263.98,369.608C2265.77,369.608 2267.23,371.07 2267.23,372.858C2267.23,374.645 2265.77,376.108 2263.98,376.108Z" style="fill:white;fill-rule:nonzero;"/>
        <path d="M2253.23,309.98C2253.23,313.018 2250.77,315.48 2247.73,315.48C2244.7,315.48 2242.23,313.018 2242.23,309.98C2242.23,306.942 2244.7,304.48 2247.73,304.48C2250.77,304.48 2253.23,306.942 2253.23,309.98Z" style="fill:rgb(62,107,171);fill-rule:nonzero;"/>
        <path d="M1527.3,445.423L1412.48,423.239L1439.23,284.795L1554.05,306.98L1527.3,445.423Z" style="fill:rgb(250,232,182);fill-rule:nonzero;"/>
        <path d="M1529.75,366.83L1468.88,355.069C1467.26,354.756 1466.19,353.174 1466.5,351.554C1466.81,349.934 1468.4,348.865 1470.02,349.178L1530.89,360.939C1532.51,361.252 1533.58,362.834 1533.27,364.454C1532.95,366.074 1531.37,367.143 1529.75,366.83Z" style="fill:rgb(158,200,255);fill-rule:nonzero;"/>
        <path d="M1526.81,382.049L1465.94,370.287C1464.32,369.974 1463.25,368.393 1463.56,366.772C1463.87,365.153 1465.45,364.083 1467.07,364.396L1527.95,376.158C1529.57,376.471 1530.64,378.052 1530.33,379.672C1530.01,381.292 1528.43,382.362 1526.81,382.049Z" style="fill:rgb(158,200,255);fill-rule:nonzero;"/>
        <path d="M1523.79,397.686L1462.92,385.924C1461.29,385.611 1460.23,384.03 1460.54,382.41C1460.85,380.79 1462.43,379.72 1464.05,380.033L1524.93,391.795C1526.55,392.108 1527.62,393.689 1527.3,395.31C1526.99,396.93 1525.41,397.999 1523.79,397.686Z" style="fill:rgb(158,200,255);fill-rule:nonzero;"/>
        <path d="M1488.54,303.36C1488.02,306.072 1485.4,307.845 1482.69,307.321C1479.97,306.797 1478.2,304.175 1478.72,301.463C1479.25,298.752 1481.87,296.979 1484.58,297.503C1487.29,298.027 1489.07,300.649 1488.54,303.36Z" style="fill:rgb(62,107,171);fill-rule:nonzero;"/>
        <path d="M2430.15,559.031L2252.46,540.312L2264.19,428.928L2405.08,443.771C2417.94,459.657 2425.15,468.564 2438.01,484.451L2430.15,559.031Z" style="fill:rgb(158,200,255);fill-rule:nonzero;"/>
        <path d="M2402.56,451.718L2270.29,437.785L2260.4,531.764L2424.83,549.086L2430.63,494.057L2398.46,490.668L2402.56,451.718Z" style="fill:white;fill-rule:nonzero;"/>
        <path d="M2384.63,485.859L2298.95,476.834C2296.99,476.627 2295.55,474.852 2295.76,472.888C2295.96,470.925 2297.74,469.488 2299.7,469.695L2385.38,478.721C2387.35,478.927 2388.78,480.703 2388.58,482.666C2388.37,484.629 2386.6,486.066 2384.63,485.859Z" style="fill:rgb(158,200,255);fill-rule:nonzero;"/>
        <path d="M2382.64,504.742L2296.96,495.716C2295,495.509 2293.56,493.733 2293.77,491.771C2293.98,489.807 2295.75,488.37 2297.71,488.577L2383.4,497.603C2385.36,497.81 2386.79,499.585 2386.59,501.548C2386.38,503.511 2384.61,504.949 2382.64,504.742Z" style="fill:rgb(158,200,255);fill-rule:nonzero;"/>
        <path d="M2380.57,524.455L2294.89,515.429C2292.92,515.223 2291.49,513.447 2291.69,511.484C2291.9,509.521 2293.67,508.083 2295.64,508.29L2381.32,517.316C2383.28,517.523 2384.72,519.298 2384.51,521.262C2384.3,523.225 2382.53,524.662 2380.57,524.455Z" style="fill:rgb(158,200,255);fill-rule:nonzero;"/>
        <path d="M2336.18,454.646C2336.18,457.684 2333.72,460.146 2330.68,460.146C2327.65,460.146 2325.18,457.684 2325.18,454.646C2325.18,451.609 2327.65,449.146 2330.68,449.146C2333.72,449.146 2336.18,451.609 2336.18,454.646Z" style="fill:rgb(62,107,171);fill-rule:nonzero;"/>
        <path d="M3313.06,367.768C3313.06,401.649 3285.59,429.116 3251.71,429.116C3217.83,429.116 3190.36,401.649 3190.36,367.768C3190.36,333.886 3217.83,306.419 3251.71,306.419C3285.59,306.419 3313.06,333.886 3313.06,367.768Z" style="fill:rgb(156,212,153);fill-rule:nonzero;"/>
        <path d="M3245.62,388.766L3245.51,388.764C3244.68,388.733 3243.91,388.366 3243.37,387.748L3226.7,368.813C3225.61,367.568 3225.73,365.673 3226.97,364.579C3228.22,363.484 3230.11,363.605 3231.21,364.849L3245.78,381.41L3279.12,348.781C3280.3,347.622 3282.2,347.642 3283.36,348.827C3284.52,350.011 3284.5,351.91 3283.32,353.069L3247.72,387.91C3247.16,388.46 3246.4,388.766 3245.62,388.766Z" style="fill:white;fill-rule:nonzero;"/>
        <path d="M487.521,937.268L841.221,937.268C850.287,937.268 857.705,929.851 857.705,920.785L857.705,794.415C857.705,785.349 850.287,777.932 841.221,777.932L487.521,777.932C478.456,777.932 471.039,785.349 471.039,794.415L471.039,920.785C471.039,929.851 478.456,937.268 487.521,937.268Z" style="fill:rgb(158,200,255);fill-rule:nonzero;"/>
        <path d="M811.002,913.23L811.002,1001.14L709.7,899.838C709.7,899.838 808.942,913.23 811.002,913.23Z" style="fill:rgb(158,200,255);fill-rule:nonzero;"/>
        <path d="M505.013,921.472L823.73,921.472C831.416,921.472 837.705,915.184 837.705,907.498L837.705,807.703C837.705,800.017 831.416,793.728 823.73,793.728L505.013,793.728C497.327,793.728 491.039,800.017 491.039,807.703L491.039,907.498C491.039,915.184 497.327,921.472 505.013,921.472Z" style="fill:white;fill-rule:nonzero;"/>
        <path d="M648.918,825.321L805.508,825.321C809.285,825.321 812.376,822.23 812.376,818.453C812.376,814.675 809.285,811.584 805.508,811.584L648.918,811.584C645.141,811.584 642.051,814.675 642.051,818.453C642.051,822.23 645.141,825.321 648.918,825.321Z" style="fill:rgb(158,200,255);fill-rule:nonzero;"/>
        <path d="M518.125,851.58L808.558,851.58C810.658,851.58 812.376,849.861 812.376,847.761L812.376,847.683C812.376,845.583 810.658,843.864 808.558,843.864L518.125,843.864C516.025,843.864 514.307,845.583 514.307,847.683L514.307,847.761C514.307,849.861 516.025,851.58 518.125,851.58Z" style="fill:rgb(158,200,255);fill-rule:nonzero;"/>
        <path d="M518.125,866.528L808.558,866.528C810.658,866.528 812.376,864.81 812.376,862.71L812.376,862.631C812.376,860.531 810.658,858.813 808.558,858.813L518.125,858.813C516.025,858.813 514.307,860.531 514.307,862.631L514.307,862.71C514.307,864.81 516.025,866.528 518.125,866.528Z" style="fill:rgb(158,200,255);fill-rule:nonzero;"/>
        <path d="M3103.49,825.942L3122.03,825.942C3125.95,825.942 3129.12,822.769 3129.12,818.854L3129.12,803.588C3129.12,799.673 3125.95,796.5 3122.03,796.5L3103.49,796.5C3099.58,796.5 3096.41,799.673 3096.41,803.588L3096.41,818.854C3096.41,822.769 3099.58,825.942 3103.49,825.942Z" style="fill:rgb(158,200,255);fill-rule:nonzero;"/>
        <path d="M3044.01,825.942L3062.55,825.942C3066.47,825.942 3069.64,822.769 3069.64,818.854L3069.64,803.588C3069.64,799.673 3066.47,796.5 3062.55,796.5L3044.01,796.5C3040.1,796.5 3036.93,799.673 3036.93,803.588L3036.93,818.854C3036.93,822.769 3040.1,825.942 3044.01,825.942Z" style="fill:rgb(158,200,255);fill-rule:nonzero;"/>
        <path d="M2984.53,825.942L3003.07,825.942C3006.99,825.942 3010.16,822.769 3010.16,818.854L3010.16,803.588C3010.16,799.673 3006.99,796.5 3003.07,796.5L2984.53,796.5C2980.62,796.5 2977.45,799.673 2977.45,803.588L2977.45,818.854C2977.45,822.769 2980.62,825.942 2984.53,825.942Z" style="fill:rgb(158,200,255);fill-rule:nonzero;"/>
    </g>
</svg>
