<svg xmlns="http://www.w3.org/2000/svg" xmlns:xlink="http://www.w3.org/1999/xlink" viewBox="0 0 660 460"><defs><style>.a,.n,.o,.p,.z{fill:none;}.b{clip-path:url(#a);}.c{clip-path:url(#b);}.d,.e{opacity:0.38;}.aa,.d,.e,.q,.r,.s{isolation:isolate;}.d{fill:url(#c);}.e{fill:url(#d);}.f{fill:#62b4f8;}.g{fill:#fff;}.h{fill:#e0e0e0;}.i{fill:#ff2953;}.j{fill:#ffe500;}.k{fill:#a5dc00;}.l{fill:#f0f2f5;}.m{fill:#4b4b4b;}.n{stroke:#82d67c;}.n,.o,.p{stroke-linecap:round;stroke-linejoin:round;stroke-width:1.88px;}.o{stroke:#e2e2e2;}.p{stroke:#57b1f5;}.q,.r,.s{opacity:0.3;}.q{fill:url(#e);}.r{fill:url(#f);}.s{fill:url(#g);}.t{fill:#fcd2b1;}.u{fill:#01384f;}.v{fill:#ffe3ca;}.w{fill:#0b4870;}.x{fill:#ffbe55;}.y{fill:#368bee;}.z{stroke:#fff;stroke-width:0.94px;}.an,.z{stroke-miterlimit:10;}.aa,.ac{opacity:0.2;}.ab{fill:#e3e5e8;}.ad{fill:#a1b8ff;}.ae,.an{fill:#4eadff;}.af{fill:#2173b9;}.ag{fill:#facbb6;}.ah{fill:#f45656;}.ai{fill:#4523ad;}.aj{fill:url(#h);}.ak{fill:#2c0997;}.al{fill:#e2f3ff;}.am{fill:#bcbfc3;}.an{stroke:#f0f2f5;stroke-width:2px;}</style><clipPath id="a"><rect class="a" width="660" height="460"/></clipPath><clipPath id="b"><rect class="a" x="27.5" width="632" height="392.9"/></clipPath><linearGradient id="c" x1="-3748.62" y1="2002.89" x2="-3747.62" y2="2002.89" gradientTransform="matrix(448.01, 0, 0, -392.84, 1679444.8, 787013.51)" gradientUnits="userSpaceOnUse"><stop offset="0" stop-color="#0585ec" stop-opacity="0.32"/><stop offset="0.87" stop-color="#f6fbfe" stop-opacity="0.32"/><stop offset="1" stop-color="#fff" stop-opacity="0.32"/></linearGradient><linearGradient id="d" x1="-3748.62" y1="2002.89" x2="-3747.62" y2="2002.89" gradientTransform="matrix(448.01, 0, 0, -392.84, 1679912.8, 787013.51)" xlink:href="#c"/><linearGradient id="e" x1="-3667.74" y1="1881.26" x2="-3666.73" y2="1881.26" gradientTransform="matrix(42.27, 0, 0, -23.2, 155621.64, 43893.66)" gradientUnits="userSpaceOnUse"><stop offset="0"/><stop offset="1" stop-opacity="0"/></linearGradient><linearGradient id="f" x1="-3249.02" y1="1616.37" x2="-3249.01" y2="1616.35" gradientTransform="matrix(8.29, 0, 0, -10.42, 27901.15, 18122.96)" xlink:href="#e"/><linearGradient id="g" x1="-3685.48" y1="1845.31" x2="-3684.48" y2="1845.31" gradientTransform="matrix(52.49, 0, 0, -18.12, 193950.75, 33677.63)" xlink:href="#e"/><linearGradient id="h" x1="-3573.22" y1="1785.61" x2="-3572.91" y2="1784.6" gradientTransform="matrix(27.03, 0, 0, -37.01, 98375.19, 71575.02)" gradientUnits="userSpaceOnUse"><stop offset="0" stop-color="#ffd1ae"/><stop offset="1" stop-color="#f9ac78"/></linearGradient></defs><title>Artboard 2</title><g class="b"><g class="c"><path class="d" d="M471.1,392.8v-4.4h4.4v4.4Zm-17.7,0v-4.4h4.4v4.4Zm-17.8,0v-4.4H440v4.4Zm-17.7,0v-4.4h4.4v4.4Zm-17.8,0v-4.4h4.4v4.4Zm-17.7,0v-4.4h4.4v4.4Zm-17.7,0v-4.4h4.4v4.4Zm-17.8,0v-4.4h4.4v4.4Zm-17.7,0v-4.4h4.4v4.4Zm-17.8,0v-4.4h4.4v4.4Zm-17.7,0v-4.4h4.4v4.4Zm-17.8,0v-4.4h4.4v4.4Zm-17.7,0v-4.4h4.4v4.4Zm-17.7,0v-4.4h4.4v4.4Zm-17.8,0v-4.4h4.4v4.4Zm-17.7,0v-4.4h4.4v4.4Zm-17.8,0v-4.4h4.4v4.4Zm-17.7,0v-4.4h4.4v4.4Zm-17.8,0v-4.4h4.4v4.4Zm-17.7,0v-4.4h4.4v4.4Zm-17.7,0v-4.4h4.4v4.4Zm-17.8,0v-4.4H103v4.4Zm-17.7,0v-4.4h4.4v4.4Zm-17.8,0v-4.4h4.4v4.4Zm-17.7,0v-4.4h4.4v4.4Zm-17.8,0v-4.4H32v4.4Zm443.6-17.6v-4.4h4.4v4.4Zm-17.7,0v-4.4h4.4v4.4Zm-17.8,0v-4.4H440v4.4Zm-17.7,0v-4.4h4.4v4.4Zm-17.8,0v-4.4h4.4v4.4Zm-17.7,0v-4.4h4.4v4.4Zm-17.7,0v-4.4h4.4v4.4Zm-17.8,0v-4.4h4.4v4.4Zm-17.7,0v-4.4h4.4v4.4Zm-17.8,0v-4.4h4.4v4.4Zm-17.7,0v-4.4h4.4v4.4Zm-17.8,0v-4.4h4.4v4.4Zm-17.7,0v-4.4h4.4v4.4Zm-17.7,0v-4.4h4.4v4.4Zm-17.8,0v-4.4h4.4v4.4Zm-17.7,0v-4.4h4.4v4.4Zm-17.8,0v-4.4h4.4v4.4Zm-17.7,0v-4.4h4.4v4.4Zm-17.8,0v-4.4h4.4v4.4Zm-17.7,0v-4.4h4.4v4.4Zm-17.7,0v-4.4h4.4v4.4Zm-17.8,0v-4.4h4.4v4.4Zm-17.7,0v-4.4h4.4v4.4Zm-17.8,0v-4.4h4.4v4.4Zm-17.7,0v-4.4h4.4v4.4Zm-17.8,0v-4.4H32v4.4Zm443.6-17.7v-4.4h4.4v4.4Zm-17.7,0v-4.4h4.4v4.4Zm-17.8,0v-4.4H440v4.4Zm-17.7,0v-4.4h4.4v4.4Zm-17.8,0v-4.4h4.4v4.4Zm-17.7,0v-4.4h4.4v4.4Zm-17.7,0v-4.4h4.4v4.4Zm-17.8,0v-4.4h4.4v4.4Zm-17.7,0v-4.4h4.4v4.4Zm-17.8,0v-4.4h4.4v4.4Zm-17.7,0v-4.4h4.4v4.4Zm-17.8,0v-4.4h4.4v4.4Zm-17.7,0v-4.4h4.4v4.4Zm-17.7,0v-4.4h4.4v4.4Zm-17.8,0v-4.4h4.4v4.4Zm-17.7,0v-4.4h4.4v4.4Zm-17.8,0v-4.4h4.4v4.4Zm-17.7,0v-4.4h4.4v4.4Zm-17.8,0v-4.4h4.4v4.4Zm-17.7,0v-4.4h4.4v4.4Zm-17.7,0v-4.4h4.4v4.4Zm-17.8,0v-4.4h4.4v4.4Zm-17.7,0v-4.4h4.4v4.4Zm-17.8,0v-4.4h4.4v4.4Zm-17.7,0v-4.4h4.4v4.4Zm-17.8,0v-4.4H32v4.4Zm443.6-17.6v-4.4h4.4v4.4Zm-17.7,0v-4.4h4.4v4.4Zm-17.8,0v-4.4H440v4.4Zm-17.7,0v-4.4h4.4v4.4Zm-17.8,0v-4.4h4.4v4.4Zm-17.7,0v-4.4h4.4v4.4Zm-17.7,0v-4.4h4.4v4.4Zm-17.8,0v-4.4h4.4v4.4Zm-17.7,0v-4.4h4.4v4.4Zm-17.8,0v-4.4h4.4v4.4Zm-17.7,0v-4.4h4.4v4.4Zm-17.8,0v-4.4h4.4v4.4Zm-17.7,0v-4.4h4.4v4.4Zm-17.7,0v-4.4h4.4v4.4Zm-17.8,0v-4.4h4.4v4.4Zm-17.7,0v-4.4h4.4v4.4Zm-17.8,0v-4.4h4.4v4.4Zm-17.7,0v-4.4h4.4v4.4Zm-17.8,0v-4.4h4.4v4.4Zm-17.7,0v-4.4h4.4v4.4Zm-17.7,0v-4.4h4.4v4.4Zm-17.8,0v-4.4h4.4v4.4Zm-17.7,0v-4.4h4.4v4.4Zm-17.8,0v-4.4h4.4v4.4Zm-17.7,0v-4.4h4.4v4.4Zm-17.8,0v-4.4H32v4.4Zm443.6-17.7v-4.4h4.4v4.4Zm-17.7,0v-4.4h4.4v4.4Zm-17.8,0v-4.4H440v4.4Zm-17.7,0v-4.4h4.4v4.4Zm-17.8,0v-4.4h4.4v4.4Zm-17.7,0v-4.4h4.4v4.4Zm-17.7,0v-4.4h4.4v4.4Zm-17.8,0v-4.4h4.4v4.4Zm-17.7,0v-4.4h4.4v4.4Zm-17.8,0v-4.4h4.4v4.4Zm-17.7,0v-4.4h4.4v4.4Zm-17.8,0v-4.4h4.4v4.4Zm-17.7,0v-4.4h4.4v4.4Zm-17.7,0v-4.4h4.4v4.4Zm-17.8,0v-4.4h4.4v4.4Zm-17.7,0v-4.4h4.4v4.4Zm-17.8,0v-4.4h4.4v4.4Zm-17.7,0v-4.4h4.4v4.4Zm-17.8,0v-4.4h4.4v4.4Zm-17.7,0v-4.4h4.4v4.4Zm-17.7,0v-4.4h4.4v4.4Zm-17.8,0v-4.4h4.4v4.4Zm-17.7,0v-4.4h4.4v4.4Zm-17.8,0v-4.4h4.4v4.4Zm-17.7,0v-4.4h4.4v4.4Zm-17.8,0v-4.4H32v4.4Zm443.6-17.6v-4.4h4.4v4.4Zm-17.7,0v-4.4h4.4v4.4Zm-17.8,0v-4.4H440v4.4Zm-17.7,0v-4.4h4.4v4.4Zm-17.8,0v-4.4h4.4v4.4Zm-17.7,0v-4.4h4.4v4.4Zm-17.7,0v-4.4h4.4v4.4Zm-17.8,0v-4.4h4.4v4.4Zm-17.7,0v-4.4h4.4v4.4Zm-17.8,0v-4.4h4.4v4.4Zm-17.7,0v-4.4h4.4v4.4Zm-17.8,0v-4.4h4.4v4.4Zm-17.7,0v-4.4h4.4v4.4Zm-17.7,0v-4.4h4.4v4.4Zm-17.8,0v-4.4h4.4v4.4Zm-17.7,0v-4.4h4.4v4.4Zm-17.8,0v-4.4h4.4v4.4Zm-17.7,0v-4.4h4.4v4.4Zm-17.8,0v-4.4h4.4v4.4Zm-17.7,0v-4.4h4.4v4.4Zm-17.7,0v-4.4h4.4v4.4Zm-17.8,0v-4.4h4.4v4.4Zm-17.7,0v-4.4h4.4v4.4Zm-17.8,0v-4.4h4.4v4.4Zm-17.7,0v-4.4h4.4v4.4Zm-17.8,0v-4.4H32v4.4Zm443.6-17.7v-4.4h4.4v4.4Zm-17.7,0v-4.4h4.4v4.4Zm-17.8,0v-4.4H440v4.4Zm-17.7,0v-4.4h4.4v4.4Zm-17.8,0v-4.4h4.4v4.4Zm-17.7,0v-4.4h4.4v4.4Zm-17.7,0v-4.4h4.4v4.4Zm-17.8,0v-4.4h4.4v4.4Zm-17.7,0v-4.4h4.4v4.4Zm-17.8,0v-4.4h4.4v4.4Zm-17.7,0v-4.4h4.4v4.4Zm-17.8,0v-4.4h4.4v4.4Zm-17.7,0v-4.4h4.4v4.4Zm-17.7,0v-4.4h4.4v4.4Zm-17.8,0v-4.4h4.4v4.4Zm-17.7,0v-4.4h4.4v4.4Zm-17.8,0v-4.4h4.4v4.4Zm-17.7,0v-4.4h4.4v4.4Zm-17.8,0v-4.4h4.4v4.4Zm-17.7,0v-4.4h4.4v4.4Zm-17.7,0v-4.4h4.4v4.4Zm-17.8,0v-4.4h4.4v4.4Zm-17.7,0v-4.4h4.4v4.4Zm-17.8,0v-4.4h4.4v4.4Zm-17.7,0v-4.4h4.4v4.4Zm-17.8,0v-4.4H32v4.4Zm443.6-17.6v-4.4h4.4v4.4Zm-17.7,0v-4.4h4.4v4.4Zm-17.8,0v-4.4H440v4.4Zm-17.7,0v-4.4h4.4v4.4Zm-17.8,0v-4.4h4.4v4.4Zm-17.7,0v-4.4h4.4v4.4Zm-17.7,0v-4.4h4.4v4.4Zm-17.8,0v-4.4h4.4v4.4Zm-17.7,0v-4.4h4.4v4.4Zm-17.8,0v-4.4h4.4v4.4Zm-17.7,0v-4.4h4.4v4.4Zm-17.8,0v-4.4h4.4v4.4Zm-17.7,0v-4.4h4.4v4.4Zm-17.7,0v-4.4h4.4v4.4Zm-17.8,0v-4.4h4.4v4.4Zm-17.7,0v-4.4h4.4v4.4Zm-17.8,0v-4.4h4.4v4.4Zm-17.7,0v-4.4h4.4v4.4Zm-17.8,0v-4.4h4.4v4.4Zm-17.7,0v-4.4h4.4v4.4Zm-17.7,0v-4.4h4.4v4.4Zm-17.8,0v-4.4h4.4v4.4Zm-17.7,0v-4.4h4.4v4.4Zm-17.8,0v-4.4h4.4v4.4Zm-17.7,0v-4.4h4.4v4.4Zm-17.8,0v-4.4H32v4.4Zm443.6-17.7v-4.4h4.4v4.4Zm-17.7,0v-4.4h4.4v4.4Zm-17.8,0v-4.4H440v4.4Zm-17.7,0v-4.4h4.4v4.4Zm-17.8,0v-4.4h4.4v4.4Zm-17.7,0v-4.4h4.4v4.4Zm-17.7,0v-4.4h4.4v4.4Zm-17.8,0v-4.4h4.4v4.4Zm-17.7,0v-4.4h4.4v4.4Zm-17.8,0v-4.4h4.4v4.4Zm-17.7,0v-4.4h4.4v4.4Zm-17.8,0v-4.4h4.4v4.4Zm-17.7,0v-4.4h4.4v4.4Zm-17.7,0v-4.4h4.4v4.4Zm-17.8,0v-4.4h4.4v4.4Zm-17.7,0v-4.4h4.4v4.4Zm-17.8,0v-4.4h4.4v4.4Zm-17.7,0v-4.4h4.4v4.4Zm-17.8,0v-4.4h4.4v4.4Zm-17.7,0v-4.4h4.4v4.4Zm-17.7,0v-4.4h4.4v4.4Zm-17.8,0v-4.4h4.4v4.4Zm-17.7,0v-4.4h4.4v4.4Zm-17.8,0v-4.4h4.4v4.4Zm-17.7,0v-4.4h4.4v4.4Zm-17.8,0v-4.4H32v4.4Zm443.6-17.7v-4.4h4.4v4.4Zm-17.7,0v-4.4h4.4v4.4Zm-17.8,0v-4.4H440v4.4Zm-17.7,0v-4.4h4.4v4.4Zm-17.8,0v-4.4h4.4v4.4Zm-17.7,0v-4.4h4.4v4.4Zm-17.7,0v-4.4h4.4v4.4Zm-17.8,0v-4.4h4.4v4.4Zm-17.7,0v-4.4h4.4v4.4Zm-17.8,0v-4.4h4.4v4.4Zm-17.7,0v-4.4h4.4v4.4Zm-17.8,0v-4.4h4.4v4.4Zm-17.7,0v-4.4h4.4v4.4Zm-17.7,0v-4.4h4.4v4.4Zm-17.8,0v-4.4h4.4v4.4Zm-17.7,0v-4.4h4.4v4.4Zm-17.8,0v-4.4h4.4v4.4Zm-17.7,0v-4.4h4.4v4.4Zm-17.8,0v-4.4h4.4v4.4Zm-17.7,0v-4.4h4.4v4.4Zm-17.7,0v-4.4h4.4v4.4Zm-17.8,0v-4.4h4.4v4.4Zm-17.7,0v-4.4h4.4v4.4Zm-17.8,0v-4.4h4.4v4.4Zm-17.7,0v-4.4h4.4v4.4Zm-17.8,0v-4.4H32v4.4Zm443.6-17.6v-4.4h4.4v4.4Zm-17.7,0v-4.4h4.4v4.4Zm-17.8,0v-4.4H440v4.4Zm-17.7,0v-4.4h4.4v4.4Zm-17.8,0v-4.4h4.4v4.4Zm-17.7,0v-4.4h4.4v4.4Zm-17.7,0v-4.4h4.4v4.4Zm-17.8,0v-4.4h4.4v4.4Zm-17.7,0v-4.4h4.4v4.4Zm-17.8,0v-4.4h4.4v4.4Zm-17.7,0v-4.4h4.4v4.4Zm-17.8,0v-4.4h4.4v4.4Zm-17.7,0v-4.4h4.4v4.4Zm-17.7,0v-4.4h4.4v4.4Zm-17.8,0v-4.4h4.4v4.4Zm-17.7,0v-4.4h4.4v4.4Zm-17.8,0v-4.4h4.4v4.4Zm-17.7,0v-4.4h4.4v4.4Zm-17.8,0v-4.4h4.4v4.4Zm-17.7,0v-4.4h4.4v4.4Zm-17.7,0v-4.4h4.4v4.4Zm-17.8,0v-4.4h4.4v4.4Zm-17.7,0v-4.4h4.4v4.4Zm-17.8,0v-4.4h4.4v4.4Zm-17.7,0v-4.4h4.4v4.4Zm-17.8,0v-4.4H32v4.4Zm443.6-17.7v-4.4h4.4v4.4Zm-17.7,0v-4.4h4.4v4.4Zm-17.8,0v-4.4H440v4.4Zm-17.7,0v-4.4h4.4v4.4Zm-17.8,0v-4.4h4.4v4.4Zm-17.7,0v-4.4h4.4v4.4Zm-17.7,0v-4.4h4.4v4.4Zm-17.8,0v-4.4h4.4v4.4Zm-17.7,0v-4.4h4.4v4.4Zm-17.8,0v-4.4h4.4v4.4Zm-17.7,0v-4.4h4.4v4.4Zm-17.8,0v-4.4h4.4v4.4Zm-17.7,0v-4.4h4.4v4.4Zm-17.7,0v-4.4h4.4v4.4Zm-17.8,0v-4.4h4.4v4.4Zm-17.7,0v-4.4h4.4v4.4Zm-17.8,0v-4.4h4.4v4.4Zm-17.7,0v-4.4h4.4v4.4Zm-17.8,0v-4.4h4.4v4.4Zm-17.7,0v-4.4h4.4v4.4Zm-17.7,0v-4.4h4.4v4.4Zm-17.8,0v-4.4h4.4v4.4Zm-17.7,0v-4.4h4.4v4.4Zm-17.8,0v-4.4h4.4v4.4Zm-17.7,0v-4.4h4.4v4.4Zm-17.8,0v-4.4H32v4.4ZM471.1,181v-4.4h4.4V181Zm-17.7,0v-4.4h4.4V181Zm-17.8,0v-4.4H440V181Zm-17.7,0v-4.4h4.4V181Zm-17.8,0v-4.4h4.4V181Zm-17.7,0v-4.4h4.4V181Zm-17.7,0v-4.4h4.4V181Zm-17.8,0v-4.4h4.4V181Zm-17.7,0v-4.4h4.4V181Zm-17.8,0v-4.4h4.4V181Zm-17.7,0v-4.4h4.4V181Zm-17.8,0v-4.4h4.4V181Zm-17.7,0v-4.4h4.4V181Zm-17.7,0v-4.4h4.4V181Zm-17.8,0v-4.4h4.4V181ZM205,181v-4.4h4.4V181Zm-17.7,0v-4.4h4.4V181Zm-17.8,0v-4.4h4.4V181Zm-17.7,0v-4.4h4.4V181ZM134,181v-4.4h4.4V181Zm-17.7,0v-4.4h4.4V181Zm-17.8,0v-4.4h4.4V181Zm-17.7,0v-4.4h4.4V181ZM63,181v-4.4h4.4V181Zm-17.7,0v-4.4h4.4V181Zm-17.8,0v-4.4H32V181Zm443.6-17.7v-4.4h4.4v4.4Zm-17.7,0v-4.4h4.4v4.4Zm-17.8,0v-4.4H440v4.4Zm-17.7,0v-4.4h4.4v4.4Zm-17.8,0v-4.4h4.4v4.4Zm-17.7,0v-4.4h4.4v4.4Zm-17.8,0v-4.4H369v4.4Zm-17.7,0v-4.4h4.4v4.4Zm-17.7,0v-4.4h4.4v4.4Zm-17.8,0v-4.4h4.4v4.4Zm-17.7,0v-4.4h4.4v4.4Zm-17.8,0v-4.4h4.4v4.4Zm-17.7,0v-4.4h4.4v4.4Zm-17.8,0v-4.4h4.4v4.4Zm-17.7,0v-4.4h4.4v4.4Zm-17.7,0v-4.4h4.4v4.4Zm-17.8,0v-4.4h4.4v4.4Zm-17.7,0v-4.4h4.4v4.4Zm-17.8,0v-4.4h4.4v4.4Zm-17.7,0v-4.4h4.4v4.4Zm-17.7,0v-4.4h4.4v4.4Zm-17.8,0v-4.4h4.4v4.4Zm-17.7,0v-4.4h4.4v4.4Zm-17.8,0v-4.4h4.4v4.4Zm-17.7,0v-4.4h4.4v4.4Zm-17.8,0v-4.4H32v4.4Zm443.6-17.6v-4.4h4.4v4.4Zm-17.7,0v-4.4h4.4v4.4Zm-17.8,0v-4.4H440v4.4Zm-17.7,0v-4.4h4.4v4.4Zm-17.8,0v-4.4h4.4v4.4Zm-17.7,0v-4.4h4.4v4.4Zm-17.8,0v-4.4H369v4.4Zm-17.7,0v-4.4h4.4v4.4Zm-17.7,0v-4.4h4.4v4.4Zm-17.8,0v-4.4h4.4v4.4Zm-17.7,0v-4.4h4.4v4.4Zm-17.8,0v-4.4h4.4v4.4Zm-17.7,0v-4.4h4.4v4.4Zm-17.8,0v-4.4h4.4v4.4Zm-17.7,0v-4.4h4.4v4.4Zm-17.7,0v-4.4h4.4v4.4Zm-17.8,0v-4.4h4.4v4.4Zm-17.7,0v-4.4h4.4v4.4Zm-17.8,0v-4.4h4.4v4.4Zm-17.7,0v-4.4h4.4v4.4Zm-17.7,0v-4.4h4.4v4.4Zm-17.8,0v-4.4h4.4v4.4Zm-17.7,0v-4.4h4.4v4.4Zm-17.8,0v-4.4h4.4v4.4Zm-17.7,0v-4.4h4.4v4.4Zm-17.8,0v-4.4H32v4.4ZM471.1,128v-4.4h4.4V128Zm-17.7,0v-4.4h4.4V128Zm-17.8,0v-4.4H440V128Zm-17.7,0v-4.4h4.4V128Zm-17.8,0v-4.4h4.4V128Zm-17.7,0v-4.4h4.4V128Zm-17.8,0v-4.4H369V128Zm-17.7,0v-4.4h4.4V128Zm-17.7,0v-4.4h4.4V128Zm-17.8,0v-4.4h4.4V128Zm-17.7,0v-4.4h4.4V128Zm-17.8,0v-4.4h4.4V128Zm-17.7,0v-4.4h4.4V128Zm-17.8,0v-4.4h4.4V128Zm-17.7,0v-4.4h4.4V128ZM205,128v-4.4h4.4V128Zm-17.7,0v-4.4h4.4V128Zm-17.8,0v-4.4h4.4V128Zm-17.7,0v-4.4h4.4V128ZM134,128v-4.4h4.4V128Zm-17.7,0v-4.4h4.4V128Zm-17.8,0v-4.4h4.4V128Zm-17.7,0v-4.4h4.4V128ZM63,128v-4.4h4.4V128Zm-17.7,0v-4.4h4.4V128Zm-17.8,0v-4.4H32V128Zm443.6-17.7v-4.4h4.4v4.4Zm-17.7,0v-4.4h4.4v4.4Zm-17.8,0v-4.4H440v4.4Zm-17.7,0v-4.4h4.4v4.4Zm-17.8,0v-4.4h4.4v4.4Zm-17.7,0v-4.4h4.4v4.4Zm-17.8,0v-4.4H369v4.4Zm-17.7,0v-4.4h4.4v4.4Zm-17.7,0v-4.4h4.4v4.4Zm-17.8,0v-4.4h4.4v4.4Zm-17.7,0v-4.4h4.4v4.4Zm-17.8,0v-4.4h4.4v4.4Zm-17.7,0v-4.4h4.4v4.4Zm-17.8,0v-4.4h4.4v4.4Zm-17.7,0v-4.4h4.4v4.4Zm-17.7,0v-4.4h4.4v4.4Zm-17.8,0v-4.4h4.4v4.4Zm-17.7,0v-4.4h4.4v4.4Zm-17.8,0v-4.4h4.4v4.4Zm-17.7,0v-4.4h4.4v4.4Zm-17.8,0v-4.4h4.4v4.4Zm-17.7,0v-4.4h4.4v4.4Zm-17.7,0v-4.4h4.4v4.4Zm-17.8,0v-4.4h4.4v4.4Zm-17.7,0v-4.4h4.4v4.4Zm-17.8,0v-4.4H32v4.4ZM471.1,92.7V88.3h4.4v4.4Zm-17.7,0V88.3h4.4v4.4Zm-17.8,0V88.3H440v4.4Zm-17.7,0V88.3h4.4v4.4Zm-17.8,0V88.3h4.4v4.4Zm-17.7,0V88.3h4.4v4.4Zm-17.8,0V88.3H369v4.4Zm-17.7,0V88.3h4.4v4.4Zm-17.7,0V88.3h4.4v4.4Zm-17.8,0V88.3h4.4v4.4Zm-17.7,0V88.3h4.4v4.4Zm-17.8,0V88.3h4.4v4.4Zm-17.7,0V88.3h4.4v4.4Zm-17.8,0V88.3h4.4v4.4Zm-17.7,0V88.3h4.4v4.4Zm-17.7,0V88.3h4.4v4.4Zm-17.8,0V88.3h4.4v4.4Zm-17.7,0V88.3h4.4v4.4Zm-17.8,0V88.3h4.4v4.4Zm-17.7,0V88.3h4.4v4.4Zm-17.8,0V88.3h4.4v4.4Zm-17.7,0V88.3h4.4v4.4Zm-17.7,0V88.3h4.4v4.4ZM63,92.7V88.3h4.4v4.4Zm-17.7,0V88.3h4.4v4.4Zm-17.8,0V88.3H32v4.4ZM471.1,75V70.6h4.4V75Zm-17.7,0V70.6h4.4V75Zm-17.8,0V70.6H440V75Zm-17.7,0V70.6h4.4V75Zm-17.8,0V70.6h4.4V75Zm-17.7,0V70.6h4.4V75Zm-17.8,0V70.6H369V75Zm-17.7,0V70.6h4.4V75Zm-17.7,0V70.6h4.4V75Zm-17.8,0V70.6h4.4V75Zm-17.7,0V70.6h4.4V75Zm-17.8,0V70.6h4.4V75Zm-17.7,0V70.6h4.4V75Zm-17.8,0V70.6h4.4V75Zm-17.7,0V70.6h4.4V75ZM205,75V70.6h4.4V75Zm-17.7,0V70.6h4.4V75Zm-17.8,0V70.6h4.4V75Zm-17.7,0V70.6h4.4V75ZM134,75V70.6h4.4V75Zm-17.7,0V70.6h4.4V75ZM98.5,75V70.6h4.4V75ZM80.8,75V70.6h4.4V75ZM63,75V70.6h4.4V75ZM45.3,75V70.6h4.4V75ZM27.5,75V70.6H32V75ZM471.1,57.4V53h4.4v4.4Zm-17.7,0V53h4.4v4.4Zm-17.8,0V53H440v4.4Zm-17.7,0V53h4.4v4.4Zm-17.8,0V53h4.4v4.4Zm-17.7,0V53h4.4v4.4Zm-17.8,0V53H369v4.4Zm-17.7,0V53h4.4v4.4Zm-17.7,0V53h4.4v4.4Zm-17.8,0V53h4.4v4.4Zm-17.7,0V53h4.4v4.4Zm-17.8,0V53h4.4v4.4Zm-17.7,0V53h4.4v4.4Zm-17.8,0V53h4.4v4.4Zm-17.7,0V53h4.4v4.4Zm-17.7,0V53h4.4v4.4Zm-17.8,0V53h4.4v4.4Zm-17.7,0V53h4.4v4.4Zm-17.8,0V53h4.4v4.4Zm-17.7,0V53h4.4v4.4Zm-17.8,0V53h4.4v4.4Zm-17.7,0V53h4.4v4.4Zm-17.7,0V53h4.4v4.4ZM63,57.4V53h4.4v4.4Zm-17.7,0V53h4.4v4.4Zm-17.8,0V53H32v4.4ZM471.1,39.7V35.3h4.4v4.4Zm-17.7,0V35.3h4.4v4.4Zm-17.8,0V35.3H440v4.4Zm-17.7,0V35.3h4.4v4.4Zm-17.8,0V35.3h4.4v4.4Zm-17.7,0V35.3h4.4v4.4Zm-17.8,0V35.3H369v4.4Zm-17.7,0V35.3h4.4v4.4Zm-17.7,0V35.3h4.4v4.4Zm-17.8,0V35.3h4.4v4.4Zm-17.7,0V35.3h4.4v4.4Zm-17.8,0V35.3h4.4v4.4Zm-17.7,0V35.3h4.4v4.4Zm-17.8,0V35.3h4.4v4.4Zm-17.7,0V35.3h4.4v4.4Zm-17.7,0V35.3h4.4v4.4Zm-17.8,0V35.3h4.4v4.4Zm-17.7,0V35.3h4.4v4.4Zm-17.8,0V35.3h4.4v4.4Zm-17.7,0V35.3h4.4v4.4Zm-17.8,0V35.3h4.4v4.4Zm-17.7,0V35.3h4.4v4.4Zm-17.7,0V35.3h4.4v4.4ZM63,39.7V35.3h4.4v4.4Zm-17.7,0V35.3h4.4v4.4Zm-17.8,0V35.3H32v4.4ZM471.1,22.1V17.7h4.4v4.4Zm-17.7,0V17.7h4.4v4.4Zm-17.8,0V17.7H440v4.4Zm-17.7,0V17.7h4.4v4.4Zm-17.8,0V17.7h4.4v4.4Zm-17.7,0V17.7h4.4v4.4Zm-17.8,0V17.7H369v4.4Zm-17.7,0V17.7h4.4v4.4Zm-17.7,0V17.7h4.4v4.4Zm-17.8,0V17.7h4.4v4.4Zm-17.7,0V17.7h4.4v4.4Zm-17.8,0V17.7h4.4v4.4Zm-17.7,0V17.7h4.4v4.4Zm-17.8,0V17.7h4.4v4.4Zm-17.7,0V17.7h4.4v4.4Zm-17.7,0V17.7h4.4v4.4Zm-17.8,0V17.7h4.4v4.4Zm-17.7,0V17.7h4.4v4.4Zm-17.8,0V17.7h4.4v4.4Zm-17.7,0V17.7h4.4v4.4Zm-17.8,0V17.7h4.4v4.4Zm-17.7,0V17.7h4.4v4.4Zm-17.7,0V17.7h4.4v4.4ZM63,22.1V17.7h4.4v4.4Zm-17.7,0V17.7h4.4v4.4Zm-17.8,0V17.7H32v4.4ZM471.1,4.4V0h4.4V4.4Zm-17.7,0V0h4.4V4.4Zm-17.8,0V0H440V4.4Zm-17.7,0V0h4.4V4.4Zm-17.8,0V0h4.4V4.4Zm-17.7,0V0h4.4V4.4Zm-17.8,0V0H369V4.4Zm-17.7,0V0h4.4V4.4Zm-17.7,0V0h4.4V4.4Zm-17.8,0V0h4.4V4.4Zm-17.7,0V0h4.4V4.4Zm-17.8,0V0h4.4V4.4Zm-17.7,0V0h4.4V4.4Zm-17.8,0V0h4.4V4.4Zm-17.7,0V0h4.4V4.4ZM205,4.4V0h4.4V4.4Zm-17.7,0V0h4.4V4.4Zm-17.8,0V0h4.4V4.4Zm-17.7,0V0h4.4V4.4ZM134,4.4V0h4.4V4.4Zm-17.7,0V0h4.4V4.4Zm-17.8,0V0h4.4V4.4Zm-17.7,0V0h4.4V4.4ZM63,4.4V0h4.4V4.4Zm-17.7,0V0h4.4V4.4Zm-17.8,0V0H32V4.4Z"/><path class="e" d="M939.1,392.8v-4.4h4.4v4.4Zm-17.7,0v-4.4h4.4v4.4Zm-17.8,0v-4.4H908v4.4Zm-17.7,0v-4.4h4.4v4.4Zm-17.8,0v-4.4h4.4v4.4Zm-17.7,0v-4.4h4.4v4.4Zm-17.7,0v-4.4h4.4v4.4Zm-17.8,0v-4.4h4.4v4.4Zm-17.7,0v-4.4h4.4v4.4Zm-17.8,0v-4.4h4.4v4.4Zm-17.7,0v-4.4h4.4v4.4Zm-17.8,0v-4.4h4.4v4.4Zm-17.7,0v-4.4h4.4v4.4Zm-17.7,0v-4.4h4.4v4.4Zm-17.8,0v-4.4h4.4v4.4Zm-17.7,0v-4.4h4.4v4.4Zm-17.8,0v-4.4h4.4v4.4Zm-17.7,0v-4.4h4.4v4.4Zm-17.8,0v-4.4h4.4v4.4Zm-17.7,0v-4.4h4.4v4.4Zm-17.7,0v-4.4h4.4v4.4Zm-17.8,0v-4.4H571v4.4Zm-17.7,0v-4.4h4.4v4.4Zm-17.8,0v-4.4h4.4v4.4Zm-17.7,0v-4.4h4.4v4.4Zm-17.8,0v-4.4H500v4.4Zm443.6-17.6v-4.4h4.4v4.4Zm-17.7,0v-4.4h4.4v4.4Zm-17.8,0v-4.4H908v4.4Zm-17.7,0v-4.4h4.4v4.4Zm-17.8,0v-4.4h4.4v4.4Zm-17.7,0v-4.4h4.4v4.4Zm-17.7,0v-4.4h4.4v4.4Zm-17.8,0v-4.4h4.4v4.4Zm-17.7,0v-4.4h4.4v4.4Zm-17.8,0v-4.4h4.4v4.4Zm-17.7,0v-4.4h4.4v4.4Zm-17.8,0v-4.4h4.4v4.4Zm-17.7,0v-4.4h4.4v4.4Zm-17.7,0v-4.4h4.4v4.4Zm-17.8,0v-4.4h4.4v4.4Zm-17.7,0v-4.4h4.4v4.4Zm-17.8,0v-4.4h4.4v4.4Zm-17.7,0v-4.4h4.4v4.4Zm-17.8,0v-4.4h4.4v4.4Zm-17.7,0v-4.4h4.4v4.4Zm-17.7,0v-4.4h4.4v4.4Zm-17.8,0v-4.4h4.4v4.4Zm-17.7,0v-4.4h4.4v4.4Zm-17.8,0v-4.4h4.4v4.4Zm-17.7,0v-4.4h4.4v4.4Zm-17.8,0v-4.4H500v4.4Zm443.6-17.7v-4.4h4.4v4.4Zm-17.7,0v-4.4h4.4v4.4Zm-17.8,0v-4.4H908v4.4Zm-17.7,0v-4.4h4.4v4.4Zm-17.8,0v-4.4h4.4v4.4Zm-17.7,0v-4.4h4.4v4.4Zm-17.7,0v-4.4h4.4v4.4Zm-17.8,0v-4.4h4.4v4.4Zm-17.7,0v-4.4h4.4v4.4Zm-17.8,0v-4.4h4.4v4.4Zm-17.7,0v-4.4h4.4v4.4Zm-17.8,0v-4.4h4.4v4.4Zm-17.7,0v-4.4h4.4v4.4Zm-17.7,0v-4.4h4.4v4.4Zm-17.8,0v-4.4h4.4v4.4Zm-17.7,0v-4.4h4.4v4.4Zm-17.8,0v-4.4h4.4v4.4Zm-17.7,0v-4.4h4.4v4.4Zm-17.8,0v-4.4h4.4v4.4Zm-17.7,0v-4.4h4.4v4.4Zm-17.7,0v-4.4h4.4v4.4Zm-17.8,0v-4.4h4.4v4.4Zm-17.7,0v-4.4h4.4v4.4Zm-17.8,0v-4.4h4.4v4.4Zm-17.7,0v-4.4h4.4v4.4Zm-17.8,0v-4.4H500v4.4Zm443.6-17.6v-4.4h4.4v4.4Zm-17.7,0v-4.4h4.4v4.4Zm-17.8,0v-4.4H908v4.4Zm-17.7,0v-4.4h4.4v4.4Zm-17.8,0v-4.4h4.4v4.4Zm-17.7,0v-4.4h4.4v4.4Zm-17.7,0v-4.4h4.4v4.4Zm-17.8,0v-4.4h4.4v4.4Zm-17.7,0v-4.4h4.4v4.4Zm-17.8,0v-4.4h4.4v4.4Zm-17.7,0v-4.4h4.4v4.4Zm-17.8,0v-4.4h4.4v4.4Zm-17.7,0v-4.4h4.4v4.4Zm-17.7,0v-4.4h4.4v4.4Zm-17.8,0v-4.4h4.4v4.4Zm-17.7,0v-4.4h4.4v4.4Zm-17.8,0v-4.4h4.4v4.4Zm-17.7,0v-4.4h4.4v4.4Zm-17.8,0v-4.4h4.4v4.4Zm-17.7,0v-4.4h4.4v4.4Zm-17.7,0v-4.4h4.4v4.4Zm-17.8,0v-4.4h4.4v4.4Zm-17.7,0v-4.4h4.4v4.4Zm-17.8,0v-4.4h4.4v4.4Zm-17.7,0v-4.4h4.4v4.4Zm-17.8,0v-4.4H500v4.4Zm443.6-17.7v-4.4h4.4v4.4Zm-17.7,0v-4.4h4.4v4.4Zm-17.8,0v-4.4H908v4.4Zm-17.7,0v-4.4h4.4v4.4Zm-17.8,0v-4.4h4.4v4.4Zm-17.7,0v-4.4h4.4v4.4Zm-17.7,0v-4.4h4.4v4.4Zm-17.8,0v-4.4h4.4v4.4Zm-17.7,0v-4.4h4.4v4.4Zm-17.8,0v-4.4h4.4v4.4Zm-17.7,0v-4.4h4.4v4.4Zm-17.8,0v-4.4h4.4v4.4Zm-17.7,0v-4.4h4.4v4.4Zm-17.7,0v-4.4h4.4v4.4Zm-17.8,0v-4.4h4.4v4.4Zm-17.7,0v-4.4h4.4v4.4Zm-17.8,0v-4.4h4.4v4.4Zm-17.7,0v-4.4h4.4v4.4Zm-17.8,0v-4.4h4.4v4.4Zm-17.7,0v-4.4h4.4v4.4Zm-17.7,0v-4.4h4.4v4.4Zm-17.8,0v-4.4h4.4v4.4Zm-17.7,0v-4.4h4.4v4.4Zm-17.8,0v-4.4h4.4v4.4Zm-17.7,0v-4.4h4.4v4.4Zm-17.8,0v-4.4H500v4.4Zm443.6-17.6v-4.4h4.4v4.4Zm-17.7,0v-4.4h4.4v4.4Zm-17.8,0v-4.4H908v4.4Zm-17.7,0v-4.4h4.4v4.4Zm-17.8,0v-4.4h4.4v4.4Zm-17.7,0v-4.4h4.4v4.4Zm-17.7,0v-4.4h4.4v4.4Zm-17.8,0v-4.4h4.4v4.4Zm-17.7,0v-4.4h4.4v4.4Zm-17.8,0v-4.4h4.4v4.4Zm-17.7,0v-4.4h4.4v4.4Zm-17.8,0v-4.4h4.4v4.4Zm-17.7,0v-4.4h4.4v4.4Zm-17.7,0v-4.4h4.4v4.4Zm-17.8,0v-4.4h4.4v4.4Zm-17.7,0v-4.4h4.4v4.4Zm-17.8,0v-4.4h4.4v4.4Zm-17.7,0v-4.4h4.4v4.4Zm-17.8,0v-4.4h4.4v4.4Zm-17.7,0v-4.4h4.4v4.4Zm-17.7,0v-4.4h4.4v4.4Zm-17.8,0v-4.4h4.4v4.4Zm-17.7,0v-4.4h4.4v4.4Zm-17.8,0v-4.4h4.4v4.4Zm-17.7,0v-4.4h4.4v4.4Zm-17.8,0v-4.4H500v4.4Zm443.6-17.7v-4.4h4.4v4.4Zm-17.7,0v-4.4h4.4v4.4Zm-17.8,0v-4.4H908v4.4Zm-17.7,0v-4.4h4.4v4.4Zm-17.8,0v-4.4h4.4v4.4Zm-17.7,0v-4.4h4.4v4.4Zm-17.7,0v-4.4h4.4v4.4Zm-17.8,0v-4.4h4.4v4.4Zm-17.7,0v-4.4h4.4v4.4Zm-17.8,0v-4.4h4.4v4.4Zm-17.7,0v-4.4h4.4v4.4Zm-17.8,0v-4.4h4.4v4.4Zm-17.7,0v-4.4h4.4v4.4Zm-17.7,0v-4.4h4.4v4.4Zm-17.8,0v-4.4h4.4v4.4Zm-17.7,0v-4.4h4.4v4.4Zm-17.8,0v-4.4h4.4v4.4Zm-17.7,0v-4.4h4.4v4.4Zm-17.8,0v-4.4h4.4v4.4Zm-17.7,0v-4.4h4.4v4.4Zm-17.7,0v-4.4h4.4v4.4Zm-17.8,0v-4.4h4.4v4.4Zm-17.7,0v-4.4h4.4v4.4Zm-17.8,0v-4.4h4.4v4.4Zm-17.7,0v-4.4h4.4v4.4Zm-17.8,0v-4.4H500v4.4Zm443.6-17.6v-4.4h4.4v4.4Zm-17.7,0v-4.4h4.4v4.4Zm-17.8,0v-4.4H908v4.4Zm-17.7,0v-4.4h4.4v4.4Zm-17.8,0v-4.4h4.4v4.4Zm-17.7,0v-4.4h4.4v4.4Zm-17.7,0v-4.4h4.4v4.4Zm-17.8,0v-4.4h4.4v4.4Zm-17.7,0v-4.4h4.4v4.4Zm-17.8,0v-4.4h4.4v4.4Zm-17.7,0v-4.4h4.4v4.4Zm-17.8,0v-4.4h4.4v4.4Zm-17.7,0v-4.4h4.4v4.4Zm-17.7,0v-4.4h4.4v4.4Zm-17.8,0v-4.4h4.4v4.4Zm-17.7,0v-4.4h4.4v4.4Zm-17.8,0v-4.4h4.4v4.4Zm-17.7,0v-4.4h4.4v4.4Zm-17.8,0v-4.4h4.4v4.4Zm-17.7,0v-4.4h4.4v4.4Zm-17.7,0v-4.4h4.4v4.4Zm-17.8,0v-4.4h4.4v4.4Zm-17.7,0v-4.4h4.4v4.4Zm-17.8,0v-4.4h4.4v4.4Zm-17.7,0v-4.4h4.4v4.4Zm-17.8,0v-4.4H500v4.4Zm443.6-17.7v-4.4h4.4v4.4Zm-17.7,0v-4.4h4.4v4.4Zm-17.8,0v-4.4H908v4.4Zm-17.7,0v-4.4h4.4v4.4Zm-17.8,0v-4.4h4.4v4.4Zm-17.7,0v-4.4h4.4v4.4Zm-17.7,0v-4.4h4.4v4.4Zm-17.8,0v-4.4h4.4v4.4Zm-17.7,0v-4.4h4.4v4.4Zm-17.8,0v-4.4h4.4v4.4Zm-17.7,0v-4.4h4.4v4.4Zm-17.8,0v-4.4h4.4v4.4Zm-17.7,0v-4.4h4.4v4.4Zm-17.7,0v-4.4h4.4v4.4Zm-17.8,0v-4.4h4.4v4.4Zm-17.7,0v-4.4h4.4v4.4Zm-17.8,0v-4.4h4.4v4.4Zm-17.7,0v-4.4h4.4v4.4Zm-17.8,0v-4.4h4.4v4.4Zm-17.7,0v-4.4h4.4v4.4Zm-17.7,0v-4.4h4.4v4.4Zm-17.8,0v-4.4h4.4v4.4Zm-17.7,0v-4.4h4.4v4.4Zm-17.8,0v-4.4h4.4v4.4Zm-17.7,0v-4.4h4.4v4.4Zm-17.8,0v-4.4H500v4.4Zm443.6-17.7v-4.4h4.4v4.4Zm-17.7,0v-4.4h4.4v4.4Zm-17.8,0v-4.4H908v4.4Zm-17.7,0v-4.4h4.4v4.4Zm-17.8,0v-4.4h4.4v4.4Zm-17.7,0v-4.4h4.4v4.4Zm-17.7,0v-4.4h4.4v4.4Zm-17.8,0v-4.4h4.4v4.4Zm-17.7,0v-4.4h4.4v4.4Zm-17.8,0v-4.4h4.4v4.4Zm-17.7,0v-4.4h4.4v4.4Zm-17.8,0v-4.4h4.4v4.4Zm-17.7,0v-4.4h4.4v4.4Zm-17.7,0v-4.4h4.4v4.4Zm-17.8,0v-4.4h4.4v4.4Zm-17.7,0v-4.4h4.4v4.4Zm-17.8,0v-4.4h4.4v4.4Zm-17.7,0v-4.4h4.4v4.4Zm-17.8,0v-4.4h4.4v4.4Zm-17.7,0v-4.4h4.4v4.4Zm-17.7,0v-4.4h4.4v4.4Zm-17.8,0v-4.4h4.4v4.4Zm-17.7,0v-4.4h4.4v4.4Zm-17.8,0v-4.4h4.4v4.4Zm-17.7,0v-4.4h4.4v4.4Zm-17.8,0v-4.4H500v4.4Zm443.6-17.6v-4.4h4.4v4.4Zm-17.7,0v-4.4h4.4v4.4Zm-17.8,0v-4.4H908v4.4Zm-17.7,0v-4.4h4.4v4.4Zm-17.8,0v-4.4h4.4v4.4Zm-17.7,0v-4.4h4.4v4.4Zm-17.7,0v-4.4h4.4v4.4Zm-17.8,0v-4.4h4.4v4.4Zm-17.7,0v-4.4h4.4v4.4Zm-17.8,0v-4.4h4.4v4.4Zm-17.7,0v-4.4h4.4v4.4Zm-17.8,0v-4.4h4.4v4.4Zm-17.7,0v-4.4h4.4v4.4Zm-17.7,0v-4.4h4.4v4.4Zm-17.8,0v-4.4h4.4v4.4Zm-17.7,0v-4.4h4.4v4.4Zm-17.8,0v-4.4h4.4v4.4Zm-17.7,0v-4.4h4.4v4.4Zm-17.8,0v-4.4h4.4v4.4Zm-17.7,0v-4.4h4.4v4.4Zm-17.7,0v-4.4h4.4v4.4Zm-17.8,0v-4.4h4.4v4.4Zm-17.7,0v-4.4h4.4v4.4Zm-17.8,0v-4.4h4.4v4.4Zm-17.7,0v-4.4h4.4v4.4Zm-17.8,0v-4.4H500v4.4Zm443.6-17.7v-4.4h4.4v4.4Zm-17.7,0v-4.4h4.4v4.4Zm-17.8,0v-4.4H908v4.4Zm-17.7,0v-4.4h4.4v4.4Zm-17.8,0v-4.4h4.4v4.4Zm-17.7,0v-4.4h4.4v4.4Zm-17.7,0v-4.4h4.4v4.4Zm-17.8,0v-4.4h4.4v4.4Zm-17.7,0v-4.4h4.4v4.4Zm-17.8,0v-4.4h4.4v4.4Zm-17.7,0v-4.4h4.4v4.4Zm-17.8,0v-4.4h4.4v4.4Zm-17.7,0v-4.4h4.4v4.4Zm-17.7,0v-4.4h4.4v4.4Zm-17.8,0v-4.4h4.4v4.4Zm-17.7,0v-4.4h4.4v4.4Zm-17.8,0v-4.4h4.4v4.4Zm-17.7,0v-4.4h4.4v4.4Zm-17.8,0v-4.4h4.4v4.4Zm-17.7,0v-4.4h4.4v4.4Zm-17.7,0v-4.4h4.4v4.4Zm-17.8,0v-4.4h4.4v4.4Zm-17.7,0v-4.4h4.4v4.4Zm-17.8,0v-4.4h4.4v4.4Zm-17.7,0v-4.4h4.4v4.4Zm-17.8,0v-4.4H500v4.4ZM939.1,181v-4.4h4.4V181Zm-17.7,0v-4.4h4.4V181Zm-17.8,0v-4.4H908V181Zm-17.7,0v-4.4h4.4V181Zm-17.8,0v-4.4h4.4V181Zm-17.7,0v-4.4h4.4V181Zm-17.7,0v-4.4h4.4V181Zm-17.8,0v-4.4h4.4V181Zm-17.7,0v-4.4h4.4V181Zm-17.8,0v-4.4h4.4V181Zm-17.7,0v-4.4h4.4V181Zm-17.8,0v-4.4h4.4V181Zm-17.7,0v-4.4h4.4V181Zm-17.7,0v-4.4h4.4V181Zm-17.8,0v-4.4h4.4V181ZM673,181v-4.4h4.4V181Zm-17.7,0v-4.4h4.4V181Zm-17.8,0v-4.4h4.4V181Zm-17.7,0v-4.4h4.4V181ZM602,181v-4.4h4.4V181Zm-17.7,0v-4.4h4.4V181Zm-17.8,0v-4.4h4.4V181Zm-17.7,0v-4.4h4.4V181ZM531,181v-4.4h4.4V181Zm-17.7,0v-4.4h4.4V181Zm-17.8,0v-4.4H500V181Zm443.6-17.7v-4.4h4.4v4.4Zm-17.7,0v-4.4h4.4v4.4Zm-17.8,0v-4.4H908v4.4Zm-17.7,0v-4.4h4.4v4.4Zm-17.8,0v-4.4h4.4v4.4Zm-17.7,0v-4.4h4.4v4.4Zm-17.8,0v-4.4H837v4.4Zm-17.7,0v-4.4h4.4v4.4Zm-17.7,0v-4.4h4.4v4.4Zm-17.8,0v-4.4h4.4v4.4Zm-17.7,0v-4.4h4.4v4.4Zm-17.8,0v-4.4h4.4v4.4Zm-17.7,0v-4.4h4.4v4.4Zm-17.8,0v-4.4h4.4v4.4Zm-17.7,0v-4.4h4.4v4.4Zm-17.7,0v-4.4h4.4v4.4Zm-17.8,0v-4.4h4.4v4.4Zm-17.7,0v-4.4h4.4v4.4Zm-17.8,0v-4.4h4.4v4.4Zm-17.7,0v-4.4h4.4v4.4Zm-17.7,0v-4.4h4.4v4.4Zm-17.8,0v-4.4h4.4v4.4Zm-17.7,0v-4.4h4.4v4.4Zm-17.8,0v-4.4h4.4v4.4Zm-17.7,0v-4.4h4.4v4.4Zm-17.8,0v-4.4H500v4.4Zm443.6-17.6v-4.4h4.4v4.4Zm-17.7,0v-4.4h4.4v4.4Zm-17.8,0v-4.4H908v4.4Zm-17.7,0v-4.4h4.4v4.4Zm-17.8,0v-4.4h4.4v4.4Zm-17.7,0v-4.4h4.4v4.4Zm-17.8,0v-4.4H837v4.4Zm-17.7,0v-4.4h4.4v4.4Zm-17.7,0v-4.4h4.4v4.4Zm-17.8,0v-4.4h4.4v4.4Zm-17.7,0v-4.4h4.4v4.4Zm-17.8,0v-4.4h4.4v4.4Zm-17.7,0v-4.4h4.4v4.4Zm-17.8,0v-4.4h4.4v4.4Zm-17.7,0v-4.4h4.4v4.4Zm-17.7,0v-4.4h4.4v4.4Zm-17.8,0v-4.4h4.4v4.4Zm-17.7,0v-4.4h4.4v4.4Zm-17.8,0v-4.4h4.4v4.4Zm-17.7,0v-4.4h4.4v4.4Zm-17.7,0v-4.4h4.4v4.4Zm-17.8,0v-4.4h4.4v4.4Zm-17.7,0v-4.4h4.4v4.4Zm-17.8,0v-4.4h4.4v4.4Zm-17.7,0v-4.4h4.4v4.4Zm-17.8,0v-4.4H500v4.4ZM939.1,128v-4.4h4.4V128Zm-17.7,0v-4.4h4.4V128Zm-17.8,0v-4.4H908V128Zm-17.7,0v-4.4h4.4V128Zm-17.8,0v-4.4h4.4V128Zm-17.7,0v-4.4h4.4V128Zm-17.8,0v-4.4H837V128Zm-17.7,0v-4.4h4.4V128Zm-17.7,0v-4.4h4.4V128Zm-17.8,0v-4.4h4.4V128Zm-17.7,0v-4.4h4.4V128Zm-17.8,0v-4.4h4.4V128Zm-17.7,0v-4.4h4.4V128Zm-17.8,0v-4.4h4.4V128Zm-17.7,0v-4.4h4.4V128ZM673,128v-4.4h4.4V128Zm-17.7,0v-4.4h4.4V128Zm-17.8,0v-4.4h4.4V128Zm-17.7,0v-4.4h4.4V128ZM602,128v-4.4h4.4V128Zm-17.7,0v-4.4h4.4V128Zm-17.8,0v-4.4h4.4V128Zm-17.7,0v-4.4h4.4V128ZM531,128v-4.4h4.4V128Zm-17.7,0v-4.4h4.4V128Zm-17.8,0v-4.4H500V128Zm443.6-17.7v-4.4h4.4v4.4Zm-17.7,0v-4.4h4.4v4.4Zm-17.8,0v-4.4H908v4.4Zm-17.7,0v-4.4h4.4v4.4Zm-17.8,0v-4.4h4.4v4.4Zm-17.7,0v-4.4h4.4v4.4Zm-17.8,0v-4.4H837v4.4Zm-17.7,0v-4.4h4.4v4.4Zm-17.7,0v-4.4h4.4v4.4Zm-17.8,0v-4.4h4.4v4.4Zm-17.7,0v-4.4h4.4v4.4Zm-17.8,0v-4.4h4.4v4.4Zm-17.7,0v-4.4h4.4v4.4Zm-17.8,0v-4.4h4.4v4.4Zm-17.7,0v-4.4h4.4v4.4Zm-17.7,0v-4.4h4.4v4.4Zm-17.8,0v-4.4h4.4v4.4Zm-17.7,0v-4.4h4.4v4.4Zm-17.8,0v-4.4h4.4v4.4Zm-17.7,0v-4.4h4.4v4.4Zm-17.8,0v-4.4h4.4v4.4Zm-17.7,0v-4.4h4.4v4.4Zm-17.7,0v-4.4h4.4v4.4Zm-17.8,0v-4.4h4.4v4.4Zm-17.7,0v-4.4h4.4v4.4Zm-17.8,0v-4.4H500v4.4ZM939.1,92.7V88.3h4.4v4.4Zm-17.7,0V88.3h4.4v4.4Zm-17.8,0V88.3H908v4.4Zm-17.7,0V88.3h4.4v4.4Zm-17.8,0V88.3h4.4v4.4Zm-17.7,0V88.3h4.4v4.4Zm-17.8,0V88.3H837v4.4Zm-17.7,0V88.3h4.4v4.4Zm-17.7,0V88.3h4.4v4.4Zm-17.8,0V88.3h4.4v4.4Zm-17.7,0V88.3h4.4v4.4Zm-17.8,0V88.3h4.4v4.4Zm-17.7,0V88.3h4.4v4.4Zm-17.8,0V88.3h4.4v4.4Zm-17.7,0V88.3h4.4v4.4Zm-17.7,0V88.3h4.4v4.4Zm-17.8,0V88.3h4.4v4.4Zm-17.7,0V88.3h4.4v4.4Zm-17.8,0V88.3h4.4v4.4Zm-17.7,0V88.3h4.4v4.4Zm-17.8,0V88.3h4.4v4.4Zm-17.7,0V88.3h4.4v4.4Zm-17.7,0V88.3h4.4v4.4Zm-17.8,0V88.3h4.4v4.4Zm-17.7,0V88.3h4.4v4.4Zm-17.8,0V88.3H500v4.4ZM939.1,75V70.6h4.4V75Zm-17.7,0V70.6h4.4V75Zm-17.8,0V70.6H908V75Zm-17.7,0V70.6h4.4V75Zm-17.8,0V70.6h4.4V75Zm-17.7,0V70.6h4.4V75Zm-17.8,0V70.6H837V75Zm-17.7,0V70.6h4.4V75Zm-17.7,0V70.6h4.4V75Zm-17.8,0V70.6h4.4V75Zm-17.7,0V70.6h4.4V75Zm-17.8,0V70.6h4.4V75Zm-17.7,0V70.6h4.4V75Zm-17.8,0V70.6h4.4V75Zm-17.7,0V70.6h4.4V75ZM673,75V70.6h4.4V75Zm-17.7,0V70.6h4.4V75Zm-17.8,0V70.6h4.4V75Zm-17.7,0V70.6h4.4V75ZM602,75V70.6h4.4V75Zm-17.7,0V70.6h4.4V75Zm-17.8,0V70.6h4.4V75Zm-17.7,0V70.6h4.4V75ZM531,75V70.6h4.4V75Zm-17.7,0V70.6h4.4V75Zm-17.8,0V70.6H500V75ZM939.1,57.4V53h4.4v4.4Zm-17.7,0V53h4.4v4.4Zm-17.8,0V53H908v4.4Zm-17.7,0V53h4.4v4.4Zm-17.8,0V53h4.4v4.4Zm-17.7,0V53h4.4v4.4Zm-17.8,0V53H837v4.4Zm-17.7,0V53h4.4v4.4Zm-17.7,0V53h4.4v4.4Zm-17.8,0V53h4.4v4.4Zm-17.7,0V53h4.4v4.4Zm-17.8,0V53h4.4v4.4Zm-17.7,0V53h4.4v4.4Zm-17.8,0V53h4.4v4.4Zm-17.7,0V53h4.4v4.4Zm-17.7,0V53h4.4v4.4Zm-17.8,0V53h4.4v4.4Zm-17.7,0V53h4.4v4.4Zm-17.8,0V53h4.4v4.4Zm-17.7,0V53h4.4v4.4Zm-17.8,0V53h4.4v4.4Zm-17.7,0V53h4.4v4.4Zm-17.7,0V53h4.4v4.4Zm-17.8,0V53h4.5v4.4Zm-17.7,0V53h4.4v4.4Zm-17.8,0V53H500v4.4ZM939.1,39.7V35.3h4.4v4.4Zm-17.7,0V35.3h4.4v4.4Zm-17.8,0V35.3H908v4.4Zm-17.7,0V35.3h4.4v4.4Zm-17.8,0V35.3h4.4v4.4Zm-17.7,0V35.3h4.4v4.4Zm-17.8,0V35.3H837v4.4Zm-17.7,0V35.3h4.4v4.4Zm-17.7,0V35.3h4.4v4.4Zm-17.8,0V35.3h4.4v4.4Zm-17.7,0V35.3h4.4v4.4Zm-17.8,0V35.3h4.4v4.4Zm-17.7,0V35.3h4.4v4.4Zm-17.8,0V35.3h4.4v4.4Zm-17.7,0V35.3h4.4v4.4Zm-17.7,0V35.3h4.4v4.4Zm-17.8,0V35.3h4.4v4.4Zm-17.7,0V35.3h4.4v4.4Zm-17.8,0V35.3h4.4v4.4Zm-17.7,0V35.3h4.4v4.4Zm-17.8,0V35.3h4.4v4.4Zm-17.7,0V35.3h4.4v4.4Zm-17.7,0V35.3h4.4v4.4Zm-17.8,0V35.3h4.5v4.4Zm-17.7,0V35.3h4.4v4.4Zm-17.8,0V35.3H500v4.4ZM939.1,22.1V17.7h4.4v4.4Zm-17.7,0V17.7h4.4v4.4Zm-17.8,0V17.7H908v4.4Zm-17.7,0V17.7h4.4v4.4Zm-17.8,0V17.7h4.4v4.4Zm-17.7,0V17.7h4.4v4.4Zm-17.8,0V17.7H837v4.4Zm-17.7,0V17.7h4.4v4.4Zm-17.7,0V17.7h4.4v4.4Zm-17.8,0V17.7h4.4v4.4Zm-17.7,0V17.7h4.4v4.4Zm-17.8,0V17.7h4.4v4.4Zm-17.7,0V17.7h4.4v4.4Zm-17.8,0V17.7h4.4v4.4Zm-17.7,0V17.7h4.4v4.4Zm-17.7,0V17.7h4.4v4.4Zm-17.8,0V17.7h4.4v4.4Zm-17.7,0V17.7h4.4v4.4Zm-17.8,0V17.7h4.4v4.4Zm-17.7,0V17.7h4.4v4.4Zm-17.8,0V17.7h4.4v4.4Zm-17.7,0V17.7h4.4v4.4Zm-17.7,0V17.7h4.4v4.4Zm-17.8,0V17.7h4.5v4.4Zm-17.7,0V17.7h4.4v4.4Zm-17.8,0V17.7H500v4.4ZM939.1,4.4V0h4.4V4.4Zm-17.8,0V0h4.4V4.4Zm-17.7,0V0H908V4.4Zm-17.7,0V0h4.4V4.4Zm-17.8,0V0h4.4V4.4Zm-17.7,0V0h4.4V4.4Zm-17.8,0V0H837V4.4Zm-17.7,0V0h4.4V4.4Zm-17.7,0V0h4.4V4.4Zm-17.8,0V0h4.4V4.4Zm-17.7,0V0h4.4V4.4Zm-17.8,0V0h4.4V4.4Zm-17.7,0V0h4.4V4.4Zm-17.8,0V0h4.4V4.4Zm-17.7,0V0h4.4V4.4ZM673,4.4V0h4.4V4.4Zm-17.7,0V0h4.4V4.4Zm-17.8,0V0h4.4V4.4Zm-17.7,0V0h4.4V4.4ZM602,4.4V0h4.4V4.4Zm-17.7,0V0h4.4V4.4Zm-17.8,0V0h4.4V4.4Zm-17.7,0V0h4.4V4.4ZM531,4.4V0h4.5V4.4Zm-17.7,0V0h4.4V4.4Zm-17.8,0V0H500V4.4Z"/></g><path class="f" d="M102,162H499.5a6.59,6.59,0,0,1,6.6,6.6h0V434.9H95.4V168.6A6.59,6.59,0,0,1,102,162Z"/><path class="g" d="M109.4,173.3H492.2a2.69,2.69,0,0,1,2.7,2.7V421a2.69,2.69,0,0,1-2.7,2.7H109.4a2.69,2.69,0,0,1-2.7-2.7V176A2.69,2.69,0,0,1,109.4,173.3Z"/><path class="h" d="M270.9,245.8H135.3a15.51,15.51,0,0,1-15.5-15.5h0a15.51,15.51,0,0,1,15.5-15.5H271a15.51,15.51,0,0,1,15.5,15.5h0a15.6,15.6,0,0,1-15.6,15.5Z"/><path class="i" d="M121.9,181.8a3.6,3.6,0,1,1-3.6-3.6h0a3.59,3.59,0,0,1,3.6,3.6Z"/><path class="j" d="M132.8,181.8a3.6,3.6,0,1,1-3.6-3.6h0a3.59,3.59,0,0,1,3.6,3.6Z"/><path class="k" d="M143.8,181.8a3.6,3.6,0,1,1-3.6-3.6h0a3.59,3.59,0,0,1,3.6,3.6Z"/><path class="l" d="M240.4,272.4H122.5a2.8,2.8,0,0,1-2.8-2.8h0a2.8,2.8,0,0,1,2.8-2.8H240.4a2.78,2.78,0,0,1,2.8,2.7h0A2.88,2.88,0,0,1,240.4,272.4Z"/><path class="l" d="M240.4,296.5H122.5a2.8,2.8,0,0,1-2.8-2.8h0a2.8,2.8,0,0,1,2.8-2.8H240.4a2.8,2.8,0,0,1,2.8,2.8h0A2.86,2.86,0,0,1,240.4,296.5Z"/><path class="l" d="M168.3,320.7H122.5a2.8,2.8,0,0,1-2.8-2.8h0a2.8,2.8,0,0,1,2.8-2.8h45.8a2.78,2.78,0,0,1,2.8,2.7h0a2.88,2.88,0,0,1-2.8,2.9Z"/><rect class="m" x="305.8" y="162" width="23.9" height="272.9"/><line class="n" x1="215.9" y1="33.8" x2="215.9" y2="57"/><line class="n" x1="227.6" y1="45.4" x2="204.3" y2="45.4"/><line class="o" x1="599.1" y1="56.6" x2="599.5" y2="79.9"/><line class="o" x1="610.9" y1="68" x2="587.7" y2="68.5"/><line class="p" x1="104.8" y1="113.3" x2="105.2" y2="136.5"/><line class="p" x1="116.6" y1="124.7" x2="93.4" y2="125.1"/><path class="q" d="M623.2,237.4l-8.3-.2h0l-12.9-.3v.1l-10.8-.1s-2.1,8.2-4.8,21.7c21.4,4.7,36.3-2.6,42.3-6.5C627.5,245.9,625.7,240.8,623.2,237.4Z"/><path class="r" d="M514.7,156.1l6.5,10.4,1.8-10.4Z"/><path class="s" d="M544.3,231.5,500,237.8l.4,4.8,52.1,7-1.9-13.3a5.56,5.56,0,0,0-6.3-4.8Z"/><path class="t" d="M77.4,419.1s1.7,3.9,1.6,6.5-8.4,3.1-9.4,1.8-2-13.2-2-13.2"/><path class="u" d="M67.6,429.8a55.16,55.16,0,0,0,1,7.1l9.5-.4.4-1.6a15.92,15.92,0,0,0,5.6,1.4l8-.3c5.9-.3,9.2-1.1,9.3-2.2.4-4.4-6.6-3.9-8.4-3.8-5.3.2-11.1-2-12.4-4.6-1-1.9-.6-2.4-1.7-2a2.94,2.94,0,0,0-1.6,1.5,4.84,4.84,0,0,1-4.9,2.9,5.77,5.77,0,0,1-3.3-1.4A3.32,3.32,0,0,0,67.6,429.8Z"/><path class="t" d="M16.1,416a70.23,70.23,0,0,1-2.4,9c-1,2.3-8.5-.2-8.9-1.7S7.7,411,7.7,411"/><path class="u" d="M2.1,424.6C1.2,427,0,431.7,0,431.7l7,3.8,1.3-1.1a13.05,13.05,0,0,0,3.8,3.6,28.51,28.51,0,0,0,6.9,2.5c6.3,1.2,11.2.3,11.6-.6,1.9-3.7-6.5-5.3-8.1-5.9a11.16,11.16,0,0,1-7.3-8.9c-.2-2,.3-2.3-.8-2.4a2.36,2.36,0,0,0-1.9.8,4.73,4.73,0,0,1-5.3.9A5.56,5.56,0,0,1,4.8,422,3.74,3.74,0,0,0,2.1,424.6Z"/><path class="u" d="M29.7,301.1s-11-23.5,5.7-41.6c0,0,15.1,6,27.1,6.4,9.4.2,14.1-.9,14.1-.9s2.8,17.3,2.8,44.6Z"/><path class="u" d="M68.5,424.1h.9a45.08,45.08,0,0,0,9.7-1.1v-1.8c-1.5-27.4,5-59.2,5-73.4a24.52,24.52,0,0,0-.2-2.7c-1.5-10.3-12.1-8.5-16.2,1.2a33,33,0,0,0-2.2,7.4c-.7,3.2-1.1,3.7-1.2,7.4C63,384.8,65.9,406.5,68.5,424.1Z"/><path class="u" d="M49.1,311.3a2.92,2.92,0,0,0,.2.9c2.9,12.4,11.9,30.7,16,41.5h0c.6,1.5,2.5,2.7,4.8,3.2,5.4,1.3,13.4-1.1,13.6-11.9a25.49,25.49,0,0,0-.2-3.9c-1.1-8.7-5-41.8-5.5-46.4s-1.7-11.4-4.2-12.1C61.5,279,45.2,294,49.1,311.3Z"/><path class="u" d="M26.8,347.3c8-8.1,19.6-4.9,14.8,7.4-5.2,13.2-16.5,36.8-25.1,62.8l-.6,1.7a51.62,51.62,0,0,1-10.2-2.9c3.9-16.8,1.1-32.6,9.8-52.9C18.1,356.9,22.6,351.5,26.8,347.3Z"/><path class="u" d="M70.3,283.8c.8-19.3-22.6-5.5-33.9,1.3-4.7,2.9-6.3,8.3-6.7,13.4s-4.5,42.2-5.4,51.7c-1.9,21.5,16.2,9,17.7,3C45.9,338,69.8,294.3,70.3,283.8Z"/><path class="v" d="M67.1,162c.1,1.4.1,7.1-2.9,8.5s-5,2-4.9,2.4a11.79,11.79,0,0,0,.7,2.2c.7,2.2,1.8,2.7,1.8,2.7l.4,7.3-5.4,5.4-1.7,1.8-2.7-2.4L43.7,182s3.6-4.4,1.1-9.1c-.4-.7-4.3-5.1-7.5-9.5-1.8-2.6-3.4-5.2-3.8-7-1.1-5.1-2.1-10.4.8-13.5s22.8-16.3,26.8-1C61,141.9,67.1,160.5,67.1,162Z"/><path class="w" d="M43.6,157.6s4.8,1.7,4.3-4.8a.76.76,0,0,1,.6-.8c1.4-.4,4.5-2,2.9-8.3a.92.92,0,0,1,.7-1.1h.1a58.47,58.47,0,0,1,7.2-.7,3.75,3.75,0,0,1,1.1.1.66.66,0,0,1,.5.4c.3.6,2.2,6.5,2.2,6.5s2.2-1.7,2-2.8-1.3-3.5-1.2-4.1,1.8-1.3,1.8-2.6c0-3-1.2-14.7-10.4-7.5a15.94,15.94,0,0,1-3.3,2.5c-1.4.5-3-.5-6-.3-4.2.3-22.5,4.6-16.6,20.8S45,173.3,45,173.3,41.8,159.6,43.6,157.6Z"/><path class="v" d="M43.6,157.6s-.9-2.8-3.2-2c-3.1,1.1-2.8,8.9,4,7.9A19.55,19.55,0,0,1,43.6,157.6Z"/><path class="x" d="M87.1,281.3s-34.5,6.1-65.5.4c1.5-9.6,7.4-36.7,7.8-47.6V233c.2-7,.4-12,.5-12.2.3-.4-.8-22.7,1-31.4a6.07,6.07,0,0,1,1.3-3.2,64,64,0,0,1,12.7-8.5s11.1,11.9,16.8-1.3c6.2-.6,9.4.7,11.2,6.9C83,218,87.1,281.3,87.1,281.3Z"/><path class="t" d="M87.6,185.1l16.2,6.7,69.4,1.9s10.4-5.3,21,7.9l-109.3.3Z"/><path class="x" d="M66.4,176.5s18.8,5.6,30.5,8.6c3.4,8.2-.3,17-.3,17s-14.2-1.6-24.6-.7A132,132,0,0,0,66.4,176.5Z"/><path class="y" d="M212.3,231.1H76.7a15.51,15.51,0,0,1-15.5-15.5h0A15.6,15.6,0,0,1,76.7,200H212.3a15.51,15.51,0,0,1,15.5,15.5h0a15.47,15.47,0,0,1-15.5,15.6Z"/><path class="z" d="M211.6,209.7a5.59,5.59,0,1,1-7.9,0h0a5.55,5.55,0,0,1,7.9,0Z"/><line class="z" x1="211.6" y1="217.6" x2="217.1" y2="223.1"/><path class="t" d="M27,226.2l4.6,9.6A13.55,13.55,0,0,0,45,243.3l58.7-5.6a30.72,30.72,0,0,0,6.7-1.4l15.5-5.1H111.5a.94.94,0,0,1-1-1,1.23,1.23,0,0,1,.4-.8c2.6-1.8,6.1-4.3,5.5-4.7-.8-.7-7.9,3.2-14.3,5.9a10.32,10.32,0,0,1-3.4.7H50a5.63,5.63,0,0,1-5.3-3.7l-5-13.6Z"/><path class="x" d="M35.2,183.9s-12.8,8.4-13.4,22.7c-.4,11,6.9,27.1,6.9,27.1s12.7,1.4,19.3-8.9a73.15,73.15,0,0,0-7.5-15.4"/><path class="f" d="M529.2,155.5H529V85.3a24.82,24.82,0,0,0-24.9-24.8H323.3a24.9,24.9,0,0,0-25,24.8h0v31.1a.9.9,0,0,0-.5-.1h-.5a1.2,1.2,0,0,0-1.2,1.1h0v14.3a1.22,1.22,0,0,0,1.2,1.2h.5a.9.9,0,0,0,.5-.1v12.7a.9.9,0,0,0-.5-.1h-.5a1.22,1.22,0,0,0-1.2,1.2h0v29.2a1.2,1.2,0,0,0,1.1,1.2h.5a.9.9,0,0,0,.5-.1v7.2a.9.9,0,0,0-.5-.1h-.5a1.2,1.2,0,0,0-1.2,1.1h0v28.6a1.22,1.22,0,0,0,1.2,1.2h.5a.9.9,0,0,0,.5-.1V435.3a24.78,24.78,0,0,0,25,24.8H504a24.84,24.84,0,0,0,25-24.8h0V208.8h.3a1.2,1.2,0,0,0,1.2-1.1h0v-51a1.3,1.3,0,0,0-1.3-1.2Z"/><path class="aa" d="M399.3,74.2h23a1.69,1.69,0,0,1,1.7,1.7h0a1.69,1.69,0,0,1-1.7,1.7h-23a1.69,1.69,0,0,1-1.7-1.7h0A1.75,1.75,0,0,1,399.3,74.2Z"/><circle class="aa" cx="370.2" cy="75.9" r="4.1"/><circle class="aa" cx="388.8" cy="75.9" r="4.1"/><path class="g" d="M499.7,450.1H327.1a19.08,19.08,0,0,1-19.1-19h0V88.8a19.08,19.08,0,0,1,19.1-19h33.6V75a8.71,8.71,0,0,0,8.7,8.7H451a8.62,8.62,0,0,0,8.6-8.7V69.7h40a19.08,19.08,0,0,1,19.1,19h0V431.1a19,19,0,0,1-19,19Z"/><path class="l" d="M326.7,177.9H502.3a2.43,2.43,0,0,1,2.4,2.4v31.5a2.43,2.43,0,0,1-2.4,2.4H326.7a2.43,2.43,0,0,1-2.4-2.4V180.3A2.37,2.37,0,0,1,326.7,177.9Z"/><path class="ab" d="M498.8,177.9H469.3v36.3h29.5a5.85,5.85,0,0,0,5.9-5.9h0V183.8A5.85,5.85,0,0,0,498.8,177.9Z"/><path class="g" d="M437.3,189.3H337.4a2,2,0,0,1-2-2h0a2,2,0,0,1,2-2h99.9a2,2,0,0,1,2,2h0A2,2,0,0,1,437.3,189.3Z"/><path class="g" d="M437.3,198H337.4a2,2,0,0,1-2-2h0a2,2,0,0,1,2-2h99.9a2,2,0,0,1,2,2h0A2,2,0,0,1,437.3,198Z"/><path class="g" d="M378.6,206.8H337.4a2,2,0,0,1-2-2h0a2,2,0,0,1,2-2h41.2a2,2,0,0,1,2,2h0A2,2,0,0,1,378.6,206.8Z"/><circle class="g" cx="487" cy="196" r="6.7"/><path class="l" d="M326.7,240.3H502.3a2.43,2.43,0,0,1,2.4,2.4v31.5a2.43,2.43,0,0,1-2.4,2.4H326.7a2.43,2.43,0,0,1-2.4-2.4V242.7A2.43,2.43,0,0,1,326.7,240.3Z"/><path class="l" d="M326.7,304.9H502.3a2.43,2.43,0,0,1,2.4,2.4v31.5a2.43,2.43,0,0,1-2.4,2.4H326.7a2.43,2.43,0,0,1-2.4-2.4V307.3A2.37,2.37,0,0,1,326.7,304.9Z"/><path class="ab" d="M498.8,304.9H469.3v36.3h29.5a5.85,5.85,0,0,0,5.9-5.9h0V310.8A5.85,5.85,0,0,0,498.8,304.9Z"/><path class="g" d="M437.3,316.3H337.4a2,2,0,0,1-2-2h0a2,2,0,0,1,2-2h99.9a2,2,0,0,1,2,2h0A2,2,0,0,1,437.3,316.3Z"/><path class="g" d="M437.3,325H337.4a2,2,0,0,1-2-2h0a2,2,0,0,1,2-2h99.9a2,2,0,0,1,2,2h0A2,2,0,0,1,437.3,325Z"/><path class="g" d="M378.6,333.8H337.4a2,2,0,0,1-2-2h0a2,2,0,0,1,2-2h41.2a2,2,0,0,1,2,2h0A2,2,0,0,1,378.6,333.8Z"/><circle class="g" cx="487" cy="323" r="6.7"/><path class="l" d="M326.7,370.9H502.3a2.43,2.43,0,0,1,2.4,2.4v31.5a2.43,2.43,0,0,1-2.4,2.4H326.7a2.43,2.43,0,0,1-2.4-2.4V373.3A2.37,2.37,0,0,1,326.7,370.9Z"/><path class="ab" d="M498.8,370.9H469.3v36.3h29.5a5.85,5.85,0,0,0,5.9-5.9h0V376.8A5.85,5.85,0,0,0,498.8,370.9Z"/><path class="g" d="M437.3,382.3H337.4a2,2,0,0,1-2-2h0a2,2,0,0,1,2-2h99.9a2,2,0,0,1,2,2h0A2,2,0,0,1,437.3,382.3Z"/><path class="g" d="M437.3,391H337.4a2,2,0,0,1-2-2h0a2,2,0,0,1,2-2h99.9a2,2,0,0,1,2,2h0A2,2,0,0,1,437.3,391Z"/><path class="g" d="M378.6,399.8H337.4a2,2,0,0,1-2-2h0a2,2,0,0,1,2-2h41.2a2,2,0,0,1,2,2h0A2,2,0,0,1,378.6,399.8Z"/><circle class="g" cx="487" cy="389" r="6.7"/><g class="ac"><path d="M377.4,258.5l164.5-23.3a2.33,2.33,0,0,1,2.6,1.9l4.2,29.5a2.33,2.33,0,0,1-1.9,2.6L382.3,292.5a2.33,2.33,0,0,1-2.6-1.9l-4.2-29.5A2.22,2.22,0,0,1,377.4,258.5Z"/></g><path class="ad" d="M378.8,253.3,543.3,230a2.33,2.33,0,0,1,2.6,1.9l4.2,29.5a2.33,2.33,0,0,1-1.9,2.6L383.7,287.3a2.33,2.33,0,0,1-2.6-1.9l-4.2-29.5A2.28,2.28,0,0,1,378.8,253.3Z"/><path class="ae" d="M378.8,253.3,543.3,230a2.33,2.33,0,0,1,2.6,1.9l4.2,29.5a2.33,2.33,0,0,1-1.9,2.6L383.7,287.3a2.33,2.33,0,0,1-2.6-1.9l-4.2-29.5A2.28,2.28,0,0,1,378.8,253.3Z"/><path class="y" d="M540.1,230.5l-27.7,3.9,4.8,34,27.7-3.9a5.47,5.47,0,0,0,4.7-6.3h0l-3.3-22.9A5.46,5.46,0,0,0,540.1,230.5Z"/><path class="af" d="M484,249.3l-93.7,13.3a1.9,1.9,0,0,1-2.1-1.6h0a1.9,1.9,0,0,1,1.6-2.1l93.6-13.3a1.9,1.9,0,0,1,2.1,1.6h0A1.76,1.76,0,0,1,484,249.3Z"/><path class="af" d="M485.1,257.5l-93.6,13.3a1.9,1.9,0,0,1-2.1-1.6h0a1.9,1.9,0,0,1,1.6-2.1l93.6-13.3a1.9,1.9,0,0,1,2.1,1.6h0A1.83,1.83,0,0,1,485.1,257.5Z"/><path class="af" d="M431.2,273.5,392.6,279a1.9,1.9,0,0,1-2.1-1.6h0a1.9,1.9,0,0,1,1.6-2.1h0l38.6-5.5a1.9,1.9,0,0,1,2.1,1.6h0a1.77,1.77,0,0,1-1.6,2.1Z"/><path class="g" d="M537.7,248.2a6.31,6.31,0,1,1-7.1-5.4h0a6.3,6.3,0,0,1,7.1,5.4Z"/><path class="ag" d="M560.2,197.4l36.1-3.6-.8-13.5-40.3,4.1-32.2-22s-3.2-9.8-10.5-10.6l-1.1,11.3,33.2,29.3,7.5,5.4Z"/><path class="ag" d="M597.3,396.9l-1.2,14.8-8.4-.6s-.4-5.7-1-14.2Z"/><path class="u" d="M597.2,409.6s-5.1-2.6-9.7-1.2c-7.9,2.6-9.1,8.2-22.3,11.5-4.7,1.2-4.8,4.7,1.6,4.6,2.6,0,8.5.1,14.5.3,8.2.1,15.9.3,16.7-.7C599.5,422.7,598.8,413.5,597.2,409.6Z"/><path class="ah" d="M582,322.6c-.7-13.8,3.8-73,3.8-73l26.7,1L603.1,323l-5.3,74.6H586C584.5,375.9,582.6,335.3,582,322.6Z"/><path class="ag" d="M650.9,391.7l3.4,14.5-8.2,1.9s-2-5.3-5.1-13.4Z"/><path class="ah" d="M610.4,323.9c-4.8-13.1-14.4-69.3-14.4-69.3l34.1,1.2,1.5,64.6,20,71.8-11.3,3.5C632.4,375.6,614.8,335.9,610.4,323.9Z"/><path class="u" d="M625.9,420.5a39.32,39.32,0,0,0,10.3-4.5c3.2-3.8,4.7-7.2,9-10.1,4-2.8,9.5-1.8,9.5-1.8,2.6,3.2,6,11.8,5.1,13.7-.6,1.2-9.7,4.9-17.6,7.2h0c-6,.1-11.7,0-14.5.1C621.2,425.2,621.2,421.8,625.9,420.5Z"/><path class="w" d="M592.3,176.2S580,170.5,579.7,161c-.3-17.6.2-27.5,19.4-25.4,22.3,2.4,19.7,19.7,25.7,34.2,5.1,12.3-13.5-5.7-21.6,31.1s7.3,22.3-5.9,1.3S601.1,183.1,592.3,176.2Z"/><path class="ai" d="M612.3,279c-11.5,2.4-21.7,2.2-29.7,2.1,1.3-13.8,3.5-39.4,2.3-48.2-1.6-11.8-16.7-20-10.1-32.6a187,187,0,0,0,9.7-21.4s9.7-4.3,13.5-4.1c0,0,22.6-.9,25.3,8.5,2.2,8.4-2.5,35.3.9,48s10.6,23,9,36.6C633,269.1,629.6,275.4,612.3,279Z"/><path class="aj" d="M584.4,147.5a3.49,3.49,0,0,0,3.1-2.2,27,27,0,0,0,5.9,3.5c3.7,1.6,10.9,1.3,11.2,1.9a22.34,22.34,0,0,1,.2,3.7s4.8-1.6,4.3,1.8-3.4,3.5-3.8,5.4a40.2,40.2,0,0,0-.6,6.9c.4,4.6,3.8,6.3,6.5,7.1a18.66,18.66,0,0,1-8.1,5.1c-1.2-1.3-2.8-2.9-4-2.4a27.19,27.19,0,0,0-4.3,4s-3.1-6.2-5.9-4.7a2.11,2.11,0,0,0-1.3,1.6,3.72,3.72,0,0,1,.2-1.8c1.6-.7,6.2-2,6.8-3.2.4-.7-.2-2.2-.6-2.6a8.36,8.36,0,0,1-9.1-7.3C583.2,156.8,584.4,147.5,584.4,147.5Z"/><path class="ak" d="M594.5,182.3s2.1-4.3,4.6-4.9,7.2-3.2,7.9-5,7.5,3.8,8.2,4.3-2.8,5.3-6.8,7.9-5.1,2.6-5.1,2.6-2.9-8.9-4.4-7.9S594.5,182.3,594.5,182.3Z"/><path class="ak" d="M594.5,182.3s-3.4-4-5.1-3.7c-1.3.1-2.9,5.4-3.4,6.3s-2.1-3.8-1.6-6,8.1-4.3,8.8-4.1C594.1,175.1,591.7,176.8,594.5,182.3Z"/><path class="ag" d="M527.4,227l7.5,1.2h.8L579,219a2.22,2.22,0,0,0,1.3-.8l26.8-34.7h0a6.35,6.35,0,0,1,8.8-1.4l5.8,4.2a2.23,2.23,0,0,1,.5,3.1h0l-.1.1-2.7,3.3L592,226.5a15.43,15.43,0,0,1-11,5.8l-45.4,3.8h0l-8.8,2.2-8.8,2.3a5.52,5.52,0,0,1-6.1-2.5l-1-1.6a2.18,2.18,0,0,1,.6-2.9l6.2-4.4.1-.1,4.7-2.9a2.54,2.54,0,0,1,1.9-.2l2.4.9C527.1,226.9,527.2,227,527.4,227Z"/><path class="l" d="M327.6,107.9H373a3.33,3.33,0,0,1,3.3,3.3v45.4a3.33,3.33,0,0,1-3.3,3.3H327.6a3.33,3.33,0,0,1-3.3-3.3V111.2A3.33,3.33,0,0,1,327.6,107.9Z"/><path class="l" d="M391.8,107.9h45.4a3.33,3.33,0,0,1,3.3,3.3v45.4a3.33,3.33,0,0,1-3.3,3.3H391.8a3.33,3.33,0,0,1-3.3-3.3V111.2A3.33,3.33,0,0,1,391.8,107.9Z"/><path class="al" d="M456,107.9h45.4a3.33,3.33,0,0,1,3.3,3.3v45.4a3.33,3.33,0,0,1-3.3,3.3H456a3.33,3.33,0,0,1-3.3-3.3V111.2A3.33,3.33,0,0,1,456,107.9Z"/><g class="ac"><path class="y" d="M459.7,162.9l7.6-44.8a3.29,3.29,0,0,1,3.8-2.7l44.8,7.6a3.29,3.29,0,0,1,2.7,3.8L511,171.6a3.29,3.29,0,0,1-3.8,2.7l-44.8-7.6A3.29,3.29,0,0,1,459.7,162.9Z"/></g><path class="y" d="M463.3,167.8,471,123a3.29,3.29,0,0,1,3.8-2.7l44.8,7.6a3.29,3.29,0,0,1,2.7,3.8l-7.6,44.8a3.29,3.29,0,0,1-3.8,2.7l-44.8-7.6A3.36,3.36,0,0,1,463.3,167.8Z"/><path class="g" d="M495.5,138l2,7.9c.1.3.3.5.5.5l7.8,2.1a.72.72,0,0,1,.5.9h0a1.38,1.38,0,0,1-.3.4l-6.9,4.3a.84.84,0,0,0-.4.7l.4,8.1a.77.77,0,0,1-.7.8h0a.76.76,0,0,1-.5-.2l-6.2-5.2a.75.75,0,0,0-.8-.1l-7.6,2.9a.73.73,0,0,1-1-.4h0a.64.64,0,0,1,0-.6l3-7.5a.78.78,0,0,0-.1-.8l-5.1-6.3a.79.79,0,0,1,.1-1.1h0a.76.76,0,0,1,.5-.2l8.1.6a.91.91,0,0,0,.7-.3l4.5-6.8a.89.89,0,0,1,1.1-.2,1.76,1.76,0,0,1,.4.5Z"/><path class="ag" d="M516.6,155s-10.1.3-10,1.4,6.3,1.2,6.3,1.2,2.2,7.3,10.1,6.4C523,164,521.1,157.5,516.6,155Z"/><rect class="l" x="217.9" y="347.5" width="114.2" height="98"/><rect class="am" x="217.9" y="347.5" width="114.2" height="16.5"/><circle class="g" cx="235.8" cy="355.7" r="3.2"/><circle class="g" cx="251.2" cy="355.7" r="3.2"/><path class="g" d="M269.7,355.7a3.2,3.2,0,1,1-3.2-3.2h0a3.29,3.29,0,0,1,3.2,3.2Z"/><path class="an" d="M283.9,382.5,280.4,395l-7.9,27.9c-.2.7-.4.9-1.2.9h-7.7c.6-2.3,1.2-4.4,1.8-6.5,3.2-11.2,6.3-22.5,9.5-33.7.2-.8.5-1.2,1.4-1.1Z"/><path class="an" d="M297.2,403.3l-11.4-9.7,5.4-6.3,18.9,16-18.9,16-5.4-6.2Z"/><path class="an" d="M249.9,403.3l11.4,9.7-5.4,6.3-18.9-16,18.9-16,5.4,6.3Z"/></g></svg>