<?xml version="1.0" encoding="UTF-8" standalone="no"?>
<!DOCTYPE svg PUBLIC "-//W3C//DTD SVG 1.1//EN" "http://www.w3.org/Graphics/SVG/1.1/DTD/svg11.dtd">
<svg width="100%" height="100%" viewBox="0 0 512 512" version="1.1" xmlns="http://www.w3.org/2000/svg" xmlns:xlink="http://www.w3.org/1999/xlink" xml:space="preserve" xmlns:serif="http://www.serif.com/" style="fill-rule:evenodd;clip-rule:evenodd;stroke-linejoin:round;stroke-miterlimit:2;">
    <g>
        <g>
            <g transform="matrix(5.26429,0,0,5.09876,-212.038,-756.4)">
                <ellipse cx="88.908" cy="198.573" rx="48.432" ry="49.816" style="fill:rgb(233,130,199);"/>
            </g>
            <g transform="matrix(0.807678,0,0,0.807678,50.5676,47.7405)">
                <g>
                    <path d="M255.999,51.199C251.289,51.199 247.466,47.376 247.466,42.666L247.466,8.533C247.466,3.823 251.289,0 255.999,0C260.71,0 264.533,3.823 264.533,8.533L264.533,42.666C264.534,47.376 260.719,51.199 255.999,51.199Z" style="fill:rgb(170,18,116);fill-rule:nonzero;"/>
                    <path d="M174.934,72.916C171.879,72.916 169.063,71.295 167.536,68.649L150.47,39.099C148.089,35.037 149.455,29.806 153.516,27.426C157.577,25.046 162.809,26.411 165.189,30.472C165.206,30.506 165.223,30.54 165.249,30.566L182.315,60.116C184.67,64.195 183.271,69.417 179.192,71.772C177.904,72.524 176.436,72.916 174.934,72.916Z" style="fill:rgb(170,18,116);fill-rule:nonzero;"/>
                    <path d="M115.577,132.265C114.075,132.265 112.607,131.872 111.31,131.122L81.759,114.056C77.663,111.726 76.229,106.521 78.559,102.417C80.889,98.321 86.095,96.887 90.199,99.217C90.233,99.234 90.267,99.251 90.293,99.277L119.843,116.343C123.922,118.698 125.321,123.92 122.966,127.999C121.448,130.636 118.632,132.265 115.577,132.265Z" style="fill:rgb(170,18,116);fill-rule:nonzero;"/>
                    <path d="M93.869,213.331L59.735,213.331C55.025,213.331 51.202,209.508 51.202,204.798C51.202,200.088 55.025,196.265 59.735,196.265L93.869,196.265C98.579,196.265 102.402,200.088 102.402,204.798C102.402,209.508 98.588,213.331 93.869,213.331Z" style="fill:rgb(170,18,116);fill-rule:nonzero;"/>
                    <path d="M86.044,311.463C81.333,311.463 77.51,307.64 77.51,302.93C77.51,299.884 79.14,297.068 81.777,295.54L111.328,278.474C115.39,276.093 120.621,277.45 123.001,281.52C125.382,285.582 124.025,290.813 119.955,293.193C119.921,293.21 119.887,293.227 119.853,293.253L90.303,310.319C89.013,311.071 87.546,311.463 86.044,311.463Z" style="fill:rgb(170,18,116);fill-rule:nonzero;"/>
                    <path d="M425.956,311.463C424.454,311.463 422.986,311.07 421.689,310.32L392.139,293.254C388.043,290.924 386.61,285.719 388.939,281.615C391.269,277.519 396.474,276.085 400.578,278.415C400.612,278.432 400.646,278.449 400.68,278.475L430.231,295.541C434.31,297.896 435.709,303.118 433.354,307.197C431.828,309.834 429.012,311.463 425.956,311.463Z" style="fill:rgb(170,18,116);fill-rule:nonzero;"/>
                    <path d="M452.265,213.331L418.131,213.331C413.421,213.331 409.598,209.508 409.598,204.798C409.598,200.088 413.421,196.265 418.131,196.265L452.265,196.265C456.975,196.265 460.798,200.088 460.798,204.798C460.798,209.508 456.984,213.331 452.265,213.331Z" style="fill:rgb(170,18,116);fill-rule:nonzero;"/>
                    <path d="M396.423,132.265C391.713,132.265 387.89,128.442 387.89,123.732C387.89,120.686 389.52,117.87 392.157,116.342L421.707,99.276C425.769,96.895 431.001,98.261 433.381,102.322C435.762,106.384 434.396,111.615 430.335,113.995C430.301,114.012 430.267,114.029 430.241,114.055L400.69,131.121C399.392,131.873 397.925,132.265 396.423,132.265Z" style="fill:rgb(170,18,116);fill-rule:nonzero;"/>
                    <path d="M337.066,72.916C332.356,72.907 328.533,69.085 328.541,64.374C328.541,62.881 328.934,61.413 329.684,60.116L346.75,30.566C349.08,26.47 354.285,25.036 358.389,27.366C362.485,29.696 363.919,34.901 361.589,39.005C361.572,39.039 361.555,39.073 361.529,39.107L344.463,68.657C342.945,71.295 340.121,72.916 337.066,72.916Z" style="fill:rgb(170,18,116);fill-rule:nonzero;"/>
                    <path d="M298.666,170.665C279.816,170.665 264.533,185.948 264.533,204.798L264.533,221.864L247.466,221.864L247.466,204.798C247.466,185.948 232.183,170.665 213.333,170.665C194.483,170.665 179.201,185.948 179.201,204.798C179.201,223.648 194.484,238.931 213.334,238.931L230.4,238.931L230.4,332.797C230.4,337.507 234.223,341.33 238.933,341.33C243.643,341.33 247.466,337.507 247.466,332.797L247.466,238.931L264.533,238.931L264.533,332.797C264.533,337.507 268.356,341.33 273.066,341.33C277.776,341.33 281.599,337.507 281.599,332.797L281.599,238.931L298.665,238.931C317.515,238.931 332.798,223.648 332.798,204.798C332.798,185.948 317.516,170.665 298.666,170.665ZM196.267,204.798C196.267,195.369 203.904,187.732 213.333,187.732C222.762,187.732 230.399,195.369 230.399,204.798L230.399,221.864L213.333,221.864C203.913,221.864 196.267,214.227 196.267,204.798ZM298.666,221.864L281.6,221.864L281.6,204.798C281.6,195.369 289.237,187.732 298.666,187.732C308.095,187.732 315.732,195.369 315.732,204.798C315.733,214.227 308.096,221.864 298.666,221.864Z" style="fill:rgb(170,18,116);fill-rule:nonzero;"/>
                </g>
                <path d="M262.631,68.428C187.316,64.81 123.326,122.93 119.708,198.253C117.634,241.38 136.083,282.946 169.456,310.337C175.472,315.047 179.047,322.215 179.201,329.852L179.201,349.862C179.244,360.674 186.079,370.29 196.267,373.891L196.267,383.994C196.293,390.309 198.665,396.393 202.923,401.06C194.049,410.711 194.049,425.542 202.923,435.194C193.434,445.596 194.176,461.715 204.578,471.204C209.305,475.513 215.475,477.885 221.866,477.86C226.457,477.979 230.28,474.353 230.399,469.762C230.442,467.97 229.913,466.212 228.88,464.744C228.607,464.223 228.291,463.729 227.924,463.268C227.224,462.628 226.422,462.099 225.552,461.715C225.305,461.587 225.057,461.485 224.801,461.382C223.939,461.066 223.035,460.887 222.113,460.844C222.028,460.844 221.951,460.793 221.866,460.793C217.156,460.793 213.333,456.97 213.333,452.26C213.333,447.55 217.156,443.727 221.866,443.727L255.999,443.727C260.71,443.727 264.533,439.904 264.533,435.194C264.533,430.484 260.71,426.66 255.999,426.66L221.866,426.66C217.156,426.66 213.333,422.837 213.333,418.127C213.333,413.417 217.156,409.594 221.866,409.594L255.999,409.594C260.71,409.594 264.533,405.771 264.533,401.061C264.533,396.351 260.71,392.528 255.999,392.528L221.866,392.528C217.156,392.528 213.333,388.705 213.333,383.995L213.333,375.462L255.999,375.462C260.71,375.462 264.533,371.639 264.533,366.929C264.533,362.219 260.71,358.396 255.999,358.396L204.8,358.396C200.09,358.396 196.267,354.573 196.267,349.863L196.267,329.853C196.13,317.096 190.251,305.073 180.267,297.128C129.298,255.238 121.934,179.949 163.824,128.98C187.785,99.822 224.12,83.702 261.82,85.503C324.872,89.258 374.39,140.926 375.465,204.072C375.772,240.389 359.44,274.856 331.135,297.622C321.228,305.788 315.562,318.008 315.733,330.842L315.733,349.862C315.733,354.572 311.91,358.395 307.2,358.395L281.6,358.395C276.89,358.395 273.067,362.218 273.067,366.928C273.067,371.638 276.89,375.461 281.6,375.461L298.666,375.461L298.666,383.994C298.666,388.704 294.843,392.527 290.133,392.527L281.6,392.527C276.89,392.527 273.067,396.35 273.067,401.06C273.067,405.77 276.89,409.593 281.6,409.593L290.133,409.593C294.843,409.593 298.666,413.416 298.666,418.126C298.666,422.836 294.843,426.659 290.133,426.659L281.6,426.659C276.89,426.659 273.067,430.483 273.067,435.193C273.067,439.903 276.89,443.726 281.6,443.726L290.133,443.726C294.843,443.726 298.666,447.549 298.666,452.259C298.666,456.969 294.843,460.792 290.133,460.792L247.466,460.792C242.756,460.792 238.933,464.615 238.933,469.325C238.933,474.035 242.756,477.858 247.466,477.858L280.141,477.858C275.431,491.187 260.805,498.176 247.475,493.465C243.396,492.023 239.744,489.565 236.868,486.331C233.736,482.807 228.343,482.5 224.819,485.631C221.295,488.763 220.988,494.156 224.119,497.68C239.726,515.267 266.632,516.871 284.219,501.264C291.481,494.821 296.328,486.083 297.94,476.509C311.303,472.336 318.752,458.111 314.571,444.748C313.462,441.198 311.584,437.939 309.076,435.191C317.951,425.539 317.951,410.708 309.076,401.057C313.334,396.389 315.706,390.305 315.732,383.991L315.732,373.892C325.921,370.291 332.756,360.674 332.798,349.863L332.798,330.843C332.687,323.18 336.006,315.859 341.852,310.901C374.218,284.883 392.898,245.476 392.531,203.945C391.303,131.771 334.694,72.711 262.631,68.428Z" style="fill:rgb(170,18,116);fill-rule:nonzero;"/>
            </g>
        </g>
    </g>
</svg>
