<svg xmlns="http://www.w3.org/2000/svg" width="278.065" height="213.289" viewBox="0 0 278.065 213.289">
    <defs>
        <style>
            .cls-1{fill:#e9d5fe}.cls-2{fill:#fff;opacity:.645}.cls-3{fill:none}.cls-4{fill:#be85fc}
        </style>
    </defs>
    <g id="Group_57038" data-name="Group 57038" transform="translate(-438 -3034)">
        <path id="Combined_Shape" d="M192 196v-4h4v4zm-16 0v-4h4v4zm-16 0v-4h4v4zm-16 0v-4h4v4zm-16 0v-4h4v4zm-16 0v-4h4v4zm-16 0v-4h4v4zm-16 0v-4h4v4zm-16 0v-4h4v4zm-16 0v-4h4v4zm-16 0v-4h4v4zm-16 0v-4h4v4zm-16 0v-4h4v4zm192-16v-4h4v4zm-16 0v-4h4v4zm-16 0v-4h4v4zm-16 0v-4h4v4zm-16 0v-4h4v4zm-16 0v-4h4v4zm-16 0v-4h4v4zm-16 0v-4h4v4zm-16 0v-4h4v4zm-16 0v-4h4v4zm-16 0v-4h4v4zm-16 0v-4h4v4zm-16 0v-4h4v4zm192-16v-4h4v4zm-16 0v-4h4v4zm-16 0v-4h4v4zm-16 0v-4h4v4zm-16 0v-4h4v4zm-16 0v-4h4v4zm-16 0v-4h4v4zm-16 0v-4h4v4zm-16 0v-4h4v4zm-16 0v-4h4v4zm-16 0v-4h4v4zm-16 0v-4h4v4zm-16 0v-4h4v4zm192-16v-4h4v4zm-16 0v-4h4v4zm-16 0v-4h4v4zm-16 0v-4h4v4zm-16 0v-4h4v4zm-16 0v-4h4v4zm-16 0v-4h4v4zm-16 0v-4h4v4zm-16 0v-4h4v4zm-16 0v-4h4v4zm-16 0v-4h4v4zm-16 0v-4h4v4zm-16 0v-4h4v4zm192-16v-4h4v4zm-16 0v-4h4v4zm-16 0v-4h4v4zm-16 0v-4h4v4zm-16 0v-4h4v4zm-16 0v-4h4v4zm-16 0v-4h4v4zm-16 0v-4h4v4zm-16 0v-4h4v4zm-16 0v-4h4v4zm-16 0v-4h4v4zm-16 0v-4h4v4zm-16 0v-4h4v4zm192-16v-4h4v4zm-16 0v-4h4v4zm-16 0v-4h4v4zm-16 0v-4h4v4zm-16 0v-4h4v4zm-16 0v-4h4v4zm-16 0v-4h4v4zm-16 0v-4h4v4zm-16 0v-4h4v4zm-16 0v-4h4v4zm-16 0v-4h4v4zm-16 0v-4h4v4zm-16 0v-4h4v4zm192-16v-4h4v4zm-16 0v-4h4v4zm-16 0v-4h4v4zm-16 0v-4h4v4zm-16 0v-4h4v4zm-16 0v-4h4v4zm-16 0v-4h4v4zm-16 0v-4h4v4zm-16 0v-4h4v4zm-16 0v-4h4v4zm-16 0v-4h4v4zm-16 0v-4h4v4zm-16 0v-4h4v4zm192-16v-4h4v4zm-16 0v-4h4v4zm-16 0v-4h4v4zm-16 0v-4h4v4zm-16 0v-4h4v4zm-16 0v-4h4v4zm-16 0v-4h4v4zm-16 0v-4h4v4zm-16 0v-4h4v4zm-16 0v-4h4v4zm-16 0v-4h4v4zm-16 0v-4h4v4zM0 84v-4h4v4zm192-16v-4h4v4zm-16 0v-4h4v4zm-16 0v-4h4v4zm-16 0v-4h4v4zm-16 0v-4h4v4zm-16 0v-4h4v4zm-16 0v-4h4v4zm-16 0v-4h4v4zm-16 0v-4h4v4zm-16 0v-4h4v4zm-16 0v-4h4v4zm-16 0v-4h4v4zM0 68v-4h4v4zm192-16v-4h4v4zm-16 0v-4h4v4zm-16 0v-4h4v4zm-16 0v-4h4v4zm-16 0v-4h4v4zm-16 0v-4h4v4zm-16 0v-4h4v4zm-16 0v-4h4v4zm-16 0v-4h4v4zm-16 0v-4h4v4zm-16 0v-4h4v4zm-16 0v-4h4v4zM0 52v-4h4v4zm192-16v-4h4v4zm-16 0v-4h4v4zm-16 0v-4h4v4zm-16 0v-4h4v4zm-16 0v-4h4v4zm-16 0v-4h4v4zm-16 0v-4h4v4zm-16 0v-4h4v4zm-16 0v-4h4v4zm-16 0v-4h4v4zm-16 0v-4h4v4zm-16 0v-4h4v4zM0 36v-4h4v4zm192-16v-4h4v4zm-16 0v-4h4v4zm-16 0v-4h4v4zm-16 0v-4h4v4zm-16 0v-4h4v4zm-16 0v-4h4v4zm-16 0v-4h4v4zm-16 0v-4h4v4zm-16 0v-4h4v4zm-16 0v-4h4v4zm-16 0v-4h4v4zm-16 0v-4h4v4zM0 20v-4h4v4zM192 4V0h4v4zm-16 0V0h4v4zm-16 0V0h4v4zm-16 0V0h4v4zm-16 0V0h4v4zm-16 0V0h4v4zM96 4V0h4v4zM80 4V0h4v4zM64 4V0h4v4zM48 4V0h4v4zM32 4V0h4v4zM16 4V0h4v4zM0 4V0h4v4z" class="cls-1" data-name="Combined Shape" transform="translate(438 3034)"/>
        <rect id="Rectangle_3796" width="117" height="181" class="cls-2" data-name="Rectangle 3796" rx="20" transform="translate(541 3066)"/>
        <g id="Group_55746" data-name="Group 55746" transform="translate(506.5 2879.42)">
            <path id="Path_54793" d="M142.456 208.893q.006-.639.017-1.269c.025-1.612.048-3.134-.046-4.652a10.8 10.8 0 0 0-8.495-9.855 45.285 45.285 0 0 0-8.1-.394c-24.33-.028-49.045-.034-73.506-.017-6.21 0-10.863 3.929-11.578 9.778a62.652 62.652 0 0 0-.085 6.409zm-54.835-12h20.1v7.885h-20.1zm-12.229.014h7.842v7.94h-7.842z" class="cls-3" data-name="Path 54793"/>
            <path id="Path_54794" d="M146.566 293.511h-.3a11.214 11.214 0 0 0 .23 22.424h.029a11.212 11.212 0 0 0 .039-22.423z" class="cls-3" data-name="Path 54794"/>
            <path id="Rectangle_3782" d="M0 0h19.143v9.981H0z" class="cls-3" data-name="Rectangle 3782" transform="translate(55.997 272.276)"/>
            <path id="Path_54795" d="M133.348 360.88c.008-1.615.017-3.144-.044-4.678a.649.649 0 0 0-.337-.392c-3.613-1.413-7.278-2.8-11.157-4.268l-2.425-.919-9.568 9.721-4.388-4.45c-3.192-3.235-6.3-6.383-9.377-9.56a2.837 2.837 0 0 0-2.227-.927c-16.7.04-33.786.052-50.825.033h-2.383v4.647c.027 6.867 4.8 11.665 11.6 11.669q40.271.021 80.543 0c.192 0 .384-.014.584-.033zm-37.881-3.306h-7.874v-7.88h7.874z" class="cls-3" data-name="Path 54795"/>
            <path id="Path_54796" d="M81.525 317.91v-26.384h13.467l5.963-14.36L91.6 268.3l18.789-18.786 9.171 9.325 13.819-5.7v-13.613h8.947v-22.34H40.757v120.13c18.062 0 35.987 0 53.913-.018a1.246 1.246 0 0 0 .73-.206 273.8 273.8 0 0 0 4.472-4.406l.813-.812-5.752-13.964zm1.775-27.555H47.932v-26.212H83.3zm.044-33.656H47.921v-7.842h35.427zm12.128.066h-7.884v-7.88h7.888zm10.456-20.151h7.921v7.886h-7.921zm-4.3 7.919h-53.69v-7.881h53.692zm-7.986-20.086h7.942v7.807h-7.94zm-45.729-.047H89.4v7.871H47.913zm-.047 73.306H64.9v7.882H47.866zm26.273 12.253v7.979h-26.2v-7.979zm-6.155 20.094H47.871v-7.872h20.113zm12.245.017h-7.875v-7.9h7.875z" class="cls-3" data-name="Path 54796"/>
            <path id="Path_54797" d="M81.3 266.143H49.932v22.212H81.3zm-4.16 18.115H54v-13.982h23.14z" class="cls-4" data-name="Path 54797"/>
            <path id="Rectangle_3783" d="M0 0h49.693v3.881H0z" class="cls-4" data-name="Rectangle 3783" transform="translate(49.938 238.652)"/>
            <path id="Rectangle_3784" d="M0 0h37.49v3.871H0z" class="cls-4" data-name="Rectangle 3784" transform="translate(49.913 226.405)"/>
            <path id="Rectangle_3785" d="M0 0h31.426v3.842H0z" class="cls-4" data-name="Rectangle 3785" transform="translate(49.921 250.857)"/>
            <path id="Rectangle_3786" d="M0 0h22.2v3.979H0z" class="cls-4" data-name="Rectangle 3786" transform="translate(49.938 311.964)"/>
            <path id="Rectangle_3787" d="M0 0h16.114v3.872H0z" class="cls-4" data-name="Rectangle 3787" transform="translate(49.871 324.186)"/>
            <path id="Rectangle_3788" d="M0 0h13.04v3.882H0z" class="cls-4" data-name="Rectangle 3788" transform="translate(49.866 299.711)"/>
            <path id="Rectangle_3789" d="M0 0h3.875v3.905H0z" class="cls-4" data-name="Rectangle 3789" transform="translate(74.354 324.17)"/>
            <path id="Rectangle_3790" d="M0 0h3.887v3.88H0z" class="cls-4" data-name="Rectangle 3790" transform="translate(89.588 250.885)"/>
            <path id="Rectangle_3791" d="M0 0h3.921v3.889H0z" class="cls-4" data-name="Rectangle 3791" transform="translate(107.932 238.614)"/>
            <path id="Rectangle_3792" d="M0 0h3.943v3.807H0z" class="cls-4" data-name="Rectangle 3792" transform="translate(95.644 226.447)"/>
            <path id="Rectangle_3793" d="M0 0h16.105v3.885H0z" class="cls-4" data-name="Rectangle 3793" transform="translate(89.621 198.898)"/>
            <path id="Rectangle_3794" d="M0 0h3.843v3.94H0z" class="cls-4" data-name="Rectangle 3794" transform="translate(77.392 198.912)"/>
            <path id="Rectangle_3795" d="M0 0h3.874v3.88H0z" class="cls-4" data-name="Rectangle 3795" transform="translate(89.593 351.694)"/>
            <g id="Group_55745" data-name="Group 55745">
                <path id="Path_54798" d="M147.29 291.534l-.727-.027h-.035a13.214 13.214 0 0 0-.035 26.427h.034a13.211 13.211 0 0 0 .763-26.4z" class="cls-4" data-name="Path 54798"/>
                <path id="Path_54799" d="M196.766 293.519l-6.87-16.641 8.711-8.708-15.715-15.838-8.808 8.959-16.452-6.8v-12.974h-9.04v-3.223q0-5.207.007-10.414c.008-7.91.017-16.09-.023-24.134a17.281 17.281 0 0 0-17.121-17.146c-26.409-.029-53.192-.029-79.6 0h-.2a17.216 17.216 0 0 0-17.133 17.3c-.023 48.649-.023 97.977 0 146.619v.22a17.207 17.207 0 0 0 17.2 17.121h.09q52.506.012 105 .008c.309 0 .616-.015.939-.034v-12.868l16.49-6.824 8.622 8.762 16.164-16.128-9.229-9.1.341-.656c.242-.465.489-.929.737-1.394a76.99 76.99 0 0 0 1.6-3.123c.711-1.524 1.341-3.132 1.951-4.688a15.838 15.838 0 0 0 .507-1.692c.39-1.493.794-3.037 1.97-3.82 1.228-.82 2.87-.662 4.459-.512.6.058 1.169.111 1.689.111h6.514v-22.383zM38.758 202.3c.837-6.847 6.414-11.59 13.569-11.59 24.459-.017 49.178-.012 73.466.018a47.265 47.265 0 0 1 8.488.425 12.82 12.82 0 0 1 10.142 11.7c.1 1.595.075 3.155.05 4.807-.012.736-.023 1.481-.023 2.238v1H38.76l-.05-.947a64.658 64.658 0 0 1 .048-7.651zm64.572 74.366l-7 16.864h-12.8v22.38h12.742l6.77 16.438-1.755 1.752c-1.392 1.392-2.969 2.971-4.552 4.482l-.084.072a3.05 3.05 0 0 1-2.013.643c-18.224.019-36.48.019-54.881.019h-1v-124.13h105.565v26.34h-8.947v12.946l-16.3 6.723-8.7-8.846-15.912 15.907zm32.018 84.23l-.007 2.655-.915.078a32.45 32.45 0 0 0-.535.053 10.907 10.907 0 0 1-1.129.078q-20.136.01-40.273.011t-40.272-.011c-7.849 0-13.569-5.749-13.6-13.661-.005-1.208 0-2.413 0-3.669v-2.986H43a15009 15009 0 0 0 50.767-.031 4.727 4.727 0 0 1 3.742 1.556 1420.31 1420.31 0 0 0 9.343 9.523l2.963 3.005 9.058-9.2 3.644 1.381c3.885 1.471 7.555 2.859 11.246 4.306a2.683 2.683 0 0 1 1.515 1.883l.019.159c.069 1.609.06 3.191.051 4.866zm23.4-43.884a17.216 17.216 0 0 1-12.22 5.043h-.048a17.331 17.331 0 0 1 .058-34.661h.033a17.331 17.331 0 0 1 12.177 29.618z" class="cls-4" data-name="Path 54799"/>
            </g>
        </g>
    </g>
</svg>
